<ttFont>
    <TTGlyph name="A" xMin="59" yMin="-25" xMax="1403" yMax="1567">
      <contour>
        <pt x="566" y="1517" on="1"/>
        <pt x="483" y="1517" on="0"/>
        <pt x="367" y="1474" on="0"/>
        <pt x="295" y="1408" on="0"/>
        <pt x="262" y="1328" on="0"/>
        <pt x="262" y="1291" on="1"/>
        <pt x="262" y="1223" on="0"/>
        <pt x="309" y="1129" on="0"/>
        <pt x="379" y="1057" on="0"/>
        <pt x="460" y="995" on="0"/>
        <pt x="530" y="922" on="0"/>
        <pt x="577" y="827" on="0"/>
        <pt x="577" y="759" on="1"/>
        <pt x="577" y="684" on="0"/>
        <pt x="520" y="587" on="0"/>
        <pt x="436" y="532" on="0"/>
        <pt x="341" y="511" on="0"/>
        <pt x="303" y="511" on="1"/>
        <pt x="249" y="511" on="0"/>
        <pt x="160" y="546" on="0"/>
        <pt x="95" y="608" on="0"/>
        <pt x="59" y="689" on="0"/>
        <pt x="59" y="736" on="1"/>
        <pt x="59" y="782" on="0"/>
        <pt x="94" y="864" on="0"/>
        <pt x="156" y="926" on="0"/>
        <pt x="237" y="961" on="0"/>
        <pt x="284" y="961" on="1"/>
        <pt x="284" y="911" on="1"/>
        <pt x="248" y="911" on="0"/>
        <pt x="184" y="883" on="0"/>
        <pt x="137" y="836" on="0"/>
        <pt x="109" y="772" on="0"/>
        <pt x="109" y="736" on="1"/>
        <pt x="109" y="700" on="0"/>
        <pt x="137" y="636" on="0"/>
        <pt x="188" y="589" on="0"/>
        <pt x="259" y="561" on="0"/>
        <pt x="301" y="561" on="1"/>
        <pt x="333" y="561" on="0"/>
        <pt x="411" y="578" on="0"/>
        <pt x="480" y="625" on="0"/>
        <pt x="527" y="706" on="0"/>
        <pt x="527" y="769" on="1"/>
        <pt x="527" y="823" on="0"/>
        <pt x="480" y="902" on="0"/>
        <pt x="410" y="969" on="0"/>
        <pt x="329" y="1034" on="0"/>
        <pt x="259" y="1114" on="0"/>
        <pt x="212" y="1218" on="0"/>
        <pt x="212" y="1291" on="1"/>
        <pt x="212" y="1336" on="0"/>
        <pt x="252" y="1434" on="0"/>
        <pt x="338" y="1515" on="0"/>
        <pt x="473" y="1567" on="0"/>
        <pt x="569" y="1567" on="1"/>
        <pt x="653" y="1567" on="0"/>
        <pt x="817" y="1506" on="0"/>
        <pt x="946" y="1396" on="0"/>
        <pt x="1026" y="1243" on="0"/>
        <pt x="1026" y="1151" on="1"/>
        <pt x="1026" y="1100" on="0"/>
        <pt x="990" y="980" on="0"/>
        <pt x="927" y="847" on="0"/>
        <pt x="840" y="706" on="0"/>
        <pt x="788" y="634" on="1"/>
        <pt x="907" y="524" on="1"/>
        <pt x="1095" y="666" on="1"/>
        <pt x="1095" y="1118" on="1"/>
        <pt x="1095" y="1204" on="0"/>
        <pt x="1126" y="1366" on="0"/>
        <pt x="1198" y="1491" on="0"/>
        <pt x="1316" y="1567" on="0"/>
        <pt x="1403" y="1567" on="1"/>
        <pt x="1403" y="1518" on="1"/>
        <pt x="1330" y="1518" on="0"/>
        <pt x="1231" y="1451" on="0"/>
        <pt x="1171" y="1339" on="0"/>
        <pt x="1145" y="1195" on="0"/>
        <pt x="1145" y="1118" on="1"/>
        <pt x="1145" y="344" on="1"/>
        <pt x="1145" y="282" on="0"/>
        <pt x="1177" y="186" on="0"/>
        <pt x="1233" y="108" on="0"/>
        <pt x="1309" y="45" on="0"/>
        <pt x="1353" y="16" on="1"/>
        <pt x="1325" y="-25" on="1"/>
        <pt x="1279" y="6" on="0"/>
        <pt x="1195" y="75" on="0"/>
        <pt x="1132" y="161" on="0"/>
        <pt x="1095" y="268" on="0"/>
        <pt x="1095" y="338" on="1"/>
        <pt x="1095" y="607" on="1"/>
        <pt x="905" y="459" on="1"/>
        <pt x="758" y="594" on="1"/>
        <pt x="713" y="535" on="0"/>
        <pt x="614" y="413" on="0"/>
        <pt x="511" y="295" on="0"/>
        <pt x="405" y="184" on="0"/>
        <pt x="302" y="86" on="0"/>
        <pt x="206" y="5" on="0"/>
        <pt x="164" y="-24" on="1"/>
        <pt x="127" y="11" on="1"/>
        <pt x="217" y="79" on="0"/>
        <pt x="413" y="262" on="0"/>
        <pt x="602" y="468" on="0"/>
        <pt x="772" y="687" on="0"/>
        <pt x="901" y="895" on="0"/>
        <pt x="977" y="1081" on="0"/>
        <pt x="977" y="1151" on="1"/>
        <pt x="977" y="1223" on="0"/>
        <pt x="912" y="1355" on="0"/>
        <pt x="801" y="1457" on="0"/>
        <pt x="651" y="1517" on="0"/>
      </contour>
    </TTGlyph>
    <TTGlyph name="AE" xMin="60" yMin="0" xMax="2304" yMax="1567">
      <contour>
        <pt x="148" y="45" on="1"/>
        <pt x="238" y="113" on="0"/>
        <pt x="432" y="288" on="0"/>
        <pt x="617" y="484" on="0"/>
        <pt x="783" y="692" on="0"/>
        <pt x="909" y="892" on="0"/>
        <pt x="982" y="1076" on="0"/>
        <pt x="982" y="1151" on="1"/>
        <pt x="982" y="1223" on="0"/>
        <pt x="925" y="1348" on="0"/>
        <pt x="815" y="1441" on="0"/>
        <pt x="654" y="1495" on="0"/>
        <pt x="550" y="1495" on="1"/>
        <pt x="472" y="1495" on="0"/>
        <pt x="350" y="1465" on="0"/>
        <pt x="265" y="1411" on="0"/>
        <pt x="220" y="1335" on="0"/>
        <pt x="220" y="1288" on="1"/>
        <pt x="220" y="1244" on="0"/>
        <pt x="244" y="1179" on="0"/>
        <pt x="284" y="1128" on="0"/>
        <pt x="335" y="1086" on="0"/>
        <pt x="363" y="1065" on="1"/>
        <pt x="397" y="1039" on="0"/>
        <pt x="465" y="986" on="0"/>
        <pt x="517" y="922" on="0"/>
        <pt x="550" y="844" on="0"/>
        <pt x="550" y="795" on="1"/>
        <pt x="550" y="743" on="0"/>
        <pt x="512" y="654" on="0"/>
        <pt x="445" y="588" on="0"/>
        <pt x="355" y="551" on="0"/>
        <pt x="304" y="551" on="1"/>
        <pt x="253" y="551" on="0"/>
        <pt x="164" y="588" on="0"/>
        <pt x="98" y="654" on="0"/>
        <pt x="60" y="743" on="0"/>
        <pt x="60" y="795" on="1"/>
        <pt x="60" y="824" on="0"/>
        <pt x="70" y="878" on="0"/>
        <pt x="83" y="901" on="1"/>
        <pt x="128" y="881" on="1"/>
        <pt x="109" y="842" on="0"/>
        <pt x="109" y="795" on="1"/>
        <pt x="109" y="754" on="0"/>
        <pt x="139" y="683" on="0"/>
        <pt x="192" y="630" on="0"/>
        <pt x="263" y="600" on="0"/>
        <pt x="304" y="600" on="1"/>
        <pt x="344" y="600" on="0"/>
        <pt x="416" y="630" on="0"/>
        <pt x="469" y="683" on="0"/>
        <pt x="500" y="754" on="0"/>
        <pt x="500" y="795" on="1"/>
        <pt x="500" y="834" on="0"/>
        <pt x="471" y="899" on="0"/>
        <pt x="424" y="954" on="0"/>
        <pt x="365" y="1002" on="0"/>
        <pt x="334" y="1024" on="1"/>
        <pt x="303" y="1048" on="0"/>
        <pt x="244" y="1096" on="0"/>
        <pt x="199" y="1156" on="0"/>
        <pt x="171" y="1233" on="0"/>
        <pt x="171" y="1284" on="1"/>
        <pt x="171" y="1348" on="0"/>
        <pt x="223" y="1445" on="0"/>
        <pt x="321" y="1511" on="0"/>
        <pt x="461" y="1544" on="0"/>
        <pt x="550" y="1544" on="1"/>
        <pt x="650" y="1544" on="0"/>
        <pt x="825" y="1490" on="0"/>
        <pt x="955" y="1389" on="0"/>
        <pt x="1031" y="1243" on="0"/>
        <pt x="1031" y="1151" on="1"/>
        <pt x="1031" y="1100" on="0"/>
        <pt x="995" y="980" on="0"/>
        <pt x="932" y="847" on="0"/>
        <pt x="845" y="706" on="0"/>
        <pt x="793" y="634" on="1"/>
        <pt x="912" y="524" on="1"/>
        <pt x="1100" y="666" on="1"/>
        <pt x="1100" y="1118" on="1"/>
        <pt x="1100" y="1204" on="0"/>
        <pt x="1131" y="1366" on="0"/>
        <pt x="1203" y="1491" on="0"/>
        <pt x="1321" y="1567" on="0"/>
        <pt x="1408" y="1567" on="1"/>
        <pt x="1448" y="1567" on="0"/>
        <pt x="1508" y="1545" on="0"/>
        <pt x="1551" y="1510" on="0"/>
        <pt x="1576" y="1465" on="0"/>
        <pt x="1581" y="1443" on="1"/>
        <pt x="1664" y="1546" on="1"/>
        <pt x="1679" y="1501" on="0"/>
        <pt x="1723" y="1410" on="0"/>
        <pt x="1785" y="1337" on="0"/>
        <pt x="1867" y="1292" on="0"/>
        <pt x="1918" y="1292" on="1"/>
        <pt x="1968" y="1292" on="0"/>
        <pt x="2047" y="1330" on="0"/>
        <pt x="2101" y="1397" on="0"/>
        <pt x="2130" y="1488" on="0"/>
        <pt x="2130" y="1542" on="1"/>
        <pt x="2180" y="1542" on="1"/>
        <pt x="2180" y="1478" on="0"/>
        <pt x="2145" y="1368" on="0"/>
        <pt x="2077" y="1288" on="0"/>
        <pt x="1980" y="1242" on="0"/>
        <pt x="1918" y="1242" on="1"/>
        <pt x="1863" y="1242" on="0"/>
        <pt x="1777" y="1276" on="0"/>
        <pt x="1710" y="1333" on="0"/>
        <pt x="1661" y="1405" on="0"/>
        <pt x="1645" y="1444" on="1"/>
        <pt x="1506" y="1271" on="1"/>
        <pt x="1487" y="1248" on="0"/>
        <pt x="1454" y="1192" on="0"/>
        <pt x="1454" y="1150" on="1"/>
        <pt x="1454" y="1111" on="0"/>
        <pt x="1487" y="1051" on="0"/>
        <pt x="1541" y="1001" on="0"/>
        <pt x="1611" y="959" on="0"/>
        <pt x="1649" y="938" on="1"/>
        <pt x="1696" y="912" on="0"/>
        <pt x="1789" y="854" on="0"/>
        <pt x="1828" y="818" on="1"/>
        <pt x="1842" y="860" on="0"/>
        <pt x="1877" y="939" on="0"/>
        <pt x="1925" y="1001" on="0"/>
        <pt x="1990" y="1039" on="0"/>
        <pt x="2033" y="1039" on="1"/>
        <pt x="2076" y="1039" on="0"/>
        <pt x="2125" y="1011" on="0"/>
        <pt x="2145" y="994" on="1"/>
        <pt x="2156" y="984" on="0"/>
        <pt x="2180" y="969" on="0"/>
        <pt x="2195" y="969" on="1"/>
        <pt x="2214" y="969" on="0"/>
        <pt x="2238" y="990" on="0"/>
        <pt x="2250" y="1025" on="0"/>
        <pt x="2254" y="1070" on="0"/>
        <pt x="2254" y="1093" on="1"/>
        <pt x="2304" y="1093" on="1"/>
        <pt x="2304" y="1061" on="0"/>
        <pt x="2297" y="998" on="0"/>
        <pt x="2274" y="949" on="0"/>
        <pt x="2231" y="919" on="0"/>
        <pt x="2195" y="919" on="1"/>
        <pt x="2167" y="919" on="0"/>
        <pt x="2130" y="942" on="0"/>
        <pt x="2113" y="956" on="1"/>
        <pt x="2099" y="967" on="0"/>
        <pt x="2061" y="989" on="0"/>
        <pt x="2033" y="989" on="1"/>
        <pt x="1999" y="989" on="0"/>
        <pt x="1948" y="951" on="0"/>
        <pt x="1909" y="890" on="0"/>
        <pt x="1879" y="814" on="0"/>
        <pt x="1867" y="775" on="1"/>
        <pt x="1894" y="739" on="0"/>
        <pt x="1927" y="648" on="0"/>
        <pt x="1927" y="590" on="1"/>
        <pt x="1927" y="541" on="0"/>
        <pt x="1893" y="441" on="0"/>
        <pt x="1825" y="361" on="0"/>
        <pt x="1723" y="311" on="0"/>
        <pt x="1654" y="311" on="1"/>
        <pt x="1598" y="311" on="0"/>
        <pt x="1504" y="346" on="0"/>
        <pt x="1436" y="410" on="0"/>
        <pt x="1398" y="501" on="0"/>
        <pt x="1398" y="557" on="1"/>
        <pt x="1398" y="609" on="0"/>
        <pt x="1429" y="685" on="0"/>
        <pt x="1450" y="714" on="1"/>
        <pt x="1488" y="685" on="1"/>
        <pt x="1471" y="661" on="0"/>
        <pt x="1448" y="599" on="0"/>
        <pt x="1448" y="557" on="1"/>
        <pt x="1448" y="513" on="0"/>
        <pt x="1478" y="441" on="0"/>
        <pt x="1533" y="389" on="0"/>
        <pt x="1610" y="361" on="0"/>
        <pt x="1657" y="361" on="1"/>
        <pt x="1712" y="361" on="0"/>
        <pt x="1795" y="402" on="0"/>
        <pt x="1850" y="468" on="0"/>
        <pt x="1877" y="550" on="0"/>
        <pt x="1877" y="590" on="1"/>
        <pt x="1877" y="649" on="0"/>
        <pt x="1831" y="740" on="0"/>
        <pt x="1759" y="812" on="0"/>
        <pt x="1669" y="869" on="0"/>
        <pt x="1625" y="894" on="1"/>
        <pt x="1584" y="917" on="0"/>
        <pt x="1504" y="967" on="0"/>
        <pt x="1442" y="1027" on="0"/>
        <pt x="1404" y="1101" on="0"/>
        <pt x="1404" y="1149" on="1"/>
        <pt x="1404" y="1177" on="0"/>
        <pt x="1415" y="1222" on="0"/>
        <pt x="1433" y="1259" on="0"/>
        <pt x="1455" y="1288" on="0"/>
        <pt x="1466" y="1302" on="1"/>
        <pt x="1526" y="1376" on="1"/>
        <pt x="1535" y="1392" on="0"/>
        <pt x="1535" y="1415" on="1"/>
        <pt x="1535" y="1432" on="0"/>
        <pt x="1521" y="1468" on="0"/>
        <pt x="1490" y="1498" on="0"/>
        <pt x="1442" y="1518" on="0"/>
        <pt x="1408" y="1518" on="1"/>
        <pt x="1335" y="1518" on="0"/>
        <pt x="1236" y="1451" on="0"/>
        <pt x="1176" y="1339" on="0"/>
        <pt x="1150" y="1195" on="0"/>
        <pt x="1150" y="1118" on="1"/>
        <pt x="1150" y="446" on="1"/>
        <pt x="1150" y="353" on="0"/>
        <pt x="1218" y="206" on="0"/>
        <pt x="1342" y="104" on="0"/>
        <pt x="1516" y="50" on="0"/>
        <pt x="1622" y="50" on="1"/>
        <pt x="1751" y="50" on="0"/>
        <pt x="1950" y="132" on="0"/>
        <pt x="2098" y="262" on="0"/>
        <pt x="2197" y="423" on="0"/>
        <pt x="2227" y="501" on="1"/>
        <pt x="2273" y="483" on="1"/>
        <pt x="2241" y="399" on="0"/>
        <pt x="2134" y="228" on="0"/>
        <pt x="1975" y="88" on="0"/>
        <pt x="1761" y="0" on="0"/>
        <pt x="1622" y="0" on="1"/>
        <pt x="1497" y="0" on="0"/>
        <pt x="1303" y="60" on="0"/>
        <pt x="1169" y="173" on="0"/>
        <pt x="1100" y="336" on="0"/>
        <pt x="1100" y="440" on="1"/>
        <pt x="1100" y="607" on="1"/>
        <pt x="910" y="459" on="1"/>
        <pt x="763" y="594" on="1"/>
        <pt x="696" y="505" on="0"/>
        <pt x="546" y="333" on="0"/>
        <pt x="395" y="180" on="0"/>
        <pt x="248" y="53" on="0"/>
        <pt x="185" y="10" on="1"/>
      </contour>
    </TTGlyph>
    <TTGlyph name="Aacute" xMin="59" yMin="-25" xMax="1413" yMax="1931">
      <contour>
        <pt x="566" y="1517" on="1"/>
        <pt x="483" y="1517" on="0"/>
        <pt x="367" y="1474" on="0"/>
        <pt x="295" y="1408" on="0"/>
        <pt x="262" y="1328" on="0"/>
        <pt x="262" y="1291" on="1"/>
        <pt x="262" y="1223" on="0"/>
        <pt x="309" y="1129" on="0"/>
        <pt x="379" y="1057" on="0"/>
        <pt x="460" y="995" on="0"/>
        <pt x="530" y="922" on="0"/>
        <pt x="577" y="827" on="0"/>
        <pt x="577" y="759" on="1"/>
        <pt x="577" y="684" on="0"/>
        <pt x="520" y="587" on="0"/>
        <pt x="436" y="532" on="0"/>
        <pt x="341" y="511" on="0"/>
        <pt x="303" y="511" on="1"/>
        <pt x="249" y="511" on="0"/>
        <pt x="160" y="546" on="0"/>
        <pt x="95" y="608" on="0"/>
        <pt x="59" y="689" on="0"/>
        <pt x="59" y="736" on="1"/>
        <pt x="59" y="782" on="0"/>
        <pt x="94" y="864" on="0"/>
        <pt x="156" y="926" on="0"/>
        <pt x="237" y="961" on="0"/>
        <pt x="284" y="961" on="1"/>
        <pt x="284" y="911" on="1"/>
        <pt x="248" y="911" on="0"/>
        <pt x="184" y="883" on="0"/>
        <pt x="137" y="836" on="0"/>
        <pt x="109" y="772" on="0"/>
        <pt x="109" y="736" on="1"/>
        <pt x="109" y="700" on="0"/>
        <pt x="137" y="636" on="0"/>
        <pt x="188" y="589" on="0"/>
        <pt x="259" y="561" on="0"/>
        <pt x="301" y="561" on="1"/>
        <pt x="333" y="561" on="0"/>
        <pt x="411" y="578" on="0"/>
        <pt x="480" y="625" on="0"/>
        <pt x="527" y="706" on="0"/>
        <pt x="527" y="769" on="1"/>
        <pt x="527" y="823" on="0"/>
        <pt x="480" y="902" on="0"/>
        <pt x="410" y="969" on="0"/>
        <pt x="329" y="1034" on="0"/>
        <pt x="259" y="1114" on="0"/>
        <pt x="212" y="1218" on="0"/>
        <pt x="212" y="1291" on="1"/>
        <pt x="212" y="1336" on="0"/>
        <pt x="252" y="1434" on="0"/>
        <pt x="338" y="1515" on="0"/>
        <pt x="473" y="1567" on="0"/>
        <pt x="569" y="1567" on="1"/>
        <pt x="653" y="1567" on="0"/>
        <pt x="817" y="1506" on="0"/>
        <pt x="946" y="1396" on="0"/>
        <pt x="1026" y="1243" on="0"/>
        <pt x="1026" y="1151" on="1"/>
        <pt x="1026" y="1100" on="0"/>
        <pt x="990" y="980" on="0"/>
        <pt x="927" y="847" on="0"/>
        <pt x="840" y="706" on="0"/>
        <pt x="788" y="634" on="1"/>
        <pt x="907" y="524" on="1"/>
        <pt x="1095" y="666" on="1"/>
        <pt x="1095" y="1118" on="1"/>
        <pt x="1095" y="1204" on="0"/>
        <pt x="1126" y="1366" on="0"/>
        <pt x="1198" y="1491" on="0"/>
        <pt x="1316" y="1567" on="0"/>
        <pt x="1403" y="1567" on="1"/>
        <pt x="1403" y="1518" on="1"/>
        <pt x="1330" y="1518" on="0"/>
        <pt x="1231" y="1451" on="0"/>
        <pt x="1171" y="1339" on="0"/>
        <pt x="1145" y="1195" on="0"/>
        <pt x="1145" y="1118" on="1"/>
        <pt x="1145" y="344" on="1"/>
        <pt x="1145" y="282" on="0"/>
        <pt x="1177" y="186" on="0"/>
        <pt x="1233" y="108" on="0"/>
        <pt x="1309" y="45" on="0"/>
        <pt x="1353" y="16" on="1"/>
        <pt x="1325" y="-25" on="1"/>
        <pt x="1279" y="6" on="0"/>
        <pt x="1195" y="75" on="0"/>
        <pt x="1132" y="161" on="0"/>
        <pt x="1095" y="268" on="0"/>
        <pt x="1095" y="338" on="1"/>
        <pt x="1095" y="607" on="1"/>
        <pt x="905" y="459" on="1"/>
        <pt x="758" y="594" on="1"/>
        <pt x="713" y="535" on="0"/>
        <pt x="614" y="413" on="0"/>
        <pt x="511" y="295" on="0"/>
        <pt x="405" y="184" on="0"/>
        <pt x="302" y="86" on="0"/>
        <pt x="206" y="5" on="0"/>
        <pt x="164" y="-24" on="1"/>
        <pt x="127" y="11" on="1"/>
        <pt x="217" y="79" on="0"/>
        <pt x="413" y="262" on="0"/>
        <pt x="602" y="468" on="0"/>
        <pt x="772" y="687" on="0"/>
        <pt x="901" y="895" on="0"/>
        <pt x="977" y="1081" on="0"/>
        <pt x="977" y="1151" on="1"/>
        <pt x="977" y="1223" on="0"/>
        <pt x="912" y="1355" on="0"/>
        <pt x="801" y="1457" on="0"/>
        <pt x="651" y="1517" on="0"/>
      </contour>
      <contour>
        <pt x="1119" y="1684" on="1"/>
        <pt x="1092" y="1728" on="1"/>
        <pt x="1370" y="1931" on="1"/>
        <pt x="1413" y="1872" on="1"/>
      </contour>
    </TTGlyph>
    <TTGlyph name="Acircumflex" xMin="59" yMin="-25" xMax="1403" yMax="1934">
      <contour>
        <pt x="566" y="1517" on="1"/>
        <pt x="483" y="1517" on="0"/>
        <pt x="367" y="1474" on="0"/>
        <pt x="295" y="1408" on="0"/>
        <pt x="262" y="1328" on="0"/>
        <pt x="262" y="1291" on="1"/>
        <pt x="262" y="1223" on="0"/>
        <pt x="309" y="1129" on="0"/>
        <pt x="379" y="1057" on="0"/>
        <pt x="460" y="995" on="0"/>
        <pt x="530" y="922" on="0"/>
        <pt x="577" y="827" on="0"/>
        <pt x="577" y="759" on="1"/>
        <pt x="577" y="684" on="0"/>
        <pt x="520" y="587" on="0"/>
        <pt x="436" y="532" on="0"/>
        <pt x="341" y="511" on="0"/>
        <pt x="303" y="511" on="1"/>
        <pt x="249" y="511" on="0"/>
        <pt x="160" y="546" on="0"/>
        <pt x="95" y="608" on="0"/>
        <pt x="59" y="689" on="0"/>
        <pt x="59" y="736" on="1"/>
        <pt x="59" y="782" on="0"/>
        <pt x="94" y="864" on="0"/>
        <pt x="156" y="926" on="0"/>
        <pt x="237" y="961" on="0"/>
        <pt x="284" y="961" on="1"/>
        <pt x="284" y="911" on="1"/>
        <pt x="248" y="911" on="0"/>
        <pt x="184" y="883" on="0"/>
        <pt x="137" y="836" on="0"/>
        <pt x="109" y="772" on="0"/>
        <pt x="109" y="736" on="1"/>
        <pt x="109" y="700" on="0"/>
        <pt x="137" y="636" on="0"/>
        <pt x="188" y="589" on="0"/>
        <pt x="259" y="561" on="0"/>
        <pt x="301" y="561" on="1"/>
        <pt x="333" y="561" on="0"/>
        <pt x="411" y="578" on="0"/>
        <pt x="480" y="625" on="0"/>
        <pt x="527" y="706" on="0"/>
        <pt x="527" y="769" on="1"/>
        <pt x="527" y="823" on="0"/>
        <pt x="480" y="902" on="0"/>
        <pt x="410" y="969" on="0"/>
        <pt x="329" y="1034" on="0"/>
        <pt x="259" y="1114" on="0"/>
        <pt x="212" y="1218" on="0"/>
        <pt x="212" y="1291" on="1"/>
        <pt x="212" y="1336" on="0"/>
        <pt x="252" y="1434" on="0"/>
        <pt x="338" y="1515" on="0"/>
        <pt x="473" y="1567" on="0"/>
        <pt x="569" y="1567" on="1"/>
        <pt x="653" y="1567" on="0"/>
        <pt x="817" y="1506" on="0"/>
        <pt x="946" y="1396" on="0"/>
        <pt x="1026" y="1243" on="0"/>
        <pt x="1026" y="1151" on="1"/>
        <pt x="1026" y="1100" on="0"/>
        <pt x="990" y="980" on="0"/>
        <pt x="927" y="847" on="0"/>
        <pt x="840" y="706" on="0"/>
        <pt x="788" y="634" on="1"/>
        <pt x="907" y="524" on="1"/>
        <pt x="1095" y="666" on="1"/>
        <pt x="1095" y="1118" on="1"/>
        <pt x="1095" y="1204" on="0"/>
        <pt x="1126" y="1366" on="0"/>
        <pt x="1198" y="1491" on="0"/>
        <pt x="1316" y="1567" on="0"/>
        <pt x="1403" y="1567" on="1"/>
        <pt x="1403" y="1518" on="1"/>
        <pt x="1330" y="1518" on="0"/>
        <pt x="1231" y="1451" on="0"/>
        <pt x="1171" y="1339" on="0"/>
        <pt x="1145" y="1195" on="0"/>
        <pt x="1145" y="1118" on="1"/>
        <pt x="1145" y="344" on="1"/>
        <pt x="1145" y="282" on="0"/>
        <pt x="1177" y="186" on="0"/>
        <pt x="1233" y="108" on="0"/>
        <pt x="1309" y="45" on="0"/>
        <pt x="1353" y="16" on="1"/>
        <pt x="1325" y="-25" on="1"/>
        <pt x="1279" y="6" on="0"/>
        <pt x="1195" y="75" on="0"/>
        <pt x="1132" y="161" on="0"/>
        <pt x="1095" y="268" on="0"/>
        <pt x="1095" y="338" on="1"/>
        <pt x="1095" y="607" on="1"/>
        <pt x="905" y="459" on="1"/>
        <pt x="758" y="594" on="1"/>
        <pt x="713" y="535" on="0"/>
        <pt x="614" y="413" on="0"/>
        <pt x="511" y="295" on="0"/>
        <pt x="405" y="184" on="0"/>
        <pt x="302" y="86" on="0"/>
        <pt x="206" y="5" on="0"/>
        <pt x="164" y="-24" on="1"/>
        <pt x="127" y="11" on="1"/>
        <pt x="217" y="79" on="0"/>
        <pt x="413" y="262" on="0"/>
        <pt x="602" y="468" on="0"/>
        <pt x="772" y="687" on="0"/>
        <pt x="901" y="895" on="0"/>
        <pt x="977" y="1081" on="0"/>
        <pt x="977" y="1151" on="1"/>
        <pt x="977" y="1223" on="0"/>
        <pt x="912" y="1355" on="0"/>
        <pt x="801" y="1457" on="0"/>
        <pt x="651" y="1517" on="0"/>
      </contour>
      <contour>
        <pt x="752" y="1726" on="1"/>
        <pt x="1018" y="1934" on="1"/>
        <pt x="1350" y="1727" on="1"/>
        <pt x="1324" y="1685" on="1"/>
        <pt x="1022" y="1873" on="1"/>
        <pt x="1013" y="1865" on="0"/>
        <pt x="982" y="1842" on="0"/>
        <pt x="945" y="1813" on="0"/>
        <pt x="904" y="1781" on="0"/>
        <pt x="884" y="1765" on="1"/>
        <pt x="836" y="1728" on="0"/>
        <pt x="782" y="1686" on="1"/>
      </contour>
    </TTGlyph>
    <TTGlyph name="Adieresis" xMin="59" yMin="-25" xMax="1403" yMax="1876">
      <contour>
        <pt x="566" y="1517" on="1"/>
        <pt x="483" y="1517" on="0"/>
        <pt x="367" y="1474" on="0"/>
        <pt x="295" y="1408" on="0"/>
        <pt x="262" y="1328" on="0"/>
        <pt x="262" y="1291" on="1"/>
        <pt x="262" y="1223" on="0"/>
        <pt x="309" y="1129" on="0"/>
        <pt x="379" y="1057" on="0"/>
        <pt x="460" y="995" on="0"/>
        <pt x="530" y="922" on="0"/>
        <pt x="577" y="827" on="0"/>
        <pt x="577" y="759" on="1"/>
        <pt x="577" y="684" on="0"/>
        <pt x="520" y="587" on="0"/>
        <pt x="436" y="532" on="0"/>
        <pt x="341" y="511" on="0"/>
        <pt x="303" y="511" on="1"/>
        <pt x="249" y="511" on="0"/>
        <pt x="160" y="546" on="0"/>
        <pt x="95" y="608" on="0"/>
        <pt x="59" y="689" on="0"/>
        <pt x="59" y="736" on="1"/>
        <pt x="59" y="782" on="0"/>
        <pt x="94" y="864" on="0"/>
        <pt x="156" y="926" on="0"/>
        <pt x="237" y="961" on="0"/>
        <pt x="284" y="961" on="1"/>
        <pt x="284" y="911" on="1"/>
        <pt x="248" y="911" on="0"/>
        <pt x="184" y="883" on="0"/>
        <pt x="137" y="836" on="0"/>
        <pt x="109" y="772" on="0"/>
        <pt x="109" y="736" on="1"/>
        <pt x="109" y="700" on="0"/>
        <pt x="137" y="636" on="0"/>
        <pt x="188" y="589" on="0"/>
        <pt x="259" y="561" on="0"/>
        <pt x="301" y="561" on="1"/>
        <pt x="333" y="561" on="0"/>
        <pt x="411" y="578" on="0"/>
        <pt x="480" y="625" on="0"/>
        <pt x="527" y="706" on="0"/>
        <pt x="527" y="769" on="1"/>
        <pt x="527" y="823" on="0"/>
        <pt x="480" y="902" on="0"/>
        <pt x="410" y="969" on="0"/>
        <pt x="329" y="1034" on="0"/>
        <pt x="259" y="1114" on="0"/>
        <pt x="212" y="1218" on="0"/>
        <pt x="212" y="1291" on="1"/>
        <pt x="212" y="1336" on="0"/>
        <pt x="252" y="1434" on="0"/>
        <pt x="338" y="1515" on="0"/>
        <pt x="473" y="1567" on="0"/>
        <pt x="569" y="1567" on="1"/>
        <pt x="653" y="1567" on="0"/>
        <pt x="817" y="1506" on="0"/>
        <pt x="946" y="1396" on="0"/>
        <pt x="1026" y="1243" on="0"/>
        <pt x="1026" y="1151" on="1"/>
        <pt x="1026" y="1100" on="0"/>
        <pt x="990" y="980" on="0"/>
        <pt x="927" y="847" on="0"/>
        <pt x="840" y="706" on="0"/>
        <pt x="788" y="634" on="1"/>
        <pt x="907" y="524" on="1"/>
        <pt x="1095" y="666" on="1"/>
        <pt x="1095" y="1118" on="1"/>
        <pt x="1095" y="1204" on="0"/>
        <pt x="1126" y="1366" on="0"/>
        <pt x="1198" y="1491" on="0"/>
        <pt x="1316" y="1567" on="0"/>
        <pt x="1403" y="1567" on="1"/>
        <pt x="1403" y="1518" on="1"/>
        <pt x="1330" y="1518" on="0"/>
        <pt x="1231" y="1451" on="0"/>
        <pt x="1171" y="1339" on="0"/>
        <pt x="1145" y="1195" on="0"/>
        <pt x="1145" y="1118" on="1"/>
        <pt x="1145" y="344" on="1"/>
        <pt x="1145" y="282" on="0"/>
        <pt x="1177" y="186" on="0"/>
        <pt x="1233" y="108" on="0"/>
        <pt x="1309" y="45" on="0"/>
        <pt x="1353" y="16" on="1"/>
        <pt x="1325" y="-25" on="1"/>
        <pt x="1279" y="6" on="0"/>
        <pt x="1195" y="75" on="0"/>
        <pt x="1132" y="161" on="0"/>
        <pt x="1095" y="268" on="0"/>
        <pt x="1095" y="338" on="1"/>
        <pt x="1095" y="607" on="1"/>
        <pt x="905" y="459" on="1"/>
        <pt x="758" y="594" on="1"/>
        <pt x="713" y="535" on="0"/>
        <pt x="614" y="413" on="0"/>
        <pt x="511" y="295" on="0"/>
        <pt x="405" y="184" on="0"/>
        <pt x="302" y="86" on="0"/>
        <pt x="206" y="5" on="0"/>
        <pt x="164" y="-24" on="1"/>
        <pt x="127" y="11" on="1"/>
        <pt x="217" y="79" on="0"/>
        <pt x="413" y="262" on="0"/>
        <pt x="602" y="468" on="0"/>
        <pt x="772" y="687" on="0"/>
        <pt x="901" y="895" on="0"/>
        <pt x="977" y="1081" on="0"/>
        <pt x="977" y="1151" on="1"/>
        <pt x="977" y="1223" on="0"/>
        <pt x="912" y="1355" on="0"/>
        <pt x="801" y="1457" on="0"/>
        <pt x="651" y="1517" on="0"/>
      </contour>
      <contour>
        <pt x="1227" y="1679" on="1"/>
        <pt x="1180" y="1694" on="1"/>
        <pt x="1256" y="1876" on="1"/>
        <pt x="1317" y="1851" on="1"/>
      </contour>
      <contour>
        <pt x="948" y="1679" on="1"/>
        <pt x="901" y="1694" on="1"/>
        <pt x="977" y="1876" on="1"/>
        <pt x="1038" y="1851" on="1"/>
      </contour>
    </TTGlyph>
    <TTGlyph name="Agrave" xMin="59" yMin="-25" xMax="1403" yMax="1931">
      <contour>
        <pt x="566" y="1517" on="1"/>
        <pt x="483" y="1517" on="0"/>
        <pt x="367" y="1474" on="0"/>
        <pt x="295" y="1408" on="0"/>
        <pt x="262" y="1328" on="0"/>
        <pt x="262" y="1291" on="1"/>
        <pt x="262" y="1223" on="0"/>
        <pt x="309" y="1129" on="0"/>
        <pt x="379" y="1057" on="0"/>
        <pt x="460" y="995" on="0"/>
        <pt x="530" y="922" on="0"/>
        <pt x="577" y="827" on="0"/>
        <pt x="577" y="759" on="1"/>
        <pt x="577" y="684" on="0"/>
        <pt x="520" y="587" on="0"/>
        <pt x="436" y="532" on="0"/>
        <pt x="341" y="511" on="0"/>
        <pt x="303" y="511" on="1"/>
        <pt x="249" y="511" on="0"/>
        <pt x="160" y="546" on="0"/>
        <pt x="95" y="608" on="0"/>
        <pt x="59" y="689" on="0"/>
        <pt x="59" y="736" on="1"/>
        <pt x="59" y="782" on="0"/>
        <pt x="94" y="864" on="0"/>
        <pt x="156" y="926" on="0"/>
        <pt x="237" y="961" on="0"/>
        <pt x="284" y="961" on="1"/>
        <pt x="284" y="911" on="1"/>
        <pt x="248" y="911" on="0"/>
        <pt x="184" y="883" on="0"/>
        <pt x="137" y="836" on="0"/>
        <pt x="109" y="772" on="0"/>
        <pt x="109" y="736" on="1"/>
        <pt x="109" y="700" on="0"/>
        <pt x="137" y="636" on="0"/>
        <pt x="188" y="589" on="0"/>
        <pt x="259" y="561" on="0"/>
        <pt x="301" y="561" on="1"/>
        <pt x="333" y="561" on="0"/>
        <pt x="411" y="578" on="0"/>
        <pt x="480" y="625" on="0"/>
        <pt x="527" y="706" on="0"/>
        <pt x="527" y="769" on="1"/>
        <pt x="527" y="823" on="0"/>
        <pt x="480" y="902" on="0"/>
        <pt x="410" y="969" on="0"/>
        <pt x="329" y="1034" on="0"/>
        <pt x="259" y="1114" on="0"/>
        <pt x="212" y="1218" on="0"/>
        <pt x="212" y="1291" on="1"/>
        <pt x="212" y="1336" on="0"/>
        <pt x="252" y="1434" on="0"/>
        <pt x="338" y="1515" on="0"/>
        <pt x="473" y="1567" on="0"/>
        <pt x="569" y="1567" on="1"/>
        <pt x="653" y="1567" on="0"/>
        <pt x="817" y="1506" on="0"/>
        <pt x="946" y="1396" on="0"/>
        <pt x="1026" y="1243" on="0"/>
        <pt x="1026" y="1151" on="1"/>
        <pt x="1026" y="1100" on="0"/>
        <pt x="990" y="980" on="0"/>
        <pt x="927" y="847" on="0"/>
        <pt x="840" y="706" on="0"/>
        <pt x="788" y="634" on="1"/>
        <pt x="907" y="524" on="1"/>
        <pt x="1095" y="666" on="1"/>
        <pt x="1095" y="1118" on="1"/>
        <pt x="1095" y="1204" on="0"/>
        <pt x="1126" y="1366" on="0"/>
        <pt x="1198" y="1491" on="0"/>
        <pt x="1316" y="1567" on="0"/>
        <pt x="1403" y="1567" on="1"/>
        <pt x="1403" y="1518" on="1"/>
        <pt x="1330" y="1518" on="0"/>
        <pt x="1231" y="1451" on="0"/>
        <pt x="1171" y="1339" on="0"/>
        <pt x="1145" y="1195" on="0"/>
        <pt x="1145" y="1118" on="1"/>
        <pt x="1145" y="344" on="1"/>
        <pt x="1145" y="282" on="0"/>
        <pt x="1177" y="186" on="0"/>
        <pt x="1233" y="108" on="0"/>
        <pt x="1309" y="45" on="0"/>
        <pt x="1353" y="16" on="1"/>
        <pt x="1325" y="-25" on="1"/>
        <pt x="1279" y="6" on="0"/>
        <pt x="1195" y="75" on="0"/>
        <pt x="1132" y="161" on="0"/>
        <pt x="1095" y="268" on="0"/>
        <pt x="1095" y="338" on="1"/>
        <pt x="1095" y="607" on="1"/>
        <pt x="905" y="459" on="1"/>
        <pt x="758" y="594" on="1"/>
        <pt x="713" y="535" on="0"/>
        <pt x="614" y="413" on="0"/>
        <pt x="511" y="295" on="0"/>
        <pt x="405" y="184" on="0"/>
        <pt x="302" y="86" on="0"/>
        <pt x="206" y="5" on="0"/>
        <pt x="164" y="-24" on="1"/>
        <pt x="127" y="11" on="1"/>
        <pt x="217" y="79" on="0"/>
        <pt x="413" y="262" on="0"/>
        <pt x="602" y="468" on="0"/>
        <pt x="772" y="687" on="0"/>
        <pt x="901" y="895" on="0"/>
        <pt x="977" y="1081" on="0"/>
        <pt x="977" y="1151" on="1"/>
        <pt x="977" y="1223" on="0"/>
        <pt x="912" y="1355" on="0"/>
        <pt x="801" y="1457" on="0"/>
        <pt x="651" y="1517" on="0"/>
      </contour>
      <contour>
        <pt x="753" y="1872" on="1"/>
        <pt x="796" y="1931" on="1"/>
        <pt x="1074" y="1728" on="1"/>
        <pt x="1047" y="1684" on="1"/>
      </contour>
    </TTGlyph>
    <TTGlyph name="Aring" xMin="59" yMin="-25" xMax="1403" yMax="1931">
      <contour>
        <pt x="566" y="1517" on="1"/>
        <pt x="483" y="1517" on="0"/>
        <pt x="367" y="1474" on="0"/>
        <pt x="295" y="1408" on="0"/>
        <pt x="262" y="1328" on="0"/>
        <pt x="262" y="1291" on="1"/>
        <pt x="262" y="1223" on="0"/>
        <pt x="309" y="1129" on="0"/>
        <pt x="379" y="1057" on="0"/>
        <pt x="460" y="995" on="0"/>
        <pt x="530" y="922" on="0"/>
        <pt x="577" y="827" on="0"/>
        <pt x="577" y="759" on="1"/>
        <pt x="577" y="684" on="0"/>
        <pt x="520" y="587" on="0"/>
        <pt x="436" y="532" on="0"/>
        <pt x="341" y="511" on="0"/>
        <pt x="303" y="511" on="1"/>
        <pt x="249" y="511" on="0"/>
        <pt x="160" y="546" on="0"/>
        <pt x="95" y="608" on="0"/>
        <pt x="59" y="689" on="0"/>
        <pt x="59" y="736" on="1"/>
        <pt x="59" y="782" on="0"/>
        <pt x="94" y="864" on="0"/>
        <pt x="156" y="926" on="0"/>
        <pt x="237" y="961" on="0"/>
        <pt x="284" y="961" on="1"/>
        <pt x="284" y="911" on="1"/>
        <pt x="248" y="911" on="0"/>
        <pt x="184" y="883" on="0"/>
        <pt x="137" y="836" on="0"/>
        <pt x="109" y="772" on="0"/>
        <pt x="109" y="736" on="1"/>
        <pt x="109" y="700" on="0"/>
        <pt x="137" y="636" on="0"/>
        <pt x="188" y="589" on="0"/>
        <pt x="259" y="561" on="0"/>
        <pt x="301" y="561" on="1"/>
        <pt x="333" y="561" on="0"/>
        <pt x="411" y="578" on="0"/>
        <pt x="480" y="625" on="0"/>
        <pt x="527" y="706" on="0"/>
        <pt x="527" y="769" on="1"/>
        <pt x="527" y="823" on="0"/>
        <pt x="480" y="902" on="0"/>
        <pt x="410" y="969" on="0"/>
        <pt x="329" y="1034" on="0"/>
        <pt x="259" y="1114" on="0"/>
        <pt x="212" y="1218" on="0"/>
        <pt x="212" y="1291" on="1"/>
        <pt x="212" y="1336" on="0"/>
        <pt x="252" y="1434" on="0"/>
        <pt x="338" y="1515" on="0"/>
        <pt x="473" y="1567" on="0"/>
        <pt x="569" y="1567" on="1"/>
        <pt x="653" y="1567" on="0"/>
        <pt x="817" y="1506" on="0"/>
        <pt x="946" y="1396" on="0"/>
        <pt x="1026" y="1243" on="0"/>
        <pt x="1026" y="1151" on="1"/>
        <pt x="1026" y="1100" on="0"/>
        <pt x="990" y="980" on="0"/>
        <pt x="927" y="847" on="0"/>
        <pt x="840" y="706" on="0"/>
        <pt x="788" y="634" on="1"/>
        <pt x="907" y="524" on="1"/>
        <pt x="1095" y="666" on="1"/>
        <pt x="1095" y="1118" on="1"/>
        <pt x="1095" y="1204" on="0"/>
        <pt x="1126" y="1366" on="0"/>
        <pt x="1198" y="1491" on="0"/>
        <pt x="1316" y="1567" on="0"/>
        <pt x="1403" y="1567" on="1"/>
        <pt x="1403" y="1518" on="1"/>
        <pt x="1330" y="1518" on="0"/>
        <pt x="1231" y="1451" on="0"/>
        <pt x="1171" y="1339" on="0"/>
        <pt x="1145" y="1195" on="0"/>
        <pt x="1145" y="1118" on="1"/>
        <pt x="1145" y="344" on="1"/>
        <pt x="1145" y="282" on="0"/>
        <pt x="1177" y="186" on="0"/>
        <pt x="1233" y="108" on="0"/>
        <pt x="1309" y="45" on="0"/>
        <pt x="1353" y="16" on="1"/>
        <pt x="1325" y="-25" on="1"/>
        <pt x="1279" y="6" on="0"/>
        <pt x="1195" y="75" on="0"/>
        <pt x="1132" y="161" on="0"/>
        <pt x="1095" y="268" on="0"/>
        <pt x="1095" y="338" on="1"/>
        <pt x="1095" y="607" on="1"/>
        <pt x="905" y="459" on="1"/>
        <pt x="758" y="594" on="1"/>
        <pt x="713" y="535" on="0"/>
        <pt x="614" y="413" on="0"/>
        <pt x="511" y="295" on="0"/>
        <pt x="405" y="184" on="0"/>
        <pt x="302" y="86" on="0"/>
        <pt x="206" y="5" on="0"/>
        <pt x="164" y="-24" on="1"/>
        <pt x="127" y="11" on="1"/>
        <pt x="217" y="79" on="0"/>
        <pt x="413" y="262" on="0"/>
        <pt x="602" y="468" on="0"/>
        <pt x="772" y="687" on="0"/>
        <pt x="901" y="895" on="0"/>
        <pt x="977" y="1081" on="0"/>
        <pt x="977" y="1151" on="1"/>
        <pt x="977" y="1223" on="0"/>
        <pt x="912" y="1355" on="0"/>
        <pt x="801" y="1457" on="0"/>
        <pt x="651" y="1517" on="0"/>
      </contour>
      <contour>
        <pt x="929" y="1796" on="1"/>
        <pt x="929" y="1824" on="0"/>
        <pt x="950" y="1873" on="0"/>
        <pt x="987" y="1910" on="0"/>
        <pt x="1036" y="1931" on="0"/>
        <pt x="1064" y="1931" on="1"/>
        <pt x="1092" y="1931" on="0"/>
        <pt x="1141" y="1910" on="0"/>
        <pt x="1178" y="1873" on="0"/>
        <pt x="1199" y="1824" on="0"/>
        <pt x="1199" y="1796" on="1"/>
        <pt x="1199" y="1768" on="0"/>
        <pt x="1178" y="1719" on="0"/>
        <pt x="1141" y="1682" on="0"/>
        <pt x="1092" y="1661" on="0"/>
        <pt x="1064" y="1661" on="1"/>
        <pt x="1036" y="1661" on="0"/>
        <pt x="987" y="1682" on="0"/>
        <pt x="950" y="1719" on="0"/>
        <pt x="929" y="1768" on="0"/>
      </contour>
      <contour>
        <pt x="979" y="1796" on="1"/>
        <pt x="979" y="1761" on="0"/>
        <pt x="1029" y="1711" on="0"/>
        <pt x="1064" y="1711" on="1"/>
        <pt x="1099" y="1711" on="0"/>
        <pt x="1149" y="1761" on="0"/>
        <pt x="1149" y="1796" on="1"/>
        <pt x="1149" y="1831" on="0"/>
        <pt x="1099" y="1881" on="0"/>
        <pt x="1064" y="1881" on="1"/>
        <pt x="1029" y="1881" on="0"/>
        <pt x="979" y="1831" on="0"/>
      </contour>
    </TTGlyph>
    <TTGlyph name="Atilde" xMin="59" yMin="-25" xMax="1413" yMax="1861">
      <contour>
        <pt x="566" y="1517" on="1"/>
        <pt x="483" y="1517" on="0"/>
        <pt x="367" y="1474" on="0"/>
        <pt x="295" y="1408" on="0"/>
        <pt x="262" y="1328" on="0"/>
        <pt x="262" y="1291" on="1"/>
        <pt x="262" y="1223" on="0"/>
        <pt x="309" y="1129" on="0"/>
        <pt x="379" y="1057" on="0"/>
        <pt x="460" y="995" on="0"/>
        <pt x="530" y="922" on="0"/>
        <pt x="577" y="827" on="0"/>
        <pt x="577" y="759" on="1"/>
        <pt x="577" y="684" on="0"/>
        <pt x="520" y="587" on="0"/>
        <pt x="436" y="532" on="0"/>
        <pt x="341" y="511" on="0"/>
        <pt x="303" y="511" on="1"/>
        <pt x="249" y="511" on="0"/>
        <pt x="160" y="546" on="0"/>
        <pt x="95" y="608" on="0"/>
        <pt x="59" y="689" on="0"/>
        <pt x="59" y="736" on="1"/>
        <pt x="59" y="782" on="0"/>
        <pt x="94" y="864" on="0"/>
        <pt x="156" y="926" on="0"/>
        <pt x="237" y="961" on="0"/>
        <pt x="284" y="961" on="1"/>
        <pt x="284" y="911" on="1"/>
        <pt x="248" y="911" on="0"/>
        <pt x="184" y="883" on="0"/>
        <pt x="137" y="836" on="0"/>
        <pt x="109" y="772" on="0"/>
        <pt x="109" y="736" on="1"/>
        <pt x="109" y="700" on="0"/>
        <pt x="137" y="636" on="0"/>
        <pt x="188" y="589" on="0"/>
        <pt x="259" y="561" on="0"/>
        <pt x="301" y="561" on="1"/>
        <pt x="333" y="561" on="0"/>
        <pt x="411" y="578" on="0"/>
        <pt x="480" y="625" on="0"/>
        <pt x="527" y="706" on="0"/>
        <pt x="527" y="769" on="1"/>
        <pt x="527" y="823" on="0"/>
        <pt x="480" y="902" on="0"/>
        <pt x="410" y="969" on="0"/>
        <pt x="329" y="1034" on="0"/>
        <pt x="259" y="1114" on="0"/>
        <pt x="212" y="1218" on="0"/>
        <pt x="212" y="1291" on="1"/>
        <pt x="212" y="1336" on="0"/>
        <pt x="252" y="1434" on="0"/>
        <pt x="338" y="1515" on="0"/>
        <pt x="473" y="1567" on="0"/>
        <pt x="569" y="1567" on="1"/>
        <pt x="653" y="1567" on="0"/>
        <pt x="817" y="1506" on="0"/>
        <pt x="946" y="1396" on="0"/>
        <pt x="1026" y="1243" on="0"/>
        <pt x="1026" y="1151" on="1"/>
        <pt x="1026" y="1100" on="0"/>
        <pt x="990" y="980" on="0"/>
        <pt x="927" y="847" on="0"/>
        <pt x="840" y="706" on="0"/>
        <pt x="788" y="634" on="1"/>
        <pt x="907" y="524" on="1"/>
        <pt x="1095" y="666" on="1"/>
        <pt x="1095" y="1118" on="1"/>
        <pt x="1095" y="1204" on="0"/>
        <pt x="1126" y="1366" on="0"/>
        <pt x="1198" y="1491" on="0"/>
        <pt x="1316" y="1567" on="0"/>
        <pt x="1403" y="1567" on="1"/>
        <pt x="1403" y="1518" on="1"/>
        <pt x="1330" y="1518" on="0"/>
        <pt x="1231" y="1451" on="0"/>
        <pt x="1171" y="1339" on="0"/>
        <pt x="1145" y="1195" on="0"/>
        <pt x="1145" y="1118" on="1"/>
        <pt x="1145" y="344" on="1"/>
        <pt x="1145" y="282" on="0"/>
        <pt x="1177" y="186" on="0"/>
        <pt x="1233" y="108" on="0"/>
        <pt x="1309" y="45" on="0"/>
        <pt x="1353" y="16" on="1"/>
        <pt x="1325" y="-25" on="1"/>
        <pt x="1279" y="6" on="0"/>
        <pt x="1195" y="75" on="0"/>
        <pt x="1132" y="161" on="0"/>
        <pt x="1095" y="268" on="0"/>
        <pt x="1095" y="338" on="1"/>
        <pt x="1095" y="607" on="1"/>
        <pt x="905" y="459" on="1"/>
        <pt x="758" y="594" on="1"/>
        <pt x="713" y="535" on="0"/>
        <pt x="614" y="413" on="0"/>
        <pt x="511" y="295" on="0"/>
        <pt x="405" y="184" on="0"/>
        <pt x="302" y="86" on="0"/>
        <pt x="206" y="5" on="0"/>
        <pt x="164" y="-24" on="1"/>
        <pt x="127" y="11" on="1"/>
        <pt x="217" y="79" on="0"/>
        <pt x="413" y="262" on="0"/>
        <pt x="602" y="468" on="0"/>
        <pt x="772" y="687" on="0"/>
        <pt x="901" y="895" on="0"/>
        <pt x="977" y="1081" on="0"/>
        <pt x="977" y="1151" on="1"/>
        <pt x="977" y="1223" on="0"/>
        <pt x="912" y="1355" on="0"/>
        <pt x="801" y="1457" on="0"/>
        <pt x="651" y="1517" on="0"/>
      </contour>
      <contour>
        <pt x="1413" y="1833" on="1"/>
        <pt x="1396" y="1801" on="0"/>
        <pt x="1347" y="1742" on="0"/>
        <pt x="1290" y="1696" on="0"/>
        <pt x="1230" y="1668" on="0"/>
        <pt x="1202" y="1668" on="1"/>
        <pt x="1149" y="1668" on="0"/>
        <pt x="1066" y="1719" on="0"/>
        <pt x="1029" y="1749" on="1"/>
        <pt x="1000" y="1773" on="0"/>
        <pt x="942" y="1811" on="0"/>
        <pt x="909" y="1811" on="1"/>
        <pt x="857" y="1811" on="0"/>
        <pt x="763" y="1737" on="0"/>
        <pt x="733" y="1680" on="1"/>
        <pt x="689" y="1704" on="1"/>
        <pt x="707" y="1738" on="0"/>
        <pt x="755" y="1796" on="0"/>
        <pt x="812" y="1838" on="0"/>
        <pt x="876" y="1861" on="0"/>
        <pt x="909" y="1861" on="1"/>
        <pt x="953" y="1861" on="0"/>
        <pt x="1026" y="1815" on="0"/>
        <pt x="1061" y="1787" on="1"/>
        <pt x="1093" y="1761" on="0"/>
        <pt x="1162" y="1718" on="0"/>
        <pt x="1202" y="1718" on="1"/>
        <pt x="1223" y="1718" on="0"/>
        <pt x="1270" y="1742" on="0"/>
        <pt x="1315" y="1781" on="0"/>
        <pt x="1355" y="1831" on="0"/>
        <pt x="1369" y="1857" on="1"/>
      </contour>
    </TTGlyph>
    <TTGlyph name="B" xMin="73" yMin="0" xMax="1706" yMax="1567">
      <contour>
        <pt x="541" y="1517" on="1"/>
        <pt x="474" y="1517" on="0"/>
        <pt x="374" y="1474" on="0"/>
        <pt x="308" y="1408" on="0"/>
        <pt x="276" y="1328" on="0"/>
        <pt x="276" y="1291" on="1"/>
        <pt x="276" y="1223" on="0"/>
        <pt x="323" y="1129" on="0"/>
        <pt x="393" y="1057" on="0"/>
        <pt x="474" y="995" on="0"/>
        <pt x="544" y="922" on="0"/>
        <pt x="591" y="827" on="0"/>
        <pt x="591" y="759" on="1"/>
        <pt x="591" y="684" on="0"/>
        <pt x="534" y="587" on="0"/>
        <pt x="450" y="532" on="0"/>
        <pt x="355" y="511" on="0"/>
        <pt x="317" y="511" on="1"/>
        <pt x="263" y="511" on="0"/>
        <pt x="174" y="546" on="0"/>
        <pt x="109" y="608" on="0"/>
        <pt x="73" y="689" on="0"/>
        <pt x="73" y="736" on="1"/>
        <pt x="73" y="782" on="0"/>
        <pt x="108" y="864" on="0"/>
        <pt x="170" y="926" on="0"/>
        <pt x="251" y="961" on="0"/>
        <pt x="298" y="961" on="1"/>
        <pt x="298" y="911" on="1"/>
        <pt x="262" y="911" on="0"/>
        <pt x="198" y="883" on="0"/>
        <pt x="151" y="836" on="0"/>
        <pt x="123" y="772" on="0"/>
        <pt x="123" y="736" on="1"/>
        <pt x="123" y="700" on="0"/>
        <pt x="151" y="636" on="0"/>
        <pt x="202" y="589" on="0"/>
        <pt x="273" y="561" on="0"/>
        <pt x="315" y="561" on="1"/>
        <pt x="347" y="561" on="0"/>
        <pt x="425" y="578" on="0"/>
        <pt x="494" y="625" on="0"/>
        <pt x="541" y="706" on="0"/>
        <pt x="541" y="769" on="1"/>
        <pt x="541" y="823" on="0"/>
        <pt x="494" y="902" on="0"/>
        <pt x="424" y="969" on="0"/>
        <pt x="343" y="1034" on="0"/>
        <pt x="273" y="1114" on="0"/>
        <pt x="226" y="1218" on="0"/>
        <pt x="226" y="1291" on="1"/>
        <pt x="226" y="1336" on="0"/>
        <pt x="265" y="1434" on="0"/>
        <pt x="343" y="1515" on="0"/>
        <pt x="461" y="1567" on="0"/>
        <pt x="541" y="1567" on="1"/>
        <pt x="604" y="1567" on="0"/>
        <pt x="717" y="1517" on="0"/>
        <pt x="812" y="1432" on="0"/>
        <pt x="886" y="1317" on="0"/>
        <pt x="910" y="1252" on="1"/>
        <pt x="920" y="1315" on="0"/>
        <pt x="957" y="1429" on="0"/>
        <pt x="1018" y="1516" on="0"/>
        <pt x="1107" y="1567" on="0"/>
        <pt x="1169" y="1567" on="1"/>
        <pt x="1211" y="1567" on="0"/>
        <pt x="1271" y="1532" on="0"/>
        <pt x="1318" y="1476" on="0"/>
        <pt x="1354" y="1403" on="0"/>
        <pt x="1372" y="1366" on="1"/>
        <pt x="1387" y="1334" on="0"/>
        <pt x="1418" y="1273" on="0"/>
        <pt x="1454" y="1225" on="0"/>
        <pt x="1499" y="1196" on="0"/>
        <pt x="1528" y="1196" on="1"/>
        <pt x="1556" y="1196" on="0"/>
        <pt x="1598" y="1216" on="0"/>
        <pt x="1630" y="1250" on="0"/>
        <pt x="1651" y="1296" on="0"/>
        <pt x="1658" y="1322" on="1"/>
        <pt x="1706" y="1310" on="1"/>
        <pt x="1692" y="1256" on="0"/>
        <pt x="1632" y="1175" on="0"/>
        <pt x="1584" y="1153" on="1"/>
        <pt x="1303" y="1024" on="1"/>
        <pt x="1346" y="994" on="0"/>
        <pt x="1457" y="897" on="0"/>
        <pt x="1557" y="764" on="0"/>
        <pt x="1626" y="593" on="0"/>
        <pt x="1626" y="490" on="1"/>
        <pt x="1626" y="396" on="0"/>
        <pt x="1561" y="220" on="0"/>
        <pt x="1434" y="83" on="0"/>
        <pt x="1246" y="0" on="0"/>
        <pt x="1123" y="0" on="1"/>
        <pt x="1043" y="0" on="0"/>
        <pt x="922" y="40" on="0"/>
        <pt x="827" y="103" on="0"/>
        <pt x="754" y="182" on="0"/>
        <pt x="722" y="221" on="1"/>
        <pt x="694" y="255" on="0"/>
        <pt x="634" y="322" on="0"/>
        <pt x="563" y="376" on="0"/>
        <pt x="480" y="409" on="0"/>
        <pt x="430" y="409" on="1"/>
        <pt x="386" y="409" on="0"/>
        <pt x="304" y="380" on="0"/>
        <pt x="241" y="323" on="0"/>
        <pt x="204" y="238" on="0"/>
        <pt x="204" y="181" on="1"/>
        <pt x="204" y="120" on="0"/>
        <pt x="267" y="50" on="0"/>
        <pt x="312" y="50" on="1"/>
        <pt x="334" y="50" on="0"/>
        <pt x="374" y="67" on="0"/>
        <pt x="404" y="96" on="0"/>
        <pt x="421" y="135" on="0"/>
        <pt x="421" y="158" on="1"/>
        <pt x="471" y="158" on="1"/>
        <pt x="471" y="125" on="0"/>
        <pt x="446" y="67" on="0"/>
        <pt x="403" y="25" on="0"/>
        <pt x="345" y="0" on="0"/>
        <pt x="312" y="0" on="1"/>
        <pt x="279" y="0" on="0"/>
        <pt x="221" y="25" on="0"/>
        <pt x="179" y="71" on="0"/>
        <pt x="154" y="139" on="0"/>
        <pt x="154" y="181" on="1"/>
        <pt x="154" y="251" on="0"/>
        <pt x="200" y="355" on="0"/>
        <pt x="276" y="424" on="0"/>
        <pt x="376" y="459" on="0"/>
        <pt x="430" y="459" on="1"/>
        <pt x="468" y="459" on="0"/>
        <pt x="532" y="445" on="0"/>
        <pt x="561" y="432" on="1"/>
        <pt x="625" y="497" on="0"/>
        <pt x="746" y="628" on="0"/>
        <pt x="840" y="775" on="0"/>
        <pt x="897" y="947" on="0"/>
        <pt x="897" y="1052" on="1"/>
        <pt x="897" y="1136" on="0"/>
        <pt x="843" y="1302" on="0"/>
        <pt x="747" y="1435" on="0"/>
        <pt x="617" y="1517" on="0"/>
      </contour>
      <contour>
        <pt x="917" y="846" on="1"/>
        <pt x="896" y="779" on="0"/>
        <pt x="830" y="662" on="0"/>
        <pt x="749" y="555" on="0"/>
        <pt x="656" y="455" on="0"/>
        <pt x="607" y="406" on="1"/>
        <pt x="652" y="377" on="0"/>
        <pt x="725" y="296" on="0"/>
        <pt x="760" y="253" on="1"/>
        <pt x="790" y="215" on="0"/>
        <pt x="856" y="143" on="0"/>
        <pt x="941" y="85" on="0"/>
        <pt x="1052" y="50" on="0"/>
        <pt x="1129" y="50" on="1"/>
        <pt x="1237" y="50" on="0"/>
        <pt x="1404" y="124" on="0"/>
        <pt x="1518" y="247" on="0"/>
        <pt x="1576" y="406" on="0"/>
        <pt x="1576" y="490" on="1"/>
        <pt x="1576" y="558" on="0"/>
        <pt x="1541" y="677" on="0"/>
        <pt x="1485" y="780" on="0"/>
        <pt x="1414" y="865" on="0"/>
        <pt x="1341" y="932" on="0"/>
        <pt x="1274" y="983" on="0"/>
        <pt x="1249" y="999" on="1"/>
      </contour>
      <contour>
        <pt x="947" y="1052" on="1"/>
        <pt x="947" y="977" on="0"/>
        <pt x="933" y="909" on="1"/>
        <pt x="1471" y="1156" on="1"/>
        <pt x="1444" y="1166" on="0"/>
        <pt x="1403" y="1206" on="0"/>
        <pt x="1369" y="1257" on="0"/>
        <pt x="1340" y="1316" on="0"/>
        <pt x="1326" y="1346" on="1"/>
        <pt x="1311" y="1378" on="0"/>
        <pt x="1280" y="1439" on="0"/>
        <pt x="1244" y="1487" on="0"/>
        <pt x="1199" y="1517" on="0"/>
        <pt x="1169" y="1517" on="1"/>
        <pt x="1122" y="1517" on="0"/>
        <pt x="1052" y="1476" on="0"/>
        <pt x="1003" y="1407" on="0"/>
        <pt x="971" y="1314" on="0"/>
        <pt x="954" y="1211" on="0"/>
        <pt x="947" y="1103" on="0"/>
      </contour>
    </TTGlyph>
    <TTGlyph name="C" xMin="90" yMin="-28" xMax="1434" yMax="1559">
      <contour>
        <pt x="923" y="1484" on="1"/>
        <pt x="905" y="1490" on="0"/>
        <pt x="856" y="1500" on="0"/>
        <pt x="804" y="1506" on="0"/>
        <pt x="753" y="1509" on="0"/>
        <pt x="733" y="1509" on="1"/>
        <pt x="616" y="1509" on="0"/>
        <pt x="401" y="1405" on="0"/>
        <pt x="237" y="1211" on="0"/>
        <pt x="140" y="932" on="0"/>
        <pt x="140" y="755" on="1"/>
        <pt x="140" y="659" on="0"/>
        <pt x="177" y="477" on="0"/>
        <pt x="251" y="314" on="0"/>
        <pt x="360" y="177" on="0"/>
        <pt x="503" y="78" on="0"/>
        <pt x="680" y="22" on="0"/>
        <pt x="784" y="22" on="1"/>
        <pt x="869" y="22" on="0"/>
        <pt x="1016" y="64" on="0"/>
        <pt x="1139" y="133" on="0"/>
        <pt x="1239" y="221" on="0"/>
        <pt x="1315" y="313" on="0"/>
        <pt x="1366" y="401" on="0"/>
        <pt x="1380" y="436" on="1"/>
        <pt x="1426" y="418" on="1"/>
        <pt x="1411" y="380" on="0"/>
        <pt x="1356" y="285" on="0"/>
        <pt x="1276" y="186" on="0"/>
        <pt x="1170" y="91" on="0"/>
        <pt x="1037" y="17" on="0"/>
        <pt x="877" y="-28" on="0"/>
        <pt x="784" y="-28" on="1"/>
        <pt x="670" y="-28" on="0"/>
        <pt x="479" y="31" on="0"/>
        <pt x="324" y="136" on="0"/>
        <pt x="208" y="282" on="0"/>
        <pt x="129" y="456" on="0"/>
        <pt x="90" y="653" on="0"/>
        <pt x="90" y="756" on="1"/>
        <pt x="90" y="945" on="0"/>
        <pt x="193" y="1243" on="0"/>
        <pt x="368" y="1450" on="0"/>
        <pt x="602" y="1559" on="0"/>
        <pt x="733" y="1559" on="1"/>
        <pt x="759" y="1559" on="0"/>
        <pt x="830" y="1554" on="0"/>
        <pt x="902" y="1541" on="0"/>
        <pt x="966" y="1520" on="0"/>
        <pt x="985" y="1505" on="1"/>
        <pt x="994" y="1470" on="0"/>
        <pt x="1025" y="1394" on="0"/>
        <pt x="1073" y="1331" on="0"/>
        <pt x="1144" y="1290" on="0"/>
        <pt x="1194" y="1290" on="1"/>
        <pt x="1225" y="1290" on="0"/>
        <pt x="1285" y="1309" on="0"/>
        <pt x="1336" y="1352" on="0"/>
        <pt x="1375" y="1422" on="0"/>
        <pt x="1386" y="1473" on="1"/>
        <pt x="1434" y="1463" on="1"/>
        <pt x="1421" y="1400" on="0"/>
        <pt x="1372" y="1315" on="0"/>
        <pt x="1308" y="1263" on="0"/>
        <pt x="1233" y="1240" on="0"/>
        <pt x="1194" y="1240" on="1"/>
        <pt x="1150" y="1240" on="0"/>
        <pt x="1080" y="1264" on="0"/>
        <pt x="1027" y="1305" on="0"/>
        <pt x="987" y="1359" on="0"/>
        <pt x="973" y="1388" on="1"/>
        <pt x="973" y="1305" on="1"/>
        <pt x="973" y="1255" on="0"/>
        <pt x="935" y="1175" on="0"/>
        <pt x="873" y="1108" on="0"/>
        <pt x="792" y="1049" on="0"/>
        <pt x="749" y="1020" on="1"/>
        <pt x="705" y="990" on="0"/>
        <pt x="619" y="928" on="0"/>
        <pt x="552" y="853" on="0"/>
        <pt x="510" y="762" on="0"/>
        <pt x="510" y="705" on="1"/>
        <pt x="510" y="663" on="0"/>
        <pt x="536" y="579" on="0"/>
        <pt x="597" y="510" on="0"/>
        <pt x="695" y="467" on="0"/>
        <pt x="767" y="467" on="1"/>
        <pt x="767" y="417" on="1"/>
        <pt x="681" y="417" on="0"/>
        <pt x="563" y="469" on="0"/>
        <pt x="491" y="552" on="0"/>
        <pt x="460" y="654" on="0"/>
        <pt x="460" y="705" on="1"/>
        <pt x="460" y="772" on="0"/>
        <pt x="506" y="877" on="0"/>
        <pt x="580" y="961" on="0"/>
        <pt x="674" y="1030" on="0"/>
        <pt x="721" y="1062" on="1"/>
        <pt x="759" y="1088" on="0"/>
        <pt x="832" y="1140" on="0"/>
        <pt x="889" y="1199" on="0"/>
        <pt x="923" y="1265" on="0"/>
        <pt x="923" y="1305" on="1"/>
      </contour>
    </TTGlyph>
    <TTGlyph name="Ccedilla" xMin="92" yMin="-376" xMax="1436" yMax="1559">
      <contour>
        <pt x="656" y="-77" on="1"/>
        <pt x="720" y="-25" on="1"/>
        <pt x="565" y="-13" on="0"/>
        <pt x="330" y="124" on="0"/>
        <pt x="172" y="337" on="0"/>
        <pt x="92" y="609" on="0"/>
        <pt x="92" y="756" on="1"/>
        <pt x="92" y="945" on="0"/>
        <pt x="195" y="1243" on="0"/>
        <pt x="370" y="1450" on="0"/>
        <pt x="604" y="1559" on="0"/>
        <pt x="735" y="1559" on="1"/>
        <pt x="761" y="1559" on="0"/>
        <pt x="832" y="1554" on="0"/>
        <pt x="904" y="1541" on="0"/>
        <pt x="968" y="1520" on="0"/>
        <pt x="987" y="1505" on="1"/>
        <pt x="996" y="1470" on="0"/>
        <pt x="1027" y="1394" on="0"/>
        <pt x="1075" y="1331" on="0"/>
        <pt x="1146" y="1290" on="0"/>
        <pt x="1196" y="1290" on="1"/>
        <pt x="1227" y="1290" on="0"/>
        <pt x="1287" y="1309" on="0"/>
        <pt x="1338" y="1352" on="0"/>
        <pt x="1377" y="1422" on="0"/>
        <pt x="1388" y="1473" on="1"/>
        <pt x="1436" y="1463" on="1"/>
        <pt x="1423" y="1400" on="0"/>
        <pt x="1374" y="1315" on="0"/>
        <pt x="1310" y="1263" on="0"/>
        <pt x="1235" y="1240" on="0"/>
        <pt x="1196" y="1240" on="1"/>
        <pt x="1152" y="1240" on="0"/>
        <pt x="1082" y="1264" on="0"/>
        <pt x="1029" y="1305" on="0"/>
        <pt x="989" y="1359" on="0"/>
        <pt x="975" y="1388" on="1"/>
        <pt x="975" y="1305" on="1"/>
        <pt x="975" y="1255" on="0"/>
        <pt x="937" y="1175" on="0"/>
        <pt x="875" y="1108" on="0"/>
        <pt x="794" y="1049" on="0"/>
        <pt x="751" y="1020" on="1"/>
        <pt x="707" y="990" on="0"/>
        <pt x="621" y="928" on="0"/>
        <pt x="554" y="853" on="0"/>
        <pt x="512" y="762" on="0"/>
        <pt x="512" y="705" on="1"/>
        <pt x="512" y="663" on="0"/>
        <pt x="538" y="579" on="0"/>
        <pt x="599" y="510" on="0"/>
        <pt x="697" y="467" on="0"/>
        <pt x="769" y="467" on="1"/>
        <pt x="769" y="417" on="1"/>
        <pt x="683" y="417" on="0"/>
        <pt x="565" y="469" on="0"/>
        <pt x="493" y="552" on="0"/>
        <pt x="462" y="654" on="0"/>
        <pt x="462" y="705" on="1"/>
        <pt x="462" y="772" on="0"/>
        <pt x="508" y="877" on="0"/>
        <pt x="582" y="961" on="0"/>
        <pt x="676" y="1030" on="0"/>
        <pt x="723" y="1062" on="1"/>
        <pt x="761" y="1088" on="0"/>
        <pt x="834" y="1140" on="0"/>
        <pt x="891" y="1199" on="0"/>
        <pt x="925" y="1265" on="0"/>
        <pt x="925" y="1305" on="1"/>
        <pt x="925" y="1484" on="1"/>
        <pt x="907" y="1490" on="0"/>
        <pt x="858" y="1500" on="0"/>
        <pt x="806" y="1506" on="0"/>
        <pt x="755" y="1509" on="0"/>
        <pt x="735" y="1509" on="1"/>
        <pt x="618" y="1509" on="0"/>
        <pt x="403" y="1405" on="0"/>
        <pt x="239" y="1211" on="0"/>
        <pt x="142" y="932" on="0"/>
        <pt x="142" y="755" on="1"/>
        <pt x="142" y="659" on="0"/>
        <pt x="179" y="477" on="0"/>
        <pt x="253" y="314" on="0"/>
        <pt x="362" y="177" on="0"/>
        <pt x="505" y="78" on="0"/>
        <pt x="682" y="22" on="0"/>
        <pt x="786" y="22" on="1"/>
        <pt x="871" y="22" on="0"/>
        <pt x="1018" y="64" on="0"/>
        <pt x="1141" y="133" on="0"/>
        <pt x="1241" y="221" on="0"/>
        <pt x="1317" y="313" on="0"/>
        <pt x="1368" y="401" on="0"/>
        <pt x="1382" y="436" on="1"/>
        <pt x="1428" y="418" on="1"/>
        <pt x="1413" y="381" on="0"/>
        <pt x="1359" y="287" on="0"/>
        <pt x="1280" y="189" on="0"/>
        <pt x="1176" y="95" on="0"/>
        <pt x="1047" y="21" on="0"/>
        <pt x="890" y="-26" on="0"/>
        <pt x="799" y="-28" on="1"/>
        <pt x="740" y="-75" on="1"/>
        <pt x="788" y="-87" on="0"/>
        <pt x="846" y="-167" on="0"/>
        <pt x="846" y="-218" on="1"/>
        <pt x="846" y="-251" on="0"/>
        <pt x="821" y="-309" on="0"/>
        <pt x="778" y="-351" on="0"/>
        <pt x="720" y="-376" on="0"/>
        <pt x="687" y="-376" on="1"/>
        <pt x="687" y="-326" on="1"/>
        <pt x="709" y="-326" on="0"/>
        <pt x="749" y="-309" on="0"/>
        <pt x="779" y="-280" on="0"/>
        <pt x="796" y="-241" on="0"/>
        <pt x="796" y="-218" on="1"/>
        <pt x="796" y="-174" on="0"/>
        <pt x="730" y="-113" on="0"/>
        <pt x="666" y="-113" on="1"/>
      </contour>
    </TTGlyph>
    <TTGlyph name="D" xMin="86" yMin="0" xMax="1604" yMax="1568">
      <contour>
        <pt x="486" y="750" on="1"/>
        <pt x="463" y="750" on="0"/>
        <pt x="424" y="733" on="0"/>
        <pt x="395" y="703" on="0"/>
        <pt x="378" y="663" on="0"/>
        <pt x="378" y="641" on="1"/>
        <pt x="378" y="596" on="0"/>
        <pt x="446" y="533" on="0"/>
        <pt x="507" y="533" on="1"/>
        <pt x="536" y="533" on="0"/>
        <pt x="599" y="551" on="0"/>
        <pt x="651" y="592" on="0"/>
        <pt x="685" y="659" on="0"/>
        <pt x="685" y="707" on="1"/>
        <pt x="685" y="744" on="0"/>
        <pt x="661" y="808" on="0"/>
        <pt x="623" y="866" on="0"/>
        <pt x="575" y="918" on="0"/>
        <pt x="551" y="944" on="1"/>
        <pt x="527" y="969" on="0"/>
        <pt x="483" y="1018" on="0"/>
        <pt x="449" y="1071" on="0"/>
        <pt x="429" y="1130" on="0"/>
        <pt x="429" y="1164" on="1"/>
        <pt x="790" y="1510" on="1"/>
        <pt x="764" y="1514" on="0"/>
        <pt x="710" y="1518" on="0"/>
        <pt x="683" y="1518" on="1"/>
        <pt x="556" y="1518" on="0"/>
        <pt x="353" y="1455" on="0"/>
        <pt x="212" y="1348" on="0"/>
        <pt x="136" y="1207" on="0"/>
        <pt x="136" y="1129" on="1"/>
        <pt x="136" y="1081" on="0"/>
        <pt x="165" y="990" on="0"/>
        <pt x="224" y="918" on="0"/>
        <pt x="313" y="874" on="0"/>
        <pt x="372" y="874" on="1"/>
        <pt x="372" y="824" on="1"/>
        <pt x="300" y="824" on="0"/>
        <pt x="193" y="878" on="0"/>
        <pt x="121" y="965" on="0"/>
        <pt x="86" y="1073" on="0"/>
        <pt x="86" y="1126" on="1"/>
        <pt x="86" y="1220" on="0"/>
        <pt x="169" y="1381" on="0"/>
        <pt x="323" y="1500" on="0"/>
        <pt x="545" y="1568" on="0"/>
        <pt x="683" y="1568" on="1"/>
        <pt x="813" y="1568" on="0"/>
        <pt x="1051" y="1495" on="0"/>
        <pt x="1256" y="1367" on="0"/>
        <pt x="1422" y="1196" on="0"/>
        <pt x="1540" y="998" on="0"/>
        <pt x="1604" y="785" on="0"/>
        <pt x="1604" y="680" on="1"/>
        <pt x="1604" y="590" on="0"/>
        <pt x="1567" y="420" on="0"/>
        <pt x="1498" y="269" on="0"/>
        <pt x="1400" y="143" on="0"/>
        <pt x="1275" y="52" on="0"/>
        <pt x="1128" y="1" on="0"/>
        <pt x="1045" y="1" on="1"/>
        <pt x="989" y="1" on="0"/>
        <pt x="894" y="36" on="0"/>
        <pt x="810" y="93" on="0"/>
        <pt x="733" y="165" on="0"/>
        <pt x="697" y="203" on="1"/>
        <pt x="664" y="236" on="0"/>
        <pt x="596" y="298" on="0"/>
        <pt x="522" y="346" on="0"/>
        <pt x="441" y="374" on="0"/>
        <pt x="396" y="374" on="1"/>
        <pt x="353" y="374" on="0"/>
        <pt x="270" y="347" on="0"/>
        <pt x="205" y="294" on="0"/>
        <pt x="165" y="218" on="0"/>
        <pt x="165" y="170" on="1"/>
        <pt x="165" y="143" on="0"/>
        <pt x="182" y="99" on="0"/>
        <pt x="212" y="67" on="0"/>
        <pt x="252" y="50" on="0"/>
        <pt x="275" y="50" on="1"/>
        <pt x="297" y="50" on="0"/>
        <pt x="337" y="67" on="0"/>
        <pt x="367" y="96" on="0"/>
        <pt x="384" y="135" on="0"/>
        <pt x="384" y="158" on="1"/>
        <pt x="434" y="158" on="1"/>
        <pt x="434" y="125" on="0"/>
        <pt x="409" y="67" on="0"/>
        <pt x="366" y="25" on="0"/>
        <pt x="308" y="0" on="0"/>
        <pt x="275" y="0" on="1"/>
        <pt x="242" y="0" on="0"/>
        <pt x="184" y="25" on="0"/>
        <pt x="140" y="70" on="0"/>
        <pt x="115" y="132" on="0"/>
        <pt x="115" y="170" on="1"/>
        <pt x="115" y="230" on="0"/>
        <pt x="164" y="325" on="0"/>
        <pt x="243" y="390" on="0"/>
        <pt x="344" y="424" on="0"/>
        <pt x="396" y="424" on="1"/>
        <pt x="450" y="424" on="0"/>
        <pt x="542" y="393" on="0"/>
        <pt x="623" y="342" on="0"/>
        <pt x="697" y="274" on="0"/>
        <pt x="733" y="237" on="1"/>
        <pt x="767" y="202" on="0"/>
        <pt x="836" y="135" on="0"/>
        <pt x="912" y="83" on="0"/>
        <pt x="996" y="51" on="0"/>
        <pt x="1045" y="51" on="1"/>
        <pt x="1158" y="51" on="0"/>
        <pt x="1346" y="154" on="0"/>
        <pt x="1480" y="328" on="0"/>
        <pt x="1554" y="556" on="0"/>
        <pt x="1554" y="680" on="1"/>
        <pt x="1554" y="767" on="0"/>
        <pt x="1507" y="945" on="0"/>
        <pt x="1419" y="1113" on="0"/>
        <pt x="1294" y="1265" on="0"/>
        <pt x="1138" y="1389" on="0"/>
        <pt x="954" y="1478" on="0"/>
        <pt x="852" y="1500" on="1"/>
        <pt x="479" y="1144" on="1"/>
        <pt x="485" y="1102" on="0"/>
        <pt x="549" y="1018" on="0"/>
        <pt x="587" y="978" on="1"/>
        <pt x="614" y="950" on="0"/>
        <pt x="667" y="891" on="0"/>
        <pt x="709" y="825" on="0"/>
        <pt x="735" y="751" on="0"/>
        <pt x="735" y="707" on="1"/>
        <pt x="735" y="644" on="0"/>
        <pt x="690" y="559" on="0"/>
        <pt x="622" y="506" on="0"/>
        <pt x="543" y="483" on="0"/>
        <pt x="510" y="483" on="1"/>
        <pt x="468" y="483" on="0"/>
        <pt x="401" y="508" on="0"/>
        <pt x="353" y="550" on="0"/>
        <pt x="328" y="608" on="0"/>
        <pt x="328" y="641" on="1"/>
        <pt x="328" y="674" on="0"/>
        <pt x="353" y="732" on="0"/>
        <pt x="395" y="775" on="0"/>
        <pt x="453" y="800" on="0"/>
        <pt x="486" y="800" on="1"/>
      </contour>
    </TTGlyph>
    <TTGlyph name="E" xMin="98" yMin="-1" xMax="1412" yMax="1566">
      <contour>
        <pt x="1381" y="482" on="1"/>
        <pt x="1349" y="398" on="0"/>
        <pt x="1242" y="227" on="0"/>
        <pt x="1083" y="87" on="0"/>
        <pt x="869" y="-1" on="0"/>
        <pt x="730" y="-1" on="1"/>
        <pt x="654" y="-1" on="0"/>
        <pt x="502" y="39" on="0"/>
        <pt x="362" y="122" on="0"/>
        <pt x="240" y="248" on="0"/>
        <pt x="150" y="421" on="0"/>
        <pt x="98" y="641" on="0"/>
        <pt x="98" y="775" on="1"/>
        <pt x="98" y="977" on="0"/>
        <pt x="168" y="1274" on="0"/>
        <pt x="281" y="1470" on="0"/>
        <pt x="423" y="1566" on="0"/>
        <pt x="495" y="1566" on="1"/>
        <pt x="533" y="1566" on="0"/>
        <pt x="596" y="1543" on="0"/>
        <pt x="642" y="1503" on="0"/>
        <pt x="668" y="1448" on="0"/>
        <pt x="668" y="1417" on="1"/>
        <pt x="668" y="1416" on="1"/>
        <pt x="772" y="1545" on="1"/>
        <pt x="787" y="1500" on="0"/>
        <pt x="831" y="1409" on="0"/>
        <pt x="893" y="1336" on="0"/>
        <pt x="975" y="1291" on="0"/>
        <pt x="1026" y="1291" on="1"/>
        <pt x="1076" y="1291" on="0"/>
        <pt x="1155" y="1329" on="0"/>
        <pt x="1209" y="1396" on="0"/>
        <pt x="1238" y="1487" on="0"/>
        <pt x="1238" y="1541" on="1"/>
        <pt x="1288" y="1541" on="1"/>
        <pt x="1288" y="1477" on="0"/>
        <pt x="1253" y="1367" on="0"/>
        <pt x="1185" y="1287" on="0"/>
        <pt x="1088" y="1241" on="0"/>
        <pt x="1026" y="1241" on="1"/>
        <pt x="971" y="1241" on="0"/>
        <pt x="885" y="1275" on="0"/>
        <pt x="818" y="1332" on="0"/>
        <pt x="769" y="1404" on="0"/>
        <pt x="753" y="1443" on="1"/>
        <pt x="624" y="1283" on="1"/>
        <pt x="622" y="1279" on="0"/>
        <pt x="616" y="1273" on="0"/>
        <pt x="614" y="1270" on="1"/>
        <pt x="595" y="1247" on="0"/>
        <pt x="562" y="1191" on="0"/>
        <pt x="562" y="1149" on="1"/>
        <pt x="562" y="1110" on="0"/>
        <pt x="595" y="1050" on="0"/>
        <pt x="649" y="1000" on="0"/>
        <pt x="719" y="958" on="0"/>
        <pt x="757" y="937" on="1"/>
        <pt x="804" y="911" on="0"/>
        <pt x="897" y="853" on="0"/>
        <pt x="936" y="817" on="1"/>
        <pt x="950" y="859" on="0"/>
        <pt x="985" y="938" on="0"/>
        <pt x="1033" y="1000" on="0"/>
        <pt x="1098" y="1038" on="0"/>
        <pt x="1141" y="1038" on="1"/>
        <pt x="1184" y="1038" on="0"/>
        <pt x="1233" y="1010" on="0"/>
        <pt x="1253" y="993" on="1"/>
        <pt x="1264" y="983" on="0"/>
        <pt x="1288" y="968" on="0"/>
        <pt x="1303" y="968" on="1"/>
        <pt x="1322" y="968" on="0"/>
        <pt x="1346" y="989" on="0"/>
        <pt x="1358" y="1024" on="0"/>
        <pt x="1362" y="1069" on="0"/>
        <pt x="1362" y="1092" on="1"/>
        <pt x="1412" y="1092" on="1"/>
        <pt x="1412" y="1060" on="0"/>
        <pt x="1405" y="997" on="0"/>
        <pt x="1382" y="948" on="0"/>
        <pt x="1339" y="918" on="0"/>
        <pt x="1303" y="918" on="1"/>
        <pt x="1275" y="918" on="0"/>
        <pt x="1238" y="941" on="0"/>
        <pt x="1221" y="955" on="1"/>
        <pt x="1207" y="966" on="0"/>
        <pt x="1169" y="988" on="0"/>
        <pt x="1141" y="988" on="1"/>
        <pt x="1107" y="988" on="0"/>
        <pt x="1056" y="950" on="0"/>
        <pt x="1017" y="889" on="0"/>
        <pt x="987" y="813" on="0"/>
        <pt x="975" y="774" on="1"/>
        <pt x="1002" y="738" on="0"/>
        <pt x="1035" y="647" on="0"/>
        <pt x="1035" y="589" on="1"/>
        <pt x="1035" y="540" on="0"/>
        <pt x="1001" y="440" on="0"/>
        <pt x="933" y="360" on="0"/>
        <pt x="831" y="310" on="0"/>
        <pt x="762" y="310" on="1"/>
        <pt x="706" y="310" on="0"/>
        <pt x="612" y="345" on="0"/>
        <pt x="544" y="409" on="0"/>
        <pt x="506" y="500" on="0"/>
        <pt x="506" y="556" on="1"/>
        <pt x="506" y="608" on="0"/>
        <pt x="537" y="684" on="0"/>
        <pt x="558" y="713" on="1"/>
        <pt x="596" y="684" on="1"/>
        <pt x="579" y="660" on="0"/>
        <pt x="556" y="598" on="0"/>
        <pt x="556" y="556" on="1"/>
        <pt x="556" y="512" on="0"/>
        <pt x="586" y="440" on="0"/>
        <pt x="641" y="388" on="0"/>
        <pt x="718" y="360" on="0"/>
        <pt x="765" y="360" on="1"/>
        <pt x="820" y="360" on="0"/>
        <pt x="903" y="401" on="0"/>
        <pt x="958" y="467" on="0"/>
        <pt x="985" y="549" on="0"/>
        <pt x="985" y="589" on="1"/>
        <pt x="985" y="648" on="0"/>
        <pt x="939" y="739" on="0"/>
        <pt x="867" y="811" on="0"/>
        <pt x="777" y="868" on="0"/>
        <pt x="733" y="893" on="1"/>
        <pt x="692" y="916" on="0"/>
        <pt x="612" y="966" on="0"/>
        <pt x="550" y="1026" on="0"/>
        <pt x="512" y="1100" on="0"/>
        <pt x="512" y="1148" on="1"/>
        <pt x="512" y="1176" on="0"/>
        <pt x="523" y="1221" on="0"/>
        <pt x="541" y="1258" on="0"/>
        <pt x="563" y="1287" on="0"/>
        <pt x="574" y="1301" on="1"/>
        <pt x="583" y="1312" on="0"/>
        <pt x="599" y="1334" on="0"/>
        <pt x="611" y="1361" on="0"/>
        <pt x="618" y="1395" on="0"/>
        <pt x="618" y="1417" on="1"/>
        <pt x="618" y="1438" on="0"/>
        <pt x="600" y="1474" on="0"/>
        <pt x="567" y="1501" on="0"/>
        <pt x="522" y="1516" on="0"/>
        <pt x="495" y="1516" on="1"/>
        <pt x="432" y="1516" on="0"/>
        <pt x="308" y="1426" on="0"/>
        <pt x="209" y="1243" on="0"/>
        <pt x="148" y="964" on="0"/>
        <pt x="148" y="775" on="1"/>
        <pt x="148" y="649" on="0"/>
        <pt x="196" y="443" on="0"/>
        <pt x="279" y="282" on="0"/>
        <pt x="391" y="164" on="0"/>
        <pt x="520" y="87" on="0"/>
        <pt x="661" y="49" on="0"/>
        <pt x="730" y="49" on="1"/>
        <pt x="859" y="49" on="0"/>
        <pt x="1058" y="131" on="0"/>
        <pt x="1206" y="261" on="0"/>
        <pt x="1305" y="422" on="0"/>
        <pt x="1335" y="500" on="1"/>
      </contour>
    </TTGlyph>
    <TTGlyph name="Eacute" xMin="98" yMin="-1" xMax="1412" yMax="1931">
      <contour>
        <pt x="1381" y="482" on="1"/>
        <pt x="1349" y="398" on="0"/>
        <pt x="1242" y="227" on="0"/>
        <pt x="1083" y="87" on="0"/>
        <pt x="869" y="-1" on="0"/>
        <pt x="730" y="-1" on="1"/>
        <pt x="654" y="-1" on="0"/>
        <pt x="502" y="39" on="0"/>
        <pt x="362" y="122" on="0"/>
        <pt x="240" y="248" on="0"/>
        <pt x="150" y="421" on="0"/>
        <pt x="98" y="641" on="0"/>
        <pt x="98" y="775" on="1"/>
        <pt x="98" y="977" on="0"/>
        <pt x="168" y="1274" on="0"/>
        <pt x="281" y="1470" on="0"/>
        <pt x="423" y="1566" on="0"/>
        <pt x="495" y="1566" on="1"/>
        <pt x="533" y="1566" on="0"/>
        <pt x="596" y="1543" on="0"/>
        <pt x="642" y="1503" on="0"/>
        <pt x="668" y="1448" on="0"/>
        <pt x="668" y="1417" on="1"/>
        <pt x="668" y="1416" on="1"/>
        <pt x="772" y="1545" on="1"/>
        <pt x="787" y="1500" on="0"/>
        <pt x="831" y="1409" on="0"/>
        <pt x="893" y="1336" on="0"/>
        <pt x="975" y="1291" on="0"/>
        <pt x="1026" y="1291" on="1"/>
        <pt x="1076" y="1291" on="0"/>
        <pt x="1155" y="1329" on="0"/>
        <pt x="1209" y="1396" on="0"/>
        <pt x="1238" y="1487" on="0"/>
        <pt x="1238" y="1541" on="1"/>
        <pt x="1288" y="1541" on="1"/>
        <pt x="1288" y="1477" on="0"/>
        <pt x="1253" y="1367" on="0"/>
        <pt x="1185" y="1287" on="0"/>
        <pt x="1088" y="1241" on="0"/>
        <pt x="1026" y="1241" on="1"/>
        <pt x="971" y="1241" on="0"/>
        <pt x="885" y="1275" on="0"/>
        <pt x="818" y="1332" on="0"/>
        <pt x="769" y="1404" on="0"/>
        <pt x="753" y="1443" on="1"/>
        <pt x="624" y="1283" on="1"/>
        <pt x="622" y="1279" on="0"/>
        <pt x="616" y="1273" on="0"/>
        <pt x="614" y="1270" on="1"/>
        <pt x="595" y="1247" on="0"/>
        <pt x="562" y="1191" on="0"/>
        <pt x="562" y="1149" on="1"/>
        <pt x="562" y="1110" on="0"/>
        <pt x="595" y="1050" on="0"/>
        <pt x="649" y="1000" on="0"/>
        <pt x="719" y="958" on="0"/>
        <pt x="757" y="937" on="1"/>
        <pt x="804" y="911" on="0"/>
        <pt x="897" y="853" on="0"/>
        <pt x="936" y="817" on="1"/>
        <pt x="950" y="859" on="0"/>
        <pt x="985" y="938" on="0"/>
        <pt x="1033" y="1000" on="0"/>
        <pt x="1098" y="1038" on="0"/>
        <pt x="1141" y="1038" on="1"/>
        <pt x="1184" y="1038" on="0"/>
        <pt x="1233" y="1010" on="0"/>
        <pt x="1253" y="993" on="1"/>
        <pt x="1264" y="983" on="0"/>
        <pt x="1288" y="968" on="0"/>
        <pt x="1303" y="968" on="1"/>
        <pt x="1322" y="968" on="0"/>
        <pt x="1346" y="989" on="0"/>
        <pt x="1358" y="1024" on="0"/>
        <pt x="1362" y="1069" on="0"/>
        <pt x="1362" y="1092" on="1"/>
        <pt x="1412" y="1092" on="1"/>
        <pt x="1412" y="1060" on="0"/>
        <pt x="1405" y="997" on="0"/>
        <pt x="1382" y="948" on="0"/>
        <pt x="1339" y="918" on="0"/>
        <pt x="1303" y="918" on="1"/>
        <pt x="1275" y="918" on="0"/>
        <pt x="1238" y="941" on="0"/>
        <pt x="1221" y="955" on="1"/>
        <pt x="1207" y="966" on="0"/>
        <pt x="1169" y="988" on="0"/>
        <pt x="1141" y="988" on="1"/>
        <pt x="1107" y="988" on="0"/>
        <pt x="1056" y="950" on="0"/>
        <pt x="1017" y="889" on="0"/>
        <pt x="987" y="813" on="0"/>
        <pt x="975" y="774" on="1"/>
        <pt x="1002" y="738" on="0"/>
        <pt x="1035" y="647" on="0"/>
        <pt x="1035" y="589" on="1"/>
        <pt x="1035" y="540" on="0"/>
        <pt x="1001" y="440" on="0"/>
        <pt x="933" y="360" on="0"/>
        <pt x="831" y="310" on="0"/>
        <pt x="762" y="310" on="1"/>
        <pt x="706" y="310" on="0"/>
        <pt x="612" y="345" on="0"/>
        <pt x="544" y="409" on="0"/>
        <pt x="506" y="500" on="0"/>
        <pt x="506" y="556" on="1"/>
        <pt x="506" y="608" on="0"/>
        <pt x="537" y="684" on="0"/>
        <pt x="558" y="713" on="1"/>
        <pt x="596" y="684" on="1"/>
        <pt x="579" y="660" on="0"/>
        <pt x="556" y="598" on="0"/>
        <pt x="556" y="556" on="1"/>
        <pt x="556" y="512" on="0"/>
        <pt x="586" y="440" on="0"/>
        <pt x="641" y="388" on="0"/>
        <pt x="718" y="360" on="0"/>
        <pt x="765" y="360" on="1"/>
        <pt x="820" y="360" on="0"/>
        <pt x="903" y="401" on="0"/>
        <pt x="958" y="467" on="0"/>
        <pt x="985" y="549" on="0"/>
        <pt x="985" y="589" on="1"/>
        <pt x="985" y="648" on="0"/>
        <pt x="939" y="739" on="0"/>
        <pt x="867" y="811" on="0"/>
        <pt x="777" y="868" on="0"/>
        <pt x="733" y="893" on="1"/>
        <pt x="692" y="916" on="0"/>
        <pt x="612" y="966" on="0"/>
        <pt x="550" y="1026" on="0"/>
        <pt x="512" y="1100" on="0"/>
        <pt x="512" y="1148" on="1"/>
        <pt x="512" y="1176" on="0"/>
        <pt x="523" y="1221" on="0"/>
        <pt x="541" y="1258" on="0"/>
        <pt x="563" y="1287" on="0"/>
        <pt x="574" y="1301" on="1"/>
        <pt x="583" y="1312" on="0"/>
        <pt x="599" y="1334" on="0"/>
        <pt x="611" y="1361" on="0"/>
        <pt x="618" y="1395" on="0"/>
        <pt x="618" y="1417" on="1"/>
        <pt x="618" y="1438" on="0"/>
        <pt x="600" y="1474" on="0"/>
        <pt x="567" y="1501" on="0"/>
        <pt x="522" y="1516" on="0"/>
        <pt x="495" y="1516" on="1"/>
        <pt x="432" y="1516" on="0"/>
        <pt x="308" y="1426" on="0"/>
        <pt x="209" y="1243" on="0"/>
        <pt x="148" y="964" on="0"/>
        <pt x="148" y="775" on="1"/>
        <pt x="148" y="649" on="0"/>
        <pt x="196" y="443" on="0"/>
        <pt x="279" y="282" on="0"/>
        <pt x="391" y="164" on="0"/>
        <pt x="520" y="87" on="0"/>
        <pt x="661" y="49" on="0"/>
        <pt x="730" y="49" on="1"/>
        <pt x="859" y="49" on="0"/>
        <pt x="1058" y="131" on="0"/>
        <pt x="1206" y="261" on="0"/>
        <pt x="1305" y="422" on="0"/>
        <pt x="1335" y="500" on="1"/>
      </contour>
      <contour>
        <pt x="962" y="1684" on="1"/>
        <pt x="935" y="1728" on="1"/>
        <pt x="1213" y="1931" on="1"/>
        <pt x="1256" y="1872" on="1"/>
      </contour>
    </TTGlyph>
    <TTGlyph name="Ecircumflex" xMin="98" yMin="-1" xMax="1412" yMax="1934">
      <contour>
        <pt x="1381" y="482" on="1"/>
        <pt x="1349" y="398" on="0"/>
        <pt x="1242" y="227" on="0"/>
        <pt x="1083" y="87" on="0"/>
        <pt x="869" y="-1" on="0"/>
        <pt x="730" y="-1" on="1"/>
        <pt x="654" y="-1" on="0"/>
        <pt x="502" y="39" on="0"/>
        <pt x="362" y="122" on="0"/>
        <pt x="240" y="248" on="0"/>
        <pt x="150" y="421" on="0"/>
        <pt x="98" y="641" on="0"/>
        <pt x="98" y="775" on="1"/>
        <pt x="98" y="977" on="0"/>
        <pt x="168" y="1274" on="0"/>
        <pt x="281" y="1470" on="0"/>
        <pt x="423" y="1566" on="0"/>
        <pt x="495" y="1566" on="1"/>
        <pt x="533" y="1566" on="0"/>
        <pt x="596" y="1543" on="0"/>
        <pt x="642" y="1503" on="0"/>
        <pt x="668" y="1448" on="0"/>
        <pt x="668" y="1417" on="1"/>
        <pt x="668" y="1416" on="1"/>
        <pt x="772" y="1545" on="1"/>
        <pt x="787" y="1500" on="0"/>
        <pt x="831" y="1409" on="0"/>
        <pt x="893" y="1336" on="0"/>
        <pt x="975" y="1291" on="0"/>
        <pt x="1026" y="1291" on="1"/>
        <pt x="1076" y="1291" on="0"/>
        <pt x="1155" y="1329" on="0"/>
        <pt x="1209" y="1396" on="0"/>
        <pt x="1238" y="1487" on="0"/>
        <pt x="1238" y="1541" on="1"/>
        <pt x="1288" y="1541" on="1"/>
        <pt x="1288" y="1477" on="0"/>
        <pt x="1253" y="1367" on="0"/>
        <pt x="1185" y="1287" on="0"/>
        <pt x="1088" y="1241" on="0"/>
        <pt x="1026" y="1241" on="1"/>
        <pt x="971" y="1241" on="0"/>
        <pt x="885" y="1275" on="0"/>
        <pt x="818" y="1332" on="0"/>
        <pt x="769" y="1404" on="0"/>
        <pt x="753" y="1443" on="1"/>
        <pt x="624" y="1283" on="1"/>
        <pt x="622" y="1279" on="0"/>
        <pt x="616" y="1273" on="0"/>
        <pt x="614" y="1270" on="1"/>
        <pt x="595" y="1247" on="0"/>
        <pt x="562" y="1191" on="0"/>
        <pt x="562" y="1149" on="1"/>
        <pt x="562" y="1110" on="0"/>
        <pt x="595" y="1050" on="0"/>
        <pt x="649" y="1000" on="0"/>
        <pt x="719" y="958" on="0"/>
        <pt x="757" y="937" on="1"/>
        <pt x="804" y="911" on="0"/>
        <pt x="897" y="853" on="0"/>
        <pt x="936" y="817" on="1"/>
        <pt x="950" y="859" on="0"/>
        <pt x="985" y="938" on="0"/>
        <pt x="1033" y="1000" on="0"/>
        <pt x="1098" y="1038" on="0"/>
        <pt x="1141" y="1038" on="1"/>
        <pt x="1184" y="1038" on="0"/>
        <pt x="1233" y="1010" on="0"/>
        <pt x="1253" y="993" on="1"/>
        <pt x="1264" y="983" on="0"/>
        <pt x="1288" y="968" on="0"/>
        <pt x="1303" y="968" on="1"/>
        <pt x="1322" y="968" on="0"/>
        <pt x="1346" y="989" on="0"/>
        <pt x="1358" y="1024" on="0"/>
        <pt x="1362" y="1069" on="0"/>
        <pt x="1362" y="1092" on="1"/>
        <pt x="1412" y="1092" on="1"/>
        <pt x="1412" y="1060" on="0"/>
        <pt x="1405" y="997" on="0"/>
        <pt x="1382" y="948" on="0"/>
        <pt x="1339" y="918" on="0"/>
        <pt x="1303" y="918" on="1"/>
        <pt x="1275" y="918" on="0"/>
        <pt x="1238" y="941" on="0"/>
        <pt x="1221" y="955" on="1"/>
        <pt x="1207" y="966" on="0"/>
        <pt x="1169" y="988" on="0"/>
        <pt x="1141" y="988" on="1"/>
        <pt x="1107" y="988" on="0"/>
        <pt x="1056" y="950" on="0"/>
        <pt x="1017" y="889" on="0"/>
        <pt x="987" y="813" on="0"/>
        <pt x="975" y="774" on="1"/>
        <pt x="1002" y="738" on="0"/>
        <pt x="1035" y="647" on="0"/>
        <pt x="1035" y="589" on="1"/>
        <pt x="1035" y="540" on="0"/>
        <pt x="1001" y="440" on="0"/>
        <pt x="933" y="360" on="0"/>
        <pt x="831" y="310" on="0"/>
        <pt x="762" y="310" on="1"/>
        <pt x="706" y="310" on="0"/>
        <pt x="612" y="345" on="0"/>
        <pt x="544" y="409" on="0"/>
        <pt x="506" y="500" on="0"/>
        <pt x="506" y="556" on="1"/>
        <pt x="506" y="608" on="0"/>
        <pt x="537" y="684" on="0"/>
        <pt x="558" y="713" on="1"/>
        <pt x="596" y="684" on="1"/>
        <pt x="579" y="660" on="0"/>
        <pt x="556" y="598" on="0"/>
        <pt x="556" y="556" on="1"/>
        <pt x="556" y="512" on="0"/>
        <pt x="586" y="440" on="0"/>
        <pt x="641" y="388" on="0"/>
        <pt x="718" y="360" on="0"/>
        <pt x="765" y="360" on="1"/>
        <pt x="820" y="360" on="0"/>
        <pt x="903" y="401" on="0"/>
        <pt x="958" y="467" on="0"/>
        <pt x="985" y="549" on="0"/>
        <pt x="985" y="589" on="1"/>
        <pt x="985" y="648" on="0"/>
        <pt x="939" y="739" on="0"/>
        <pt x="867" y="811" on="0"/>
        <pt x="777" y="868" on="0"/>
        <pt x="733" y="893" on="1"/>
        <pt x="692" y="916" on="0"/>
        <pt x="612" y="966" on="0"/>
        <pt x="550" y="1026" on="0"/>
        <pt x="512" y="1100" on="0"/>
        <pt x="512" y="1148" on="1"/>
        <pt x="512" y="1176" on="0"/>
        <pt x="523" y="1221" on="0"/>
        <pt x="541" y="1258" on="0"/>
        <pt x="563" y="1287" on="0"/>
        <pt x="574" y="1301" on="1"/>
        <pt x="583" y="1312" on="0"/>
        <pt x="599" y="1334" on="0"/>
        <pt x="611" y="1361" on="0"/>
        <pt x="618" y="1395" on="0"/>
        <pt x="618" y="1417" on="1"/>
        <pt x="618" y="1438" on="0"/>
        <pt x="600" y="1474" on="0"/>
        <pt x="567" y="1501" on="0"/>
        <pt x="522" y="1516" on="0"/>
        <pt x="495" y="1516" on="1"/>
        <pt x="432" y="1516" on="0"/>
        <pt x="308" y="1426" on="0"/>
        <pt x="209" y="1243" on="0"/>
        <pt x="148" y="964" on="0"/>
        <pt x="148" y="775" on="1"/>
        <pt x="148" y="649" on="0"/>
        <pt x="196" y="443" on="0"/>
        <pt x="279" y="282" on="0"/>
        <pt x="391" y="164" on="0"/>
        <pt x="520" y="87" on="0"/>
        <pt x="661" y="49" on="0"/>
        <pt x="730" y="49" on="1"/>
        <pt x="859" y="49" on="0"/>
        <pt x="1058" y="131" on="0"/>
        <pt x="1206" y="261" on="0"/>
        <pt x="1305" y="422" on="0"/>
        <pt x="1335" y="500" on="1"/>
      </contour>
      <contour>
        <pt x="672" y="1726" on="1"/>
        <pt x="938" y="1934" on="1"/>
        <pt x="1270" y="1727" on="1"/>
        <pt x="1244" y="1685" on="1"/>
        <pt x="942" y="1873" on="1"/>
        <pt x="933" y="1865" on="0"/>
        <pt x="902" y="1842" on="0"/>
        <pt x="865" y="1813" on="0"/>
        <pt x="824" y="1781" on="0"/>
        <pt x="804" y="1765" on="1"/>
        <pt x="756" y="1728" on="0"/>
        <pt x="702" y="1686" on="1"/>
      </contour>
    </TTGlyph>
    <TTGlyph name="Edieresis" xMin="98" yMin="-1" xMax="1412" yMax="1876">
      <contour>
        <pt x="1381" y="482" on="1"/>
        <pt x="1349" y="398" on="0"/>
        <pt x="1242" y="227" on="0"/>
        <pt x="1083" y="87" on="0"/>
        <pt x="869" y="-1" on="0"/>
        <pt x="730" y="-1" on="1"/>
        <pt x="654" y="-1" on="0"/>
        <pt x="502" y="39" on="0"/>
        <pt x="362" y="122" on="0"/>
        <pt x="240" y="248" on="0"/>
        <pt x="150" y="421" on="0"/>
        <pt x="98" y="641" on="0"/>
        <pt x="98" y="775" on="1"/>
        <pt x="98" y="977" on="0"/>
        <pt x="168" y="1274" on="0"/>
        <pt x="281" y="1470" on="0"/>
        <pt x="423" y="1566" on="0"/>
        <pt x="495" y="1566" on="1"/>
        <pt x="533" y="1566" on="0"/>
        <pt x="596" y="1543" on="0"/>
        <pt x="642" y="1503" on="0"/>
        <pt x="668" y="1448" on="0"/>
        <pt x="668" y="1417" on="1"/>
        <pt x="668" y="1416" on="1"/>
        <pt x="772" y="1545" on="1"/>
        <pt x="787" y="1500" on="0"/>
        <pt x="831" y="1409" on="0"/>
        <pt x="893" y="1336" on="0"/>
        <pt x="975" y="1291" on="0"/>
        <pt x="1026" y="1291" on="1"/>
        <pt x="1076" y="1291" on="0"/>
        <pt x="1155" y="1329" on="0"/>
        <pt x="1209" y="1396" on="0"/>
        <pt x="1238" y="1487" on="0"/>
        <pt x="1238" y="1541" on="1"/>
        <pt x="1288" y="1541" on="1"/>
        <pt x="1288" y="1477" on="0"/>
        <pt x="1253" y="1367" on="0"/>
        <pt x="1185" y="1287" on="0"/>
        <pt x="1088" y="1241" on="0"/>
        <pt x="1026" y="1241" on="1"/>
        <pt x="971" y="1241" on="0"/>
        <pt x="885" y="1275" on="0"/>
        <pt x="818" y="1332" on="0"/>
        <pt x="769" y="1404" on="0"/>
        <pt x="753" y="1443" on="1"/>
        <pt x="624" y="1283" on="1"/>
        <pt x="622" y="1279" on="0"/>
        <pt x="616" y="1273" on="0"/>
        <pt x="614" y="1270" on="1"/>
        <pt x="595" y="1247" on="0"/>
        <pt x="562" y="1191" on="0"/>
        <pt x="562" y="1149" on="1"/>
        <pt x="562" y="1110" on="0"/>
        <pt x="595" y="1050" on="0"/>
        <pt x="649" y="1000" on="0"/>
        <pt x="719" y="958" on="0"/>
        <pt x="757" y="937" on="1"/>
        <pt x="804" y="911" on="0"/>
        <pt x="897" y="853" on="0"/>
        <pt x="936" y="817" on="1"/>
        <pt x="950" y="859" on="0"/>
        <pt x="985" y="938" on="0"/>
        <pt x="1033" y="1000" on="0"/>
        <pt x="1098" y="1038" on="0"/>
        <pt x="1141" y="1038" on="1"/>
        <pt x="1184" y="1038" on="0"/>
        <pt x="1233" y="1010" on="0"/>
        <pt x="1253" y="993" on="1"/>
        <pt x="1264" y="983" on="0"/>
        <pt x="1288" y="968" on="0"/>
        <pt x="1303" y="968" on="1"/>
        <pt x="1322" y="968" on="0"/>
        <pt x="1346" y="989" on="0"/>
        <pt x="1358" y="1024" on="0"/>
        <pt x="1362" y="1069" on="0"/>
        <pt x="1362" y="1092" on="1"/>
        <pt x="1412" y="1092" on="1"/>
        <pt x="1412" y="1060" on="0"/>
        <pt x="1405" y="997" on="0"/>
        <pt x="1382" y="948" on="0"/>
        <pt x="1339" y="918" on="0"/>
        <pt x="1303" y="918" on="1"/>
        <pt x="1275" y="918" on="0"/>
        <pt x="1238" y="941" on="0"/>
        <pt x="1221" y="955" on="1"/>
        <pt x="1207" y="966" on="0"/>
        <pt x="1169" y="988" on="0"/>
        <pt x="1141" y="988" on="1"/>
        <pt x="1107" y="988" on="0"/>
        <pt x="1056" y="950" on="0"/>
        <pt x="1017" y="889" on="0"/>
        <pt x="987" y="813" on="0"/>
        <pt x="975" y="774" on="1"/>
        <pt x="1002" y="738" on="0"/>
        <pt x="1035" y="647" on="0"/>
        <pt x="1035" y="589" on="1"/>
        <pt x="1035" y="540" on="0"/>
        <pt x="1001" y="440" on="0"/>
        <pt x="933" y="360" on="0"/>
        <pt x="831" y="310" on="0"/>
        <pt x="762" y="310" on="1"/>
        <pt x="706" y="310" on="0"/>
        <pt x="612" y="345" on="0"/>
        <pt x="544" y="409" on="0"/>
        <pt x="506" y="500" on="0"/>
        <pt x="506" y="556" on="1"/>
        <pt x="506" y="608" on="0"/>
        <pt x="537" y="684" on="0"/>
        <pt x="558" y="713" on="1"/>
        <pt x="596" y="684" on="1"/>
        <pt x="579" y="660" on="0"/>
        <pt x="556" y="598" on="0"/>
        <pt x="556" y="556" on="1"/>
        <pt x="556" y="512" on="0"/>
        <pt x="586" y="440" on="0"/>
        <pt x="641" y="388" on="0"/>
        <pt x="718" y="360" on="0"/>
        <pt x="765" y="360" on="1"/>
        <pt x="820" y="360" on="0"/>
        <pt x="903" y="401" on="0"/>
        <pt x="958" y="467" on="0"/>
        <pt x="985" y="549" on="0"/>
        <pt x="985" y="589" on="1"/>
        <pt x="985" y="648" on="0"/>
        <pt x="939" y="739" on="0"/>
        <pt x="867" y="811" on="0"/>
        <pt x="777" y="868" on="0"/>
        <pt x="733" y="893" on="1"/>
        <pt x="692" y="916" on="0"/>
        <pt x="612" y="966" on="0"/>
        <pt x="550" y="1026" on="0"/>
        <pt x="512" y="1100" on="0"/>
        <pt x="512" y="1148" on="1"/>
        <pt x="512" y="1176" on="0"/>
        <pt x="523" y="1221" on="0"/>
        <pt x="541" y="1258" on="0"/>
        <pt x="563" y="1287" on="0"/>
        <pt x="574" y="1301" on="1"/>
        <pt x="583" y="1312" on="0"/>
        <pt x="599" y="1334" on="0"/>
        <pt x="611" y="1361" on="0"/>
        <pt x="618" y="1395" on="0"/>
        <pt x="618" y="1417" on="1"/>
        <pt x="618" y="1438" on="0"/>
        <pt x="600" y="1474" on="0"/>
        <pt x="567" y="1501" on="0"/>
        <pt x="522" y="1516" on="0"/>
        <pt x="495" y="1516" on="1"/>
        <pt x="432" y="1516" on="0"/>
        <pt x="308" y="1426" on="0"/>
        <pt x="209" y="1243" on="0"/>
        <pt x="148" y="964" on="0"/>
        <pt x="148" y="775" on="1"/>
        <pt x="148" y="649" on="0"/>
        <pt x="196" y="443" on="0"/>
        <pt x="279" y="282" on="0"/>
        <pt x="391" y="164" on="0"/>
        <pt x="520" y="87" on="0"/>
        <pt x="661" y="49" on="0"/>
        <pt x="730" y="49" on="1"/>
        <pt x="859" y="49" on="0"/>
        <pt x="1058" y="131" on="0"/>
        <pt x="1206" y="261" on="0"/>
        <pt x="1305" y="422" on="0"/>
        <pt x="1335" y="500" on="1"/>
      </contour>
      <contour>
        <pt x="1165" y="1679" on="1"/>
        <pt x="1118" y="1694" on="1"/>
        <pt x="1194" y="1876" on="1"/>
        <pt x="1255" y="1851" on="1"/>
      </contour>
      <contour>
        <pt x="886" y="1679" on="1"/>
        <pt x="839" y="1694" on="1"/>
        <pt x="915" y="1876" on="1"/>
        <pt x="976" y="1851" on="1"/>
      </contour>
    </TTGlyph>
    <TTGlyph name="Egrave" xMin="98" yMin="-1" xMax="1412" yMax="1931">
      <contour>
        <pt x="1381" y="482" on="1"/>
        <pt x="1349" y="398" on="0"/>
        <pt x="1242" y="227" on="0"/>
        <pt x="1083" y="87" on="0"/>
        <pt x="869" y="-1" on="0"/>
        <pt x="730" y="-1" on="1"/>
        <pt x="654" y="-1" on="0"/>
        <pt x="502" y="39" on="0"/>
        <pt x="362" y="122" on="0"/>
        <pt x="240" y="248" on="0"/>
        <pt x="150" y="421" on="0"/>
        <pt x="98" y="641" on="0"/>
        <pt x="98" y="775" on="1"/>
        <pt x="98" y="977" on="0"/>
        <pt x="168" y="1274" on="0"/>
        <pt x="281" y="1470" on="0"/>
        <pt x="423" y="1566" on="0"/>
        <pt x="495" y="1566" on="1"/>
        <pt x="533" y="1566" on="0"/>
        <pt x="596" y="1543" on="0"/>
        <pt x="642" y="1503" on="0"/>
        <pt x="668" y="1448" on="0"/>
        <pt x="668" y="1417" on="1"/>
        <pt x="668" y="1416" on="1"/>
        <pt x="772" y="1545" on="1"/>
        <pt x="787" y="1500" on="0"/>
        <pt x="831" y="1409" on="0"/>
        <pt x="893" y="1336" on="0"/>
        <pt x="975" y="1291" on="0"/>
        <pt x="1026" y="1291" on="1"/>
        <pt x="1076" y="1291" on="0"/>
        <pt x="1155" y="1329" on="0"/>
        <pt x="1209" y="1396" on="0"/>
        <pt x="1238" y="1487" on="0"/>
        <pt x="1238" y="1541" on="1"/>
        <pt x="1288" y="1541" on="1"/>
        <pt x="1288" y="1477" on="0"/>
        <pt x="1253" y="1367" on="0"/>
        <pt x="1185" y="1287" on="0"/>
        <pt x="1088" y="1241" on="0"/>
        <pt x="1026" y="1241" on="1"/>
        <pt x="971" y="1241" on="0"/>
        <pt x="885" y="1275" on="0"/>
        <pt x="818" y="1332" on="0"/>
        <pt x="769" y="1404" on="0"/>
        <pt x="753" y="1443" on="1"/>
        <pt x="624" y="1283" on="1"/>
        <pt x="622" y="1279" on="0"/>
        <pt x="616" y="1273" on="0"/>
        <pt x="614" y="1270" on="1"/>
        <pt x="595" y="1247" on="0"/>
        <pt x="562" y="1191" on="0"/>
        <pt x="562" y="1149" on="1"/>
        <pt x="562" y="1110" on="0"/>
        <pt x="595" y="1050" on="0"/>
        <pt x="649" y="1000" on="0"/>
        <pt x="719" y="958" on="0"/>
        <pt x="757" y="937" on="1"/>
        <pt x="804" y="911" on="0"/>
        <pt x="897" y="853" on="0"/>
        <pt x="936" y="817" on="1"/>
        <pt x="950" y="859" on="0"/>
        <pt x="985" y="938" on="0"/>
        <pt x="1033" y="1000" on="0"/>
        <pt x="1098" y="1038" on="0"/>
        <pt x="1141" y="1038" on="1"/>
        <pt x="1184" y="1038" on="0"/>
        <pt x="1233" y="1010" on="0"/>
        <pt x="1253" y="993" on="1"/>
        <pt x="1264" y="983" on="0"/>
        <pt x="1288" y="968" on="0"/>
        <pt x="1303" y="968" on="1"/>
        <pt x="1322" y="968" on="0"/>
        <pt x="1346" y="989" on="0"/>
        <pt x="1358" y="1024" on="0"/>
        <pt x="1362" y="1069" on="0"/>
        <pt x="1362" y="1092" on="1"/>
        <pt x="1412" y="1092" on="1"/>
        <pt x="1412" y="1060" on="0"/>
        <pt x="1405" y="997" on="0"/>
        <pt x="1382" y="948" on="0"/>
        <pt x="1339" y="918" on="0"/>
        <pt x="1303" y="918" on="1"/>
        <pt x="1275" y="918" on="0"/>
        <pt x="1238" y="941" on="0"/>
        <pt x="1221" y="955" on="1"/>
        <pt x="1207" y="966" on="0"/>
        <pt x="1169" y="988" on="0"/>
        <pt x="1141" y="988" on="1"/>
        <pt x="1107" y="988" on="0"/>
        <pt x="1056" y="950" on="0"/>
        <pt x="1017" y="889" on="0"/>
        <pt x="987" y="813" on="0"/>
        <pt x="975" y="774" on="1"/>
        <pt x="1002" y="738" on="0"/>
        <pt x="1035" y="647" on="0"/>
        <pt x="1035" y="589" on="1"/>
        <pt x="1035" y="540" on="0"/>
        <pt x="1001" y="440" on="0"/>
        <pt x="933" y="360" on="0"/>
        <pt x="831" y="310" on="0"/>
        <pt x="762" y="310" on="1"/>
        <pt x="706" y="310" on="0"/>
        <pt x="612" y="345" on="0"/>
        <pt x="544" y="409" on="0"/>
        <pt x="506" y="500" on="0"/>
        <pt x="506" y="556" on="1"/>
        <pt x="506" y="608" on="0"/>
        <pt x="537" y="684" on="0"/>
        <pt x="558" y="713" on="1"/>
        <pt x="596" y="684" on="1"/>
        <pt x="579" y="660" on="0"/>
        <pt x="556" y="598" on="0"/>
        <pt x="556" y="556" on="1"/>
        <pt x="556" y="512" on="0"/>
        <pt x="586" y="440" on="0"/>
        <pt x="641" y="388" on="0"/>
        <pt x="718" y="360" on="0"/>
        <pt x="765" y="360" on="1"/>
        <pt x="820" y="360" on="0"/>
        <pt x="903" y="401" on="0"/>
        <pt x="958" y="467" on="0"/>
        <pt x="985" y="549" on="0"/>
        <pt x="985" y="589" on="1"/>
        <pt x="985" y="648" on="0"/>
        <pt x="939" y="739" on="0"/>
        <pt x="867" y="811" on="0"/>
        <pt x="777" y="868" on="0"/>
        <pt x="733" y="893" on="1"/>
        <pt x="692" y="916" on="0"/>
        <pt x="612" y="966" on="0"/>
        <pt x="550" y="1026" on="0"/>
        <pt x="512" y="1100" on="0"/>
        <pt x="512" y="1148" on="1"/>
        <pt x="512" y="1176" on="0"/>
        <pt x="523" y="1221" on="0"/>
        <pt x="541" y="1258" on="0"/>
        <pt x="563" y="1287" on="0"/>
        <pt x="574" y="1301" on="1"/>
        <pt x="583" y="1312" on="0"/>
        <pt x="599" y="1334" on="0"/>
        <pt x="611" y="1361" on="0"/>
        <pt x="618" y="1395" on="0"/>
        <pt x="618" y="1417" on="1"/>
        <pt x="618" y="1438" on="0"/>
        <pt x="600" y="1474" on="0"/>
        <pt x="567" y="1501" on="0"/>
        <pt x="522" y="1516" on="0"/>
        <pt x="495" y="1516" on="1"/>
        <pt x="432" y="1516" on="0"/>
        <pt x="308" y="1426" on="0"/>
        <pt x="209" y="1243" on="0"/>
        <pt x="148" y="964" on="0"/>
        <pt x="148" y="775" on="1"/>
        <pt x="148" y="649" on="0"/>
        <pt x="196" y="443" on="0"/>
        <pt x="279" y="282" on="0"/>
        <pt x="391" y="164" on="0"/>
        <pt x="520" y="87" on="0"/>
        <pt x="661" y="49" on="0"/>
        <pt x="730" y="49" on="1"/>
        <pt x="859" y="49" on="0"/>
        <pt x="1058" y="131" on="0"/>
        <pt x="1206" y="261" on="0"/>
        <pt x="1305" y="422" on="0"/>
        <pt x="1335" y="500" on="1"/>
      </contour>
      <contour>
        <pt x="687" y="1872" on="1"/>
        <pt x="730" y="1931" on="1"/>
        <pt x="1008" y="1728" on="1"/>
        <pt x="981" y="1684" on="1"/>
      </contour>
    </TTGlyph>
    <TTGlyph name="Eth" xMin="86" yMin="0" xMax="1604" yMax="1568">
      <contour>
        <pt x="666" y="794" on="1"/>
        <pt x="647" y="836" on="0"/>
        <pt x="584" y="909" on="0"/>
        <pt x="551" y="944" on="1"/>
        <pt x="527" y="969" on="0"/>
        <pt x="483" y="1018" on="0"/>
        <pt x="449" y="1071" on="0"/>
        <pt x="429" y="1130" on="0"/>
        <pt x="429" y="1164" on="1"/>
        <pt x="790" y="1510" on="1"/>
        <pt x="764" y="1514" on="0"/>
        <pt x="710" y="1518" on="0"/>
        <pt x="683" y="1518" on="1"/>
        <pt x="556" y="1518" on="0"/>
        <pt x="353" y="1455" on="0"/>
        <pt x="212" y="1348" on="0"/>
        <pt x="136" y="1207" on="0"/>
        <pt x="136" y="1129" on="1"/>
        <pt x="136" y="1081" on="0"/>
        <pt x="165" y="990" on="0"/>
        <pt x="224" y="918" on="0"/>
        <pt x="313" y="874" on="0"/>
        <pt x="372" y="874" on="1"/>
        <pt x="372" y="824" on="1"/>
        <pt x="300" y="824" on="0"/>
        <pt x="193" y="878" on="0"/>
        <pt x="121" y="965" on="0"/>
        <pt x="86" y="1073" on="0"/>
        <pt x="86" y="1126" on="1"/>
        <pt x="86" y="1220" on="0"/>
        <pt x="169" y="1381" on="0"/>
        <pt x="323" y="1500" on="0"/>
        <pt x="545" y="1568" on="0"/>
        <pt x="683" y="1568" on="1"/>
        <pt x="813" y="1568" on="0"/>
        <pt x="1051" y="1495" on="0"/>
        <pt x="1256" y="1367" on="0"/>
        <pt x="1422" y="1196" on="0"/>
        <pt x="1540" y="998" on="0"/>
        <pt x="1604" y="785" on="0"/>
        <pt x="1604" y="680" on="1"/>
        <pt x="1604" y="590" on="0"/>
        <pt x="1567" y="420" on="0"/>
        <pt x="1498" y="269" on="0"/>
        <pt x="1400" y="143" on="0"/>
        <pt x="1275" y="52" on="0"/>
        <pt x="1128" y="1" on="0"/>
        <pt x="1045" y="1" on="1"/>
        <pt x="989" y="1" on="0"/>
        <pt x="894" y="36" on="0"/>
        <pt x="810" y="93" on="0"/>
        <pt x="733" y="165" on="0"/>
        <pt x="697" y="203" on="1"/>
        <pt x="664" y="236" on="0"/>
        <pt x="596" y="298" on="0"/>
        <pt x="522" y="346" on="0"/>
        <pt x="441" y="374" on="0"/>
        <pt x="396" y="374" on="1"/>
        <pt x="353" y="374" on="0"/>
        <pt x="270" y="347" on="0"/>
        <pt x="205" y="294" on="0"/>
        <pt x="165" y="218" on="0"/>
        <pt x="165" y="170" on="1"/>
        <pt x="165" y="143" on="0"/>
        <pt x="182" y="99" on="0"/>
        <pt x="212" y="67" on="0"/>
        <pt x="252" y="50" on="0"/>
        <pt x="275" y="50" on="1"/>
        <pt x="297" y="50" on="0"/>
        <pt x="337" y="67" on="0"/>
        <pt x="367" y="96" on="0"/>
        <pt x="384" y="135" on="0"/>
        <pt x="384" y="158" on="1"/>
        <pt x="434" y="158" on="1"/>
        <pt x="434" y="125" on="0"/>
        <pt x="409" y="67" on="0"/>
        <pt x="366" y="25" on="0"/>
        <pt x="308" y="0" on="0"/>
        <pt x="275" y="0" on="1"/>
        <pt x="242" y="0" on="0"/>
        <pt x="184" y="25" on="0"/>
        <pt x="140" y="70" on="0"/>
        <pt x="115" y="132" on="0"/>
        <pt x="115" y="170" on="1"/>
        <pt x="115" y="230" on="0"/>
        <pt x="164" y="325" on="0"/>
        <pt x="243" y="390" on="0"/>
        <pt x="344" y="424" on="0"/>
        <pt x="396" y="424" on="1"/>
        <pt x="450" y="424" on="0"/>
        <pt x="542" y="393" on="0"/>
        <pt x="623" y="342" on="0"/>
        <pt x="697" y="274" on="0"/>
        <pt x="733" y="237" on="1"/>
        <pt x="767" y="202" on="0"/>
        <pt x="836" y="135" on="0"/>
        <pt x="912" y="83" on="0"/>
        <pt x="996" y="51" on="0"/>
        <pt x="1045" y="51" on="1"/>
        <pt x="1158" y="51" on="0"/>
        <pt x="1346" y="154" on="0"/>
        <pt x="1480" y="328" on="0"/>
        <pt x="1554" y="556" on="0"/>
        <pt x="1554" y="680" on="1"/>
        <pt x="1554" y="767" on="0"/>
        <pt x="1507" y="945" on="0"/>
        <pt x="1419" y="1113" on="0"/>
        <pt x="1294" y="1265" on="0"/>
        <pt x="1138" y="1389" on="0"/>
        <pt x="954" y="1478" on="0"/>
        <pt x="852" y="1500" on="1"/>
        <pt x="479" y="1144" on="1"/>
        <pt x="485" y="1102" on="0"/>
        <pt x="549" y="1018" on="0"/>
        <pt x="587" y="978" on="1"/>
        <pt x="626" y="937" on="0"/>
        <pt x="700" y="848" on="0"/>
        <pt x="720" y="794" on="1"/>
        <pt x="1135" y="794" on="1"/>
        <pt x="1135" y="750" on="1"/>
        <pt x="731" y="750" on="1"/>
        <pt x="735" y="731" on="0"/>
        <pt x="735" y="707" on="1"/>
        <pt x="735" y="644" on="0"/>
        <pt x="690" y="559" on="0"/>
        <pt x="622" y="506" on="0"/>
        <pt x="543" y="483" on="0"/>
        <pt x="510" y="483" on="1"/>
        <pt x="468" y="483" on="0"/>
        <pt x="401" y="508" on="0"/>
        <pt x="353" y="550" on="0"/>
        <pt x="328" y="608" on="0"/>
        <pt x="328" y="641" on="1"/>
        <pt x="328" y="674" on="0"/>
        <pt x="353" y="730" on="0"/>
        <pt x="395" y="771" on="0"/>
        <pt x="453" y="794" on="0"/>
        <pt x="486" y="794" on="1"/>
      </contour>
      <contour>
        <pt x="685" y="707" on="1"/>
        <pt x="685" y="727" on="0"/>
        <pt x="680" y="750" on="1"/>
        <pt x="486" y="750" on="1"/>
        <pt x="463" y="750" on="0"/>
        <pt x="424" y="733" on="0"/>
        <pt x="395" y="703" on="0"/>
        <pt x="378" y="663" on="0"/>
        <pt x="378" y="641" on="1"/>
        <pt x="378" y="596" on="0"/>
        <pt x="446" y="533" on="0"/>
        <pt x="507" y="533" on="1"/>
        <pt x="536" y="533" on="0"/>
        <pt x="599" y="551" on="0"/>
        <pt x="651" y="592" on="0"/>
        <pt x="685" y="659" on="0"/>
      </contour>
    </TTGlyph>
    <TTGlyph name="F" xMin="90" yMin="-239" xMax="1387" yMax="1567">
      <contour>
        <pt x="1277" y="969" on="1"/>
        <pt x="1295" y="954" on="0"/>
        <pt x="1323" y="912" on="0"/>
        <pt x="1342" y="869" on="0"/>
        <pt x="1352" y="829" on="0"/>
        <pt x="1352" y="817" on="1"/>
        <pt x="1352" y="787" on="0"/>
        <pt x="1333" y="742" on="0"/>
        <pt x="1302" y="712" on="0"/>
        <pt x="1264" y="698" on="0"/>
        <pt x="1245" y="698" on="1"/>
        <pt x="1215" y="698" on="0"/>
        <pt x="1175" y="723" on="0"/>
        <pt x="1156" y="738" on="1"/>
        <pt x="1139" y="752" on="0"/>
        <pt x="1101" y="776" on="0"/>
        <pt x="1076" y="776" on="1"/>
        <pt x="1041" y="776" on="0"/>
        <pt x="990" y="730" on="0"/>
        <pt x="952" y="655" on="0"/>
        <pt x="925" y="557" on="0"/>
        <pt x="914" y="506" on="1"/>
        <pt x="928" y="491" on="0"/>
        <pt x="959" y="459" on="0"/>
        <pt x="973" y="443" on="1"/>
        <pt x="1001" y="413" on="0"/>
        <pt x="1056" y="349" on="0"/>
        <pt x="1099" y="279" on="0"/>
        <pt x="1126" y="200" on="0"/>
        <pt x="1126" y="155" on="1"/>
        <pt x="1126" y="73" on="0"/>
        <pt x="1070" y="-71" on="0"/>
        <pt x="962" y="-177" on="0"/>
        <pt x="803" y="-239" on="0"/>
        <pt x="700" y="-239" on="1"/>
        <pt x="618" y="-239" on="0"/>
        <pt x="469" y="-186" on="0"/>
        <pt x="356" y="-90" on="0"/>
        <pt x="289" y="44" on="0"/>
        <pt x="289" y="126" on="1"/>
        <pt x="289" y="171" on="0"/>
        <pt x="308" y="243" on="0"/>
        <pt x="339" y="302" on="0"/>
        <pt x="379" y="353" on="0"/>
        <pt x="400" y="378" on="1"/>
        <pt x="419" y="400" on="0"/>
        <pt x="455" y="448" on="0"/>
        <pt x="483" y="501" on="0"/>
        <pt x="500" y="563" on="0"/>
        <pt x="500" y="601" on="1"/>
        <pt x="500" y="650" on="0"/>
        <pt x="469" y="721" on="0"/>
        <pt x="417" y="766" on="0"/>
        <pt x="350" y="787" on="0"/>
        <pt x="313" y="787" on="1"/>
        <pt x="238" y="787" on="0"/>
        <pt x="162" y="726" on="0"/>
        <pt x="162" y="679" on="1"/>
        <pt x="162" y="642" on="0"/>
        <pt x="215" y="591" on="0"/>
        <pt x="252" y="591" on="1"/>
        <pt x="252" y="542" on="1"/>
        <pt x="223" y="542" on="0"/>
        <pt x="172" y="563" on="0"/>
        <pt x="135" y="600" on="0"/>
        <pt x="113" y="650" on="0"/>
        <pt x="113" y="679" on="1"/>
        <pt x="113" y="747" on="0"/>
        <pt x="213" y="835" on="0"/>
        <pt x="313" y="835" on="1"/>
        <pt x="359" y="835" on="0"/>
        <pt x="444" y="809" on="0"/>
        <pt x="510" y="752" on="0"/>
        <pt x="549" y="663" on="0"/>
        <pt x="549" y="601" on="1"/>
        <pt x="549" y="556" on="0"/>
        <pt x="530" y="484" on="0"/>
        <pt x="499" y="424" on="0"/>
        <pt x="460" y="372" on="0"/>
        <pt x="439" y="347" on="1"/>
        <pt x="420" y="325" on="0"/>
        <pt x="383" y="278" on="0"/>
        <pt x="355" y="225" on="0"/>
        <pt x="337" y="163" on="0"/>
        <pt x="337" y="126" on="1"/>
        <pt x="337" y="55" on="0"/>
        <pt x="395" y="-62" on="0"/>
        <pt x="495" y="-145" on="0"/>
        <pt x="626" y="-190" on="0"/>
        <pt x="700" y="-190" on="1"/>
        <pt x="792" y="-190" on="0"/>
        <pt x="933" y="-136" on="0"/>
        <pt x="1029" y="-42" on="0"/>
        <pt x="1078" y="84" on="0"/>
        <pt x="1078" y="155" on="1"/>
        <pt x="1078" y="197" on="0"/>
        <pt x="1053" y="269" on="0"/>
        <pt x="1012" y="334" on="0"/>
        <pt x="959" y="393" on="0"/>
        <pt x="931" y="423" on="1"/>
        <pt x="902" y="453" on="0"/>
        <pt x="846" y="516" on="0"/>
        <pt x="803" y="587" on="0"/>
        <pt x="776" y="667" on="0"/>
        <pt x="776" y="715" on="1"/>
        <pt x="776" y="798" on="0"/>
        <pt x="817" y="923" on="0"/>
        <pt x="889" y="1024" on="0"/>
        <pt x="986" y="1106" on="0"/>
        <pt x="1042" y="1145" on="1"/>
        <pt x="979" y="1162" on="0"/>
        <pt x="859" y="1247" on="0"/>
        <pt x="797" y="1297" on="1"/>
        <pt x="798" y="1297" on="1"/>
        <pt x="757" y="1329" on="0"/>
        <pt x="674" y="1391" on="0"/>
        <pt x="590" y="1439" on="0"/>
        <pt x="505" y="1469" on="0"/>
        <pt x="462" y="1469" on="1"/>
        <pt x="380" y="1469" on="0"/>
        <pt x="258" y="1418" on="0"/>
        <pt x="178" y="1334" on="0"/>
        <pt x="138" y="1226" on="0"/>
        <pt x="138" y="1169" on="1"/>
        <pt x="138" y="1113" on="0"/>
        <pt x="170" y="1025" on="0"/>
        <pt x="227" y="965" on="0"/>
        <pt x="304" y="933" on="0"/>
        <pt x="350" y="933" on="1"/>
        <pt x="411" y="933" on="0"/>
        <pt x="511" y="963" on="0"/>
        <pt x="582" y="1018" on="0"/>
        <pt x="621" y="1094" on="0"/>
        <pt x="621" y="1141" on="1"/>
        <pt x="670" y="1141" on="1"/>
        <pt x="670" y="1083" on="0"/>
        <pt x="624" y="988" on="0"/>
        <pt x="540" y="921" on="0"/>
        <pt x="422" y="884" on="0"/>
        <pt x="350" y="884" on="1"/>
        <pt x="293" y="884" on="0"/>
        <pt x="198" y="922" on="0"/>
        <pt x="129" y="996" on="0"/>
        <pt x="90" y="1101" on="0"/>
        <pt x="90" y="1169" on="1"/>
        <pt x="90" y="1236" on="0"/>
        <pt x="135" y="1361" on="0"/>
        <pt x="227" y="1459" on="0"/>
        <pt x="367" y="1518" on="0"/>
        <pt x="462" y="1518" on="1"/>
        <pt x="508" y="1518" on="0"/>
        <pt x="602" y="1485" on="0"/>
        <pt x="695" y="1433" on="0"/>
        <pt x="785" y="1368" on="0"/>
        <pt x="827" y="1335" on="1"/>
        <pt x="863" y="1308" on="0"/>
        <pt x="936" y="1255" on="0"/>
        <pt x="1008" y="1211" on="0"/>
        <pt x="1076" y="1184" on="0"/>
        <pt x="1108" y="1184" on="1"/>
        <pt x="1149" y="1184" on="0"/>
        <pt x="1231" y="1202" on="0"/>
        <pt x="1297" y="1244" on="0"/>
        <pt x="1338" y="1312" on="0"/>
        <pt x="1338" y="1363" on="1"/>
        <pt x="1338" y="1396" on="0"/>
        <pt x="1316" y="1453" on="0"/>
        <pt x="1275" y="1494" on="0"/>
        <pt x="1219" y="1518" on="0"/>
        <pt x="1185" y="1518" on="1"/>
        <pt x="1159" y="1518" on="0"/>
        <pt x="1113" y="1497" on="0"/>
        <pt x="1079" y="1462" on="0"/>
        <pt x="1059" y="1415" on="0"/>
        <pt x="1059" y="1388" on="1"/>
        <pt x="1010" y="1388" on="1"/>
        <pt x="1010" y="1425" on="0"/>
        <pt x="1037" y="1490" on="0"/>
        <pt x="1084" y="1539" on="0"/>
        <pt x="1148" y="1567" on="0"/>
        <pt x="1185" y="1567" on="1"/>
        <pt x="1231" y="1567" on="0"/>
        <pt x="1305" y="1536" on="0"/>
        <pt x="1358" y="1481" on="0"/>
        <pt x="1387" y="1406" on="0"/>
        <pt x="1387" y="1363" on="1"/>
        <pt x="1387" y="1303" on="0"/>
        <pt x="1338" y="1218" on="0"/>
        <pt x="1260" y="1163" on="0"/>
        <pt x="1161" y="1136" on="0"/>
        <pt x="1112" y="1135" on="1"/>
        <pt x="1052" y="1094" on="0"/>
        <pt x="948" y="1014" on="0"/>
        <pt x="870" y="918" on="0"/>
        <pt x="825" y="797" on="0"/>
        <pt x="825" y="715" on="1"/>
        <pt x="825" y="670" on="0"/>
        <pt x="854" y="591" on="0"/>
        <pt x="876" y="557" on="1"/>
        <pt x="888" y="610" on="0"/>
        <pt x="920" y="707" on="0"/>
        <pt x="967" y="781" on="0"/>
        <pt x="1032" y="825" on="0"/>
        <pt x="1076" y="825" on="1"/>
        <pt x="1114" y="825" on="0"/>
        <pt x="1166" y="794" on="0"/>
        <pt x="1186" y="777" on="1"/>
        <pt x="1200" y="766" on="0"/>
        <pt x="1228" y="747" on="0"/>
        <pt x="1245" y="747" on="1"/>
        <pt x="1265" y="747" on="0"/>
        <pt x="1303" y="782" on="0"/>
        <pt x="1303" y="817" on="1"/>
        <pt x="1303" y="826" on="0"/>
        <pt x="1296" y="856" on="0"/>
        <pt x="1282" y="888" on="0"/>
        <pt x="1261" y="919" on="0"/>
        <pt x="1248" y="930" on="1"/>
      </contour>
    </TTGlyph>
    <TTGlyph name="G" xMin="88" yMin="0" xMax="1610" yMax="1568">
      <contour>
        <pt x="1158" y="1518" on="1"/>
        <pt x="1106" y="1518" on="0"/>
        <pt x="1003" y="1491" on="0"/>
        <pt x="957" y="1465" on="1"/>
        <pt x="1007" y="1411" on="0"/>
        <pt x="1053" y="1263" on="0"/>
        <pt x="1053" y="1180" on="1"/>
        <pt x="1003" y="1180" on="1"/>
        <pt x="1003" y="1256" on="0"/>
        <pt x="961" y="1389" on="0"/>
        <pt x="914" y="1437" on="1"/>
        <pt x="857" y="1395" on="0"/>
        <pt x="787" y="1275" on="0"/>
        <pt x="787" y="1201" on="1"/>
        <pt x="787" y="1153" on="0"/>
        <pt x="812" y="1070" on="0"/>
        <pt x="853" y="995" on="0"/>
        <pt x="906" y="925" on="0"/>
        <pt x="935" y="890" on="1"/>
        <pt x="942" y="881" on="0"/>
        <pt x="956" y="863" on="0"/>
        <pt x="964" y="854" on="1"/>
        <pt x="1582" y="1334" on="1"/>
        <pt x="1610" y="1296" on="1"/>
        <pt x="1364" y="1105" on="1"/>
        <pt x="1400" y="1069" on="0"/>
        <pt x="1472" y="973" on="0"/>
        <pt x="1529" y="852" on="0"/>
        <pt x="1565" y="706" on="0"/>
        <pt x="1565" y="619" on="1"/>
        <pt x="1565" y="490" on="0"/>
        <pt x="1473" y="265" on="0"/>
        <pt x="1296" y="97" on="0"/>
        <pt x="1040" y="0" on="0"/>
        <pt x="876" y="0" on="1"/>
        <pt x="739" y="0" on="0"/>
        <pt x="516" y="61" on="0"/>
        <pt x="341" y="168" on="0"/>
        <pt x="213" y="314" on="0"/>
        <pt x="129" y="484" on="0"/>
        <pt x="88" y="673" on="0"/>
        <pt x="88" y="768" on="1"/>
        <pt x="88" y="876" on="0"/>
        <pt x="131" y="1078" on="0"/>
        <pt x="209" y="1256" on="0"/>
        <pt x="319" y="1403" on="0"/>
        <pt x="455" y="1509" on="0"/>
        <pt x="612" y="1568" on="0"/>
        <pt x="698" y="1568" on="1"/>
        <pt x="768" y="1568" on="0"/>
        <pt x="877" y="1532" on="0"/>
        <pt x="919" y="1500" on="1"/>
        <pt x="973" y="1532" on="0"/>
        <pt x="1095" y="1568" on="0"/>
        <pt x="1158" y="1568" on="1"/>
      </contour>
      <contour>
        <pt x="1515" y="619" on="1"/>
        <pt x="1515" y="701" on="0"/>
        <pt x="1481" y="838" on="0"/>
        <pt x="1427" y="952" on="0"/>
        <pt x="1359" y="1041" on="0"/>
        <pt x="1325" y="1075" on="1"/>
        <pt x="992" y="816" on="1"/>
        <pt x="1017" y="781" on="0"/>
        <pt x="1064" y="704" on="0"/>
        <pt x="1098" y="621" on="0"/>
        <pt x="1119" y="531" on="0"/>
        <pt x="1119" y="482" on="1"/>
        <pt x="1119" y="416" on="0"/>
        <pt x="1081" y="316" on="0"/>
        <pt x="1015" y="249" on="0"/>
        <pt x="927" y="215" on="0"/>
        <pt x="878" y="215" on="1"/>
        <pt x="829" y="215" on="0"/>
        <pt x="755" y="244" on="0"/>
        <pt x="705" y="291" on="0"/>
        <pt x="680" y="353" on="0"/>
        <pt x="680" y="386" on="1"/>
        <pt x="680" y="419" on="0"/>
        <pt x="705" y="477" on="0"/>
        <pt x="747" y="520" on="0"/>
        <pt x="805" y="545" on="0"/>
        <pt x="838" y="545" on="1"/>
        <pt x="838" y="495" on="1"/>
        <pt x="815" y="495" on="0"/>
        <pt x="776" y="478" on="0"/>
        <pt x="747" y="448" on="0"/>
        <pt x="730" y="408" on="0"/>
        <pt x="730" y="386" on="1"/>
        <pt x="730" y="363" on="0"/>
        <pt x="749" y="320" on="0"/>
        <pt x="786" y="286" on="0"/>
        <pt x="841" y="265" on="0"/>
        <pt x="878" y="265" on="1"/>
        <pt x="917" y="265" on="0"/>
        <pt x="986" y="292" on="0"/>
        <pt x="1038" y="346" on="0"/>
        <pt x="1069" y="429" on="0"/>
        <pt x="1069" y="486" on="1"/>
        <pt x="1069" y="538" on="0"/>
        <pt x="1038" y="639" on="0"/>
        <pt x="989" y="733" on="0"/>
        <pt x="928" y="820" on="0"/>
        <pt x="897" y="858" on="1"/>
        <pt x="867" y="895" on="0"/>
        <pt x="809" y="971" on="0"/>
        <pt x="764" y="1055" on="0"/>
        <pt x="737" y="1148" on="0"/>
        <pt x="737" y="1201" on="1"/>
        <pt x="737" y="1285" on="0"/>
        <pt x="813" y="1421" on="0"/>
        <pt x="875" y="1470" on="1"/>
        <pt x="841" y="1493" on="0"/>
        <pt x="754" y="1518" on="0"/>
        <pt x="698" y="1518" on="1"/>
        <pt x="619" y="1518" on="0"/>
        <pt x="475" y="1463" on="0"/>
        <pt x="350" y="1364" on="0"/>
        <pt x="249" y="1226" on="0"/>
        <pt x="177" y="1060" on="0"/>
        <pt x="138" y="870" on="0"/>
        <pt x="138" y="769" on="1"/>
        <pt x="138" y="682" on="0"/>
        <pt x="176" y="509" on="0"/>
        <pt x="255" y="349" on="0"/>
        <pt x="374" y="211" on="0"/>
        <pt x="538" y="108" on="0"/>
        <pt x="747" y="50" on="0"/>
        <pt x="875" y="50" on="1"/>
        <pt x="1027" y="50" on="0"/>
        <pt x="1265" y="141" on="0"/>
        <pt x="1429" y="296" on="0"/>
        <pt x="1515" y="503" on="0"/>
      </contour>
    </TTGlyph>
    <TTGlyph name="H" xMin="35" yMin="-248" xMax="1331" yMax="1567">
      <contour>
        <pt x="1069" y="1519" on="1"/>
        <pt x="1035" y="1510" on="0"/>
        <pt x="983" y="1478" on="0"/>
        <pt x="947" y="1436" on="0"/>
        <pt x="929" y="1387" on="0"/>
        <pt x="929" y="1363" on="1"/>
        <pt x="929" y="1327" on="0"/>
        <pt x="952" y="1259" on="0"/>
        <pt x="991" y="1195" on="0"/>
        <pt x="1042" y="1134" on="0"/>
        <pt x="1069" y="1104" on="1"/>
        <pt x="1112" y="1056" on="0"/>
        <pt x="1205" y="946" on="0"/>
        <pt x="1282" y="816" on="0"/>
        <pt x="1331" y="661" on="0"/>
        <pt x="1331" y="567" on="1"/>
        <pt x="1331" y="446" on="0"/>
        <pt x="1260" y="260" on="0"/>
        <pt x="1136" y="122" on="0"/>
        <pt x="965" y="28" on="0"/>
        <pt x="866" y="-1" on="1"/>
        <pt x="798" y="26" on="1"/>
        <pt x="756" y="43" on="0"/>
        <pt x="684" y="70" on="0"/>
        <pt x="612" y="90" on="0"/>
        <pt x="533" y="100" on="0"/>
        <pt x="485" y="100" on="1"/>
        <pt x="433" y="100" on="0"/>
        <pt x="351" y="73" on="0"/>
        <pt x="295" y="27" on="0"/>
        <pt x="266" y="-33" on="0"/>
        <pt x="266" y="-65" on="1"/>
        <pt x="266" y="-98" on="0"/>
        <pt x="299" y="-147" on="0"/>
        <pt x="351" y="-181" on="0"/>
        <pt x="415" y="-198" on="0"/>
        <pt x="446" y="-198" on="1"/>
        <pt x="446" y="-248" on="1"/>
        <pt x="407" y="-248" on="0"/>
        <pt x="325" y="-224" on="0"/>
        <pt x="258" y="-178" on="0"/>
        <pt x="216" y="-110" on="0"/>
        <pt x="216" y="-65" on="1"/>
        <pt x="216" y="-23" on="0"/>
        <pt x="252" y="55" on="0"/>
        <pt x="321" y="114" on="0"/>
        <pt x="421" y="150" on="0"/>
        <pt x="485" y="150" on="1"/>
        <pt x="536" y="150" on="0"/>
        <pt x="619" y="139" on="0"/>
        <pt x="696" y="118" on="0"/>
        <pt x="772" y="90" on="0"/>
        <pt x="816" y="72" on="1"/>
        <pt x="867" y="51" on="1"/>
        <pt x="955" y="78" on="0"/>
        <pt x="1107" y="164" on="0"/>
        <pt x="1218" y="289" on="0"/>
        <pt x="1281" y="458" on="0"/>
        <pt x="1281" y="567" on="1"/>
        <pt x="1281" y="641" on="0"/>
        <pt x="1244" y="775" on="0"/>
        <pt x="1184" y="892" on="0"/>
        <pt x="1110" y="990" on="0"/>
        <pt x="1073" y="1029" on="1"/>
        <pt x="687" y="733" on="1"/>
        <pt x="706" y="696" on="0"/>
        <pt x="728" y="612" on="0"/>
        <pt x="728" y="562" on="1"/>
        <pt x="728" y="474" on="0"/>
        <pt x="661" y="349" on="0"/>
        <pt x="557" y="270" on="0"/>
        <pt x="430" y="233" on="0"/>
        <pt x="369" y="233" on="1"/>
        <pt x="273" y="233" on="0"/>
        <pt x="145" y="283" on="0"/>
        <pt x="67" y="374" on="0"/>
        <pt x="35" y="500" on="0"/>
        <pt x="35" y="576" on="1"/>
        <pt x="85" y="576" on="1"/>
        <pt x="85" y="511" on="0"/>
        <pt x="112" y="403" on="0"/>
        <pt x="178" y="326" on="0"/>
        <pt x="287" y="283" on="0"/>
        <pt x="369" y="283" on="1"/>
        <pt x="421" y="283" on="0"/>
        <pt x="531" y="314" on="0"/>
        <pt x="621" y="382" on="0"/>
        <pt x="678" y="487" on="0"/>
        <pt x="678" y="562" on="1"/>
        <pt x="678" y="627" on="0"/>
        <pt x="637" y="729" on="0"/>
        <pt x="570" y="814" on="0"/>
        <pt x="485" y="885" on="0"/>
        <pt x="442" y="919" on="1"/>
        <pt x="398" y="953" on="0"/>
        <pt x="317" y="1023" on="0"/>
        <pt x="253" y="1104" on="0"/>
        <pt x="215" y="1203" on="0"/>
        <pt x="215" y="1266" on="1"/>
        <pt x="215" y="1312" on="0"/>
        <pt x="240" y="1397" on="0"/>
        <pt x="294" y="1473" on="0"/>
        <pt x="380" y="1540" on="0"/>
        <pt x="442" y="1567" on="1"/>
        <pt x="462" y="1527" on="1"/>
        <pt x="415" y="1504" on="0"/>
        <pt x="342" y="1452" on="0"/>
        <pt x="291" y="1389" on="0"/>
        <pt x="265" y="1313" on="0"/>
        <pt x="265" y="1266" on="1"/>
        <pt x="265" y="1213" on="0"/>
        <pt x="301" y="1127" on="0"/>
        <pt x="359" y="1053" on="0"/>
        <pt x="433" y="989" on="0"/>
        <pt x="472" y="959" on="1"/>
        <pt x="523" y="918" on="0"/>
        <pt x="623" y="831" on="0"/>
        <pt x="661" y="776" on="1"/>
        <pt x="1037" y="1065" on="1"/>
        <pt x="1035" y="1068" on="1"/>
        <pt x="1003" y="1098" on="0"/>
        <pt x="946" y="1165" on="0"/>
        <pt x="904" y="1238" on="0"/>
        <pt x="879" y="1318" on="0"/>
        <pt x="879" y="1363" on="1"/>
        <pt x="879" y="1394" on="0"/>
        <pt x="903" y="1457" on="0"/>
        <pt x="948" y="1513" on="0"/>
        <pt x="1014" y="1556" on="0"/>
        <pt x="1057" y="1567" on="1"/>
      </contour>
    </TTGlyph>
    <TTGlyph name="I" xMin="93" yMin="-41" xMax="1496" yMax="1567">
      <contour>
        <pt x="1157" y="693" on="1"/>
        <pt x="1230" y="693" on="0"/>
        <pt x="1355" y="649" on="0"/>
        <pt x="1445" y="562" on="0"/>
        <pt x="1496" y="435" on="0"/>
        <pt x="1496" y="351" on="1"/>
        <pt x="1496" y="292" on="0"/>
        <pt x="1445" y="167" on="0"/>
        <pt x="1351" y="64" on="0"/>
        <pt x="1218" y="-3" on="0"/>
        <pt x="1135" y="-3" on="1"/>
        <pt x="1083" y="-3" on="0"/>
        <pt x="988" y="26" on="0"/>
        <pt x="898" y="74" on="0"/>
        <pt x="813" y="135" on="0"/>
        <pt x="770" y="168" on="1"/>
        <pt x="727" y="200" on="0"/>
        <pt x="640" y="263" on="0"/>
        <pt x="547" y="312" on="0"/>
        <pt x="446" y="343" on="0"/>
        <pt x="391" y="343" on="1"/>
        <pt x="322" y="343" on="0"/>
        <pt x="227" y="309" on="0"/>
        <pt x="169" y="253" on="0"/>
        <pt x="143" y="182" on="0"/>
        <pt x="143" y="145" on="1"/>
        <pt x="143" y="113" on="0"/>
        <pt x="163" y="63" on="0"/>
        <pt x="197" y="28" on="0"/>
        <pt x="240" y="9" on="0"/>
        <pt x="264" y="9" on="1"/>
        <pt x="264" y="-41" on="1"/>
        <pt x="231" y="-41" on="0"/>
        <pt x="169" y="-16" on="0"/>
        <pt x="121" y="32" on="0"/>
        <pt x="93" y="101" on="0"/>
        <pt x="93" y="145" on="1"/>
        <pt x="93" y="191" on="0"/>
        <pt x="124" y="280" on="0"/>
        <pt x="194" y="350" on="0"/>
        <pt x="308" y="393" on="0"/>
        <pt x="391" y="393" on="1"/>
        <pt x="451" y="393" on="0"/>
        <pt x="561" y="360" on="0"/>
        <pt x="663" y="308" on="0"/>
        <pt x="756" y="241" on="0"/>
        <pt x="800" y="208" on="1"/>
        <pt x="829" y="185" on="0"/>
        <pt x="893" y="140" on="0"/>
        <pt x="926" y="120" on="1"/>
        <pt x="967" y="157" on="0"/>
        <pt x="1013" y="257" on="0"/>
        <pt x="1013" y="316" on="1"/>
        <pt x="1013" y="378" on="0"/>
        <pt x="982" y="487" on="0"/>
        <pt x="931" y="584" on="0"/>
        <pt x="868" y="673" on="0"/>
        <pt x="836" y="715" on="1"/>
        <pt x="808" y="752" on="0"/>
        <pt x="756" y="825" on="0"/>
        <pt x="716" y="900" on="0"/>
        <pt x="692" y="981" on="0"/>
        <pt x="692" y="1026" on="1"/>
        <pt x="936" y="1217" on="1"/>
        <pt x="903" y="1237" on="0"/>
        <pt x="836" y="1297" on="0"/>
        <pt x="765" y="1363" on="0"/>
        <pt x="688" y="1430" on="0"/>
        <pt x="603" y="1483" on="0"/>
        <pt x="508" y="1516" on="0"/>
        <pt x="454" y="1516" on="1"/>
        <pt x="382" y="1516" on="0"/>
        <pt x="267" y="1459" on="0"/>
        <pt x="186" y="1370" on="0"/>
        <pt x="143" y="1262" on="0"/>
        <pt x="143" y="1212" on="1"/>
        <pt x="143" y="1140" on="0"/>
        <pt x="186" y="1031" on="0"/>
        <pt x="263" y="958" on="0"/>
        <pt x="369" y="920" on="0"/>
        <pt x="432" y="920" on="1"/>
        <pt x="432" y="870" on="1"/>
        <pt x="358" y="870" on="0"/>
        <pt x="234" y="914" on="0"/>
        <pt x="144" y="1001" on="0"/>
        <pt x="93" y="1128" on="0"/>
        <pt x="93" y="1212" on="1"/>
        <pt x="93" y="1270" on="0"/>
        <pt x="144" y="1396" on="0"/>
        <pt x="238" y="1499" on="0"/>
        <pt x="371" y="1566" on="0"/>
        <pt x="454" y="1566" on="1"/>
        <pt x="533" y="1566" on="0"/>
        <pt x="660" y="1509" on="0"/>
        <pt x="771" y="1424" on="0"/>
        <pt x="875" y="1325" on="0"/>
        <pt x="988" y="1240" on="0"/>
        <pt x="1117" y="1183" on="0"/>
        <pt x="1198" y="1183" on="1"/>
        <pt x="1267" y="1183" on="0"/>
        <pt x="1362" y="1217" on="0"/>
        <pt x="1420" y="1273" on="0"/>
        <pt x="1446" y="1344" on="0"/>
        <pt x="1446" y="1381" on="1"/>
        <pt x="1446" y="1413" on="0"/>
        <pt x="1426" y="1463" on="0"/>
        <pt x="1392" y="1498" on="0"/>
        <pt x="1349" y="1517" on="0"/>
        <pt x="1325" y="1517" on="1"/>
        <pt x="1325" y="1567" on="1"/>
        <pt x="1358" y="1567" on="0"/>
        <pt x="1420" y="1542" on="0"/>
        <pt x="1468" y="1494" on="0"/>
        <pt x="1496" y="1425" on="0"/>
        <pt x="1496" y="1381" on="1"/>
        <pt x="1496" y="1335" on="0"/>
        <pt x="1465" y="1246" on="0"/>
        <pt x="1395" y="1176" on="0"/>
        <pt x="1281" y="1133" on="0"/>
        <pt x="1198" y="1133" on="1"/>
        <pt x="1138" y="1133" on="0"/>
        <pt x="1034" y="1165" on="0"/>
        <pt x="984" y="1190" on="1"/>
        <pt x="742" y="1002" on="1"/>
        <pt x="744" y="970" on="0"/>
        <pt x="769" y="906" on="0"/>
        <pt x="806" y="841" on="0"/>
        <pt x="853" y="776" on="0"/>
        <pt x="876" y="745" on="1"/>
        <pt x="909" y="701" on="0"/>
        <pt x="976" y="607" on="0"/>
        <pt x="1029" y="502" on="0"/>
        <pt x="1063" y="383" on="0"/>
        <pt x="1063" y="316" on="1"/>
        <pt x="1063" y="250" on="0"/>
        <pt x="1014" y="137" on="0"/>
        <pt x="972" y="94" on="1"/>
        <pt x="1013" y="73" on="0"/>
        <pt x="1094" y="47" on="0"/>
        <pt x="1135" y="47" on="1"/>
        <pt x="1207" y="47" on="0"/>
        <pt x="1322" y="104" on="0"/>
        <pt x="1403" y="193" on="0"/>
        <pt x="1446" y="301" on="0"/>
        <pt x="1446" y="351" on="1"/>
        <pt x="1446" y="423" on="0"/>
        <pt x="1403" y="532" on="0"/>
        <pt x="1326" y="605" on="0"/>
        <pt x="1220" y="643" on="0"/>
        <pt x="1157" y="643" on="1"/>
      </contour>
    </TTGlyph>
    <TTGlyph name="Iacute" xMin="93" yMin="-41" xMax="1496" yMax="1931">
      <contour>
        <pt x="1157" y="693" on="1"/>
        <pt x="1230" y="693" on="0"/>
        <pt x="1355" y="649" on="0"/>
        <pt x="1445" y="562" on="0"/>
        <pt x="1496" y="435" on="0"/>
        <pt x="1496" y="351" on="1"/>
        <pt x="1496" y="292" on="0"/>
        <pt x="1445" y="167" on="0"/>
        <pt x="1351" y="64" on="0"/>
        <pt x="1218" y="-3" on="0"/>
        <pt x="1135" y="-3" on="1"/>
        <pt x="1083" y="-3" on="0"/>
        <pt x="988" y="26" on="0"/>
        <pt x="898" y="74" on="0"/>
        <pt x="813" y="135" on="0"/>
        <pt x="770" y="168" on="1"/>
        <pt x="727" y="200" on="0"/>
        <pt x="640" y="263" on="0"/>
        <pt x="547" y="312" on="0"/>
        <pt x="446" y="343" on="0"/>
        <pt x="391" y="343" on="1"/>
        <pt x="322" y="343" on="0"/>
        <pt x="227" y="309" on="0"/>
        <pt x="169" y="253" on="0"/>
        <pt x="143" y="182" on="0"/>
        <pt x="143" y="145" on="1"/>
        <pt x="143" y="113" on="0"/>
        <pt x="163" y="63" on="0"/>
        <pt x="197" y="28" on="0"/>
        <pt x="240" y="9" on="0"/>
        <pt x="264" y="9" on="1"/>
        <pt x="264" y="-41" on="1"/>
        <pt x="231" y="-41" on="0"/>
        <pt x="169" y="-16" on="0"/>
        <pt x="121" y="32" on="0"/>
        <pt x="93" y="101" on="0"/>
        <pt x="93" y="145" on="1"/>
        <pt x="93" y="191" on="0"/>
        <pt x="124" y="280" on="0"/>
        <pt x="194" y="350" on="0"/>
        <pt x="308" y="393" on="0"/>
        <pt x="391" y="393" on="1"/>
        <pt x="451" y="393" on="0"/>
        <pt x="561" y="360" on="0"/>
        <pt x="663" y="308" on="0"/>
        <pt x="756" y="241" on="0"/>
        <pt x="800" y="208" on="1"/>
        <pt x="829" y="185" on="0"/>
        <pt x="893" y="140" on="0"/>
        <pt x="926" y="120" on="1"/>
        <pt x="967" y="157" on="0"/>
        <pt x="1013" y="257" on="0"/>
        <pt x="1013" y="316" on="1"/>
        <pt x="1013" y="378" on="0"/>
        <pt x="982" y="487" on="0"/>
        <pt x="931" y="584" on="0"/>
        <pt x="868" y="673" on="0"/>
        <pt x="836" y="715" on="1"/>
        <pt x="808" y="752" on="0"/>
        <pt x="756" y="825" on="0"/>
        <pt x="716" y="900" on="0"/>
        <pt x="692" y="981" on="0"/>
        <pt x="692" y="1026" on="1"/>
        <pt x="936" y="1217" on="1"/>
        <pt x="903" y="1237" on="0"/>
        <pt x="836" y="1297" on="0"/>
        <pt x="765" y="1363" on="0"/>
        <pt x="688" y="1430" on="0"/>
        <pt x="603" y="1483" on="0"/>
        <pt x="508" y="1516" on="0"/>
        <pt x="454" y="1516" on="1"/>
        <pt x="382" y="1516" on="0"/>
        <pt x="267" y="1459" on="0"/>
        <pt x="186" y="1370" on="0"/>
        <pt x="143" y="1262" on="0"/>
        <pt x="143" y="1212" on="1"/>
        <pt x="143" y="1140" on="0"/>
        <pt x="186" y="1031" on="0"/>
        <pt x="263" y="958" on="0"/>
        <pt x="369" y="920" on="0"/>
        <pt x="432" y="920" on="1"/>
        <pt x="432" y="870" on="1"/>
        <pt x="358" y="870" on="0"/>
        <pt x="234" y="914" on="0"/>
        <pt x="144" y="1001" on="0"/>
        <pt x="93" y="1128" on="0"/>
        <pt x="93" y="1212" on="1"/>
        <pt x="93" y="1270" on="0"/>
        <pt x="144" y="1396" on="0"/>
        <pt x="238" y="1499" on="0"/>
        <pt x="371" y="1566" on="0"/>
        <pt x="454" y="1566" on="1"/>
        <pt x="533" y="1566" on="0"/>
        <pt x="660" y="1509" on="0"/>
        <pt x="771" y="1424" on="0"/>
        <pt x="875" y="1325" on="0"/>
        <pt x="988" y="1240" on="0"/>
        <pt x="1117" y="1183" on="0"/>
        <pt x="1198" y="1183" on="1"/>
        <pt x="1267" y="1183" on="0"/>
        <pt x="1362" y="1217" on="0"/>
        <pt x="1420" y="1273" on="0"/>
        <pt x="1446" y="1344" on="0"/>
        <pt x="1446" y="1381" on="1"/>
        <pt x="1446" y="1413" on="0"/>
        <pt x="1426" y="1463" on="0"/>
        <pt x="1392" y="1498" on="0"/>
        <pt x="1349" y="1517" on="0"/>
        <pt x="1325" y="1517" on="1"/>
        <pt x="1325" y="1567" on="1"/>
        <pt x="1358" y="1567" on="0"/>
        <pt x="1420" y="1542" on="0"/>
        <pt x="1468" y="1494" on="0"/>
        <pt x="1496" y="1425" on="0"/>
        <pt x="1496" y="1381" on="1"/>
        <pt x="1496" y="1335" on="0"/>
        <pt x="1465" y="1246" on="0"/>
        <pt x="1395" y="1176" on="0"/>
        <pt x="1281" y="1133" on="0"/>
        <pt x="1198" y="1133" on="1"/>
        <pt x="1138" y="1133" on="0"/>
        <pt x="1034" y="1165" on="0"/>
        <pt x="984" y="1190" on="1"/>
        <pt x="742" y="1002" on="1"/>
        <pt x="744" y="970" on="0"/>
        <pt x="769" y="906" on="0"/>
        <pt x="806" y="841" on="0"/>
        <pt x="853" y="776" on="0"/>
        <pt x="876" y="745" on="1"/>
        <pt x="909" y="701" on="0"/>
        <pt x="976" y="607" on="0"/>
        <pt x="1029" y="502" on="0"/>
        <pt x="1063" y="383" on="0"/>
        <pt x="1063" y="316" on="1"/>
        <pt x="1063" y="250" on="0"/>
        <pt x="1014" y="137" on="0"/>
        <pt x="972" y="94" on="1"/>
        <pt x="1013" y="73" on="0"/>
        <pt x="1094" y="47" on="0"/>
        <pt x="1135" y="47" on="1"/>
        <pt x="1207" y="47" on="0"/>
        <pt x="1322" y="104" on="0"/>
        <pt x="1403" y="193" on="0"/>
        <pt x="1446" y="301" on="0"/>
        <pt x="1446" y="351" on="1"/>
        <pt x="1446" y="423" on="0"/>
        <pt x="1403" y="532" on="0"/>
        <pt x="1326" y="605" on="0"/>
        <pt x="1220" y="643" on="0"/>
        <pt x="1157" y="643" on="1"/>
      </contour>
      <contour>
        <pt x="1019" y="1684" on="1"/>
        <pt x="992" y="1728" on="1"/>
        <pt x="1270" y="1931" on="1"/>
        <pt x="1313" y="1872" on="1"/>
      </contour>
    </TTGlyph>
    <TTGlyph name="Icircumflex" xMin="93" yMin="-41" xMax="1496" yMax="1934">
      <contour>
        <pt x="1157" y="693" on="1"/>
        <pt x="1230" y="693" on="0"/>
        <pt x="1355" y="649" on="0"/>
        <pt x="1445" y="562" on="0"/>
        <pt x="1496" y="435" on="0"/>
        <pt x="1496" y="351" on="1"/>
        <pt x="1496" y="292" on="0"/>
        <pt x="1445" y="167" on="0"/>
        <pt x="1351" y="64" on="0"/>
        <pt x="1218" y="-3" on="0"/>
        <pt x="1135" y="-3" on="1"/>
        <pt x="1083" y="-3" on="0"/>
        <pt x="988" y="26" on="0"/>
        <pt x="898" y="74" on="0"/>
        <pt x="813" y="135" on="0"/>
        <pt x="770" y="168" on="1"/>
        <pt x="727" y="200" on="0"/>
        <pt x="640" y="263" on="0"/>
        <pt x="547" y="312" on="0"/>
        <pt x="446" y="343" on="0"/>
        <pt x="391" y="343" on="1"/>
        <pt x="322" y="343" on="0"/>
        <pt x="227" y="309" on="0"/>
        <pt x="169" y="253" on="0"/>
        <pt x="143" y="182" on="0"/>
        <pt x="143" y="145" on="1"/>
        <pt x="143" y="113" on="0"/>
        <pt x="163" y="63" on="0"/>
        <pt x="197" y="28" on="0"/>
        <pt x="240" y="9" on="0"/>
        <pt x="264" y="9" on="1"/>
        <pt x="264" y="-41" on="1"/>
        <pt x="231" y="-41" on="0"/>
        <pt x="169" y="-16" on="0"/>
        <pt x="121" y="32" on="0"/>
        <pt x="93" y="101" on="0"/>
        <pt x="93" y="145" on="1"/>
        <pt x="93" y="191" on="0"/>
        <pt x="124" y="280" on="0"/>
        <pt x="194" y="350" on="0"/>
        <pt x="308" y="393" on="0"/>
        <pt x="391" y="393" on="1"/>
        <pt x="451" y="393" on="0"/>
        <pt x="561" y="360" on="0"/>
        <pt x="663" y="308" on="0"/>
        <pt x="756" y="241" on="0"/>
        <pt x="800" y="208" on="1"/>
        <pt x="829" y="185" on="0"/>
        <pt x="893" y="140" on="0"/>
        <pt x="926" y="120" on="1"/>
        <pt x="967" y="157" on="0"/>
        <pt x="1013" y="257" on="0"/>
        <pt x="1013" y="316" on="1"/>
        <pt x="1013" y="378" on="0"/>
        <pt x="982" y="487" on="0"/>
        <pt x="931" y="584" on="0"/>
        <pt x="868" y="673" on="0"/>
        <pt x="836" y="715" on="1"/>
        <pt x="808" y="752" on="0"/>
        <pt x="756" y="825" on="0"/>
        <pt x="716" y="900" on="0"/>
        <pt x="692" y="981" on="0"/>
        <pt x="692" y="1026" on="1"/>
        <pt x="936" y="1217" on="1"/>
        <pt x="903" y="1237" on="0"/>
        <pt x="836" y="1297" on="0"/>
        <pt x="765" y="1363" on="0"/>
        <pt x="688" y="1430" on="0"/>
        <pt x="603" y="1483" on="0"/>
        <pt x="508" y="1516" on="0"/>
        <pt x="454" y="1516" on="1"/>
        <pt x="382" y="1516" on="0"/>
        <pt x="267" y="1459" on="0"/>
        <pt x="186" y="1370" on="0"/>
        <pt x="143" y="1262" on="0"/>
        <pt x="143" y="1212" on="1"/>
        <pt x="143" y="1140" on="0"/>
        <pt x="186" y="1031" on="0"/>
        <pt x="263" y="958" on="0"/>
        <pt x="369" y="920" on="0"/>
        <pt x="432" y="920" on="1"/>
        <pt x="432" y="870" on="1"/>
        <pt x="358" y="870" on="0"/>
        <pt x="234" y="914" on="0"/>
        <pt x="144" y="1001" on="0"/>
        <pt x="93" y="1128" on="0"/>
        <pt x="93" y="1212" on="1"/>
        <pt x="93" y="1270" on="0"/>
        <pt x="144" y="1396" on="0"/>
        <pt x="238" y="1499" on="0"/>
        <pt x="371" y="1566" on="0"/>
        <pt x="454" y="1566" on="1"/>
        <pt x="533" y="1566" on="0"/>
        <pt x="660" y="1509" on="0"/>
        <pt x="771" y="1424" on="0"/>
        <pt x="875" y="1325" on="0"/>
        <pt x="988" y="1240" on="0"/>
        <pt x="1117" y="1183" on="0"/>
        <pt x="1198" y="1183" on="1"/>
        <pt x="1267" y="1183" on="0"/>
        <pt x="1362" y="1217" on="0"/>
        <pt x="1420" y="1273" on="0"/>
        <pt x="1446" y="1344" on="0"/>
        <pt x="1446" y="1381" on="1"/>
        <pt x="1446" y="1413" on="0"/>
        <pt x="1426" y="1463" on="0"/>
        <pt x="1392" y="1498" on="0"/>
        <pt x="1349" y="1517" on="0"/>
        <pt x="1325" y="1517" on="1"/>
        <pt x="1325" y="1567" on="1"/>
        <pt x="1358" y="1567" on="0"/>
        <pt x="1420" y="1542" on="0"/>
        <pt x="1468" y="1494" on="0"/>
        <pt x="1496" y="1425" on="0"/>
        <pt x="1496" y="1381" on="1"/>
        <pt x="1496" y="1335" on="0"/>
        <pt x="1465" y="1246" on="0"/>
        <pt x="1395" y="1176" on="0"/>
        <pt x="1281" y="1133" on="0"/>
        <pt x="1198" y="1133" on="1"/>
        <pt x="1138" y="1133" on="0"/>
        <pt x="1034" y="1165" on="0"/>
        <pt x="984" y="1190" on="1"/>
        <pt x="742" y="1002" on="1"/>
        <pt x="744" y="970" on="0"/>
        <pt x="769" y="906" on="0"/>
        <pt x="806" y="841" on="0"/>
        <pt x="853" y="776" on="0"/>
        <pt x="876" y="745" on="1"/>
        <pt x="909" y="701" on="0"/>
        <pt x="976" y="607" on="0"/>
        <pt x="1029" y="502" on="0"/>
        <pt x="1063" y="383" on="0"/>
        <pt x="1063" y="316" on="1"/>
        <pt x="1063" y="250" on="0"/>
        <pt x="1014" y="137" on="0"/>
        <pt x="972" y="94" on="1"/>
        <pt x="1013" y="73" on="0"/>
        <pt x="1094" y="47" on="0"/>
        <pt x="1135" y="47" on="1"/>
        <pt x="1207" y="47" on="0"/>
        <pt x="1322" y="104" on="0"/>
        <pt x="1403" y="193" on="0"/>
        <pt x="1446" y="301" on="0"/>
        <pt x="1446" y="351" on="1"/>
        <pt x="1446" y="423" on="0"/>
        <pt x="1403" y="532" on="0"/>
        <pt x="1326" y="605" on="0"/>
        <pt x="1220" y="643" on="0"/>
        <pt x="1157" y="643" on="1"/>
      </contour>
      <contour>
        <pt x="673" y="1726" on="1"/>
        <pt x="939" y="1934" on="1"/>
        <pt x="1271" y="1727" on="1"/>
        <pt x="1245" y="1685" on="1"/>
        <pt x="943" y="1873" on="1"/>
        <pt x="934" y="1865" on="0"/>
        <pt x="903" y="1842" on="0"/>
        <pt x="866" y="1813" on="0"/>
        <pt x="825" y="1781" on="0"/>
        <pt x="805" y="1765" on="1"/>
        <pt x="757" y="1728" on="0"/>
        <pt x="703" y="1686" on="1"/>
      </contour>
    </TTGlyph>
    <TTGlyph name="Idieresis" xMin="93" yMin="-41" xMax="1496" yMax="1876">
      <contour>
        <pt x="1157" y="693" on="1"/>
        <pt x="1230" y="693" on="0"/>
        <pt x="1355" y="649" on="0"/>
        <pt x="1445" y="562" on="0"/>
        <pt x="1496" y="435" on="0"/>
        <pt x="1496" y="351" on="1"/>
        <pt x="1496" y="292" on="0"/>
        <pt x="1445" y="167" on="0"/>
        <pt x="1351" y="64" on="0"/>
        <pt x="1218" y="-3" on="0"/>
        <pt x="1135" y="-3" on="1"/>
        <pt x="1083" y="-3" on="0"/>
        <pt x="988" y="26" on="0"/>
        <pt x="898" y="74" on="0"/>
        <pt x="813" y="135" on="0"/>
        <pt x="770" y="168" on="1"/>
        <pt x="727" y="200" on="0"/>
        <pt x="640" y="263" on="0"/>
        <pt x="547" y="312" on="0"/>
        <pt x="446" y="343" on="0"/>
        <pt x="391" y="343" on="1"/>
        <pt x="322" y="343" on="0"/>
        <pt x="227" y="309" on="0"/>
        <pt x="169" y="253" on="0"/>
        <pt x="143" y="182" on="0"/>
        <pt x="143" y="145" on="1"/>
        <pt x="143" y="113" on="0"/>
        <pt x="163" y="63" on="0"/>
        <pt x="197" y="28" on="0"/>
        <pt x="240" y="9" on="0"/>
        <pt x="264" y="9" on="1"/>
        <pt x="264" y="-41" on="1"/>
        <pt x="231" y="-41" on="0"/>
        <pt x="169" y="-16" on="0"/>
        <pt x="121" y="32" on="0"/>
        <pt x="93" y="101" on="0"/>
        <pt x="93" y="145" on="1"/>
        <pt x="93" y="191" on="0"/>
        <pt x="124" y="280" on="0"/>
        <pt x="194" y="350" on="0"/>
        <pt x="308" y="393" on="0"/>
        <pt x="391" y="393" on="1"/>
        <pt x="451" y="393" on="0"/>
        <pt x="561" y="360" on="0"/>
        <pt x="663" y="308" on="0"/>
        <pt x="756" y="241" on="0"/>
        <pt x="800" y="208" on="1"/>
        <pt x="829" y="185" on="0"/>
        <pt x="893" y="140" on="0"/>
        <pt x="926" y="120" on="1"/>
        <pt x="967" y="157" on="0"/>
        <pt x="1013" y="257" on="0"/>
        <pt x="1013" y="316" on="1"/>
        <pt x="1013" y="378" on="0"/>
        <pt x="982" y="487" on="0"/>
        <pt x="931" y="584" on="0"/>
        <pt x="868" y="673" on="0"/>
        <pt x="836" y="715" on="1"/>
        <pt x="808" y="752" on="0"/>
        <pt x="756" y="825" on="0"/>
        <pt x="716" y="900" on="0"/>
        <pt x="692" y="981" on="0"/>
        <pt x="692" y="1026" on="1"/>
        <pt x="936" y="1217" on="1"/>
        <pt x="903" y="1237" on="0"/>
        <pt x="836" y="1297" on="0"/>
        <pt x="765" y="1363" on="0"/>
        <pt x="688" y="1430" on="0"/>
        <pt x="603" y="1483" on="0"/>
        <pt x="508" y="1516" on="0"/>
        <pt x="454" y="1516" on="1"/>
        <pt x="382" y="1516" on="0"/>
        <pt x="267" y="1459" on="0"/>
        <pt x="186" y="1370" on="0"/>
        <pt x="143" y="1262" on="0"/>
        <pt x="143" y="1212" on="1"/>
        <pt x="143" y="1140" on="0"/>
        <pt x="186" y="1031" on="0"/>
        <pt x="263" y="958" on="0"/>
        <pt x="369" y="920" on="0"/>
        <pt x="432" y="920" on="1"/>
        <pt x="432" y="870" on="1"/>
        <pt x="358" y="870" on="0"/>
        <pt x="234" y="914" on="0"/>
        <pt x="144" y="1001" on="0"/>
        <pt x="93" y="1128" on="0"/>
        <pt x="93" y="1212" on="1"/>
        <pt x="93" y="1270" on="0"/>
        <pt x="144" y="1396" on="0"/>
        <pt x="238" y="1499" on="0"/>
        <pt x="371" y="1566" on="0"/>
        <pt x="454" y="1566" on="1"/>
        <pt x="533" y="1566" on="0"/>
        <pt x="660" y="1509" on="0"/>
        <pt x="771" y="1424" on="0"/>
        <pt x="875" y="1325" on="0"/>
        <pt x="988" y="1240" on="0"/>
        <pt x="1117" y="1183" on="0"/>
        <pt x="1198" y="1183" on="1"/>
        <pt x="1267" y="1183" on="0"/>
        <pt x="1362" y="1217" on="0"/>
        <pt x="1420" y="1273" on="0"/>
        <pt x="1446" y="1344" on="0"/>
        <pt x="1446" y="1381" on="1"/>
        <pt x="1446" y="1413" on="0"/>
        <pt x="1426" y="1463" on="0"/>
        <pt x="1392" y="1498" on="0"/>
        <pt x="1349" y="1517" on="0"/>
        <pt x="1325" y="1517" on="1"/>
        <pt x="1325" y="1567" on="1"/>
        <pt x="1358" y="1567" on="0"/>
        <pt x="1420" y="1542" on="0"/>
        <pt x="1468" y="1494" on="0"/>
        <pt x="1496" y="1425" on="0"/>
        <pt x="1496" y="1381" on="1"/>
        <pt x="1496" y="1335" on="0"/>
        <pt x="1465" y="1246" on="0"/>
        <pt x="1395" y="1176" on="0"/>
        <pt x="1281" y="1133" on="0"/>
        <pt x="1198" y="1133" on="1"/>
        <pt x="1138" y="1133" on="0"/>
        <pt x="1034" y="1165" on="0"/>
        <pt x="984" y="1190" on="1"/>
        <pt x="742" y="1002" on="1"/>
        <pt x="744" y="970" on="0"/>
        <pt x="769" y="906" on="0"/>
        <pt x="806" y="841" on="0"/>
        <pt x="853" y="776" on="0"/>
        <pt x="876" y="745" on="1"/>
        <pt x="909" y="701" on="0"/>
        <pt x="976" y="607" on="0"/>
        <pt x="1029" y="502" on="0"/>
        <pt x="1063" y="383" on="0"/>
        <pt x="1063" y="316" on="1"/>
        <pt x="1063" y="250" on="0"/>
        <pt x="1014" y="137" on="0"/>
        <pt x="972" y="94" on="1"/>
        <pt x="1013" y="73" on="0"/>
        <pt x="1094" y="47" on="0"/>
        <pt x="1135" y="47" on="1"/>
        <pt x="1207" y="47" on="0"/>
        <pt x="1322" y="104" on="0"/>
        <pt x="1403" y="193" on="0"/>
        <pt x="1446" y="301" on="0"/>
        <pt x="1446" y="351" on="1"/>
        <pt x="1446" y="423" on="0"/>
        <pt x="1403" y="532" on="0"/>
        <pt x="1326" y="605" on="0"/>
        <pt x="1220" y="643" on="0"/>
        <pt x="1157" y="643" on="1"/>
      </contour>
      <contour>
        <pt x="1155" y="1679" on="1"/>
        <pt x="1108" y="1694" on="1"/>
        <pt x="1184" y="1876" on="1"/>
        <pt x="1245" y="1851" on="1"/>
      </contour>
      <contour>
        <pt x="876" y="1679" on="1"/>
        <pt x="829" y="1694" on="1"/>
        <pt x="905" y="1876" on="1"/>
        <pt x="966" y="1851" on="1"/>
      </contour>
    </TTGlyph>
    <TTGlyph name="Igrave" xMin="93" yMin="-41" xMax="1496" yMax="1931">
      <contour>
        <pt x="1157" y="693" on="1"/>
        <pt x="1230" y="693" on="0"/>
        <pt x="1355" y="649" on="0"/>
        <pt x="1445" y="562" on="0"/>
        <pt x="1496" y="435" on="0"/>
        <pt x="1496" y="351" on="1"/>
        <pt x="1496" y="292" on="0"/>
        <pt x="1445" y="167" on="0"/>
        <pt x="1351" y="64" on="0"/>
        <pt x="1218" y="-3" on="0"/>
        <pt x="1135" y="-3" on="1"/>
        <pt x="1083" y="-3" on="0"/>
        <pt x="988" y="26" on="0"/>
        <pt x="898" y="74" on="0"/>
        <pt x="813" y="135" on="0"/>
        <pt x="770" y="168" on="1"/>
        <pt x="727" y="200" on="0"/>
        <pt x="640" y="263" on="0"/>
        <pt x="547" y="312" on="0"/>
        <pt x="446" y="343" on="0"/>
        <pt x="391" y="343" on="1"/>
        <pt x="322" y="343" on="0"/>
        <pt x="227" y="309" on="0"/>
        <pt x="169" y="253" on="0"/>
        <pt x="143" y="182" on="0"/>
        <pt x="143" y="145" on="1"/>
        <pt x="143" y="113" on="0"/>
        <pt x="163" y="63" on="0"/>
        <pt x="197" y="28" on="0"/>
        <pt x="240" y="9" on="0"/>
        <pt x="264" y="9" on="1"/>
        <pt x="264" y="-41" on="1"/>
        <pt x="231" y="-41" on="0"/>
        <pt x="169" y="-16" on="0"/>
        <pt x="121" y="32" on="0"/>
        <pt x="93" y="101" on="0"/>
        <pt x="93" y="145" on="1"/>
        <pt x="93" y="191" on="0"/>
        <pt x="124" y="280" on="0"/>
        <pt x="194" y="350" on="0"/>
        <pt x="308" y="393" on="0"/>
        <pt x="391" y="393" on="1"/>
        <pt x="451" y="393" on="0"/>
        <pt x="561" y="360" on="0"/>
        <pt x="663" y="308" on="0"/>
        <pt x="756" y="241" on="0"/>
        <pt x="800" y="208" on="1"/>
        <pt x="829" y="185" on="0"/>
        <pt x="893" y="140" on="0"/>
        <pt x="926" y="120" on="1"/>
        <pt x="967" y="157" on="0"/>
        <pt x="1013" y="257" on="0"/>
        <pt x="1013" y="316" on="1"/>
        <pt x="1013" y="378" on="0"/>
        <pt x="982" y="487" on="0"/>
        <pt x="931" y="584" on="0"/>
        <pt x="868" y="673" on="0"/>
        <pt x="836" y="715" on="1"/>
        <pt x="808" y="752" on="0"/>
        <pt x="756" y="825" on="0"/>
        <pt x="716" y="900" on="0"/>
        <pt x="692" y="981" on="0"/>
        <pt x="692" y="1026" on="1"/>
        <pt x="936" y="1217" on="1"/>
        <pt x="903" y="1237" on="0"/>
        <pt x="836" y="1297" on="0"/>
        <pt x="765" y="1363" on="0"/>
        <pt x="688" y="1430" on="0"/>
        <pt x="603" y="1483" on="0"/>
        <pt x="508" y="1516" on="0"/>
        <pt x="454" y="1516" on="1"/>
        <pt x="382" y="1516" on="0"/>
        <pt x="267" y="1459" on="0"/>
        <pt x="186" y="1370" on="0"/>
        <pt x="143" y="1262" on="0"/>
        <pt x="143" y="1212" on="1"/>
        <pt x="143" y="1140" on="0"/>
        <pt x="186" y="1031" on="0"/>
        <pt x="263" y="958" on="0"/>
        <pt x="369" y="920" on="0"/>
        <pt x="432" y="920" on="1"/>
        <pt x="432" y="870" on="1"/>
        <pt x="358" y="870" on="0"/>
        <pt x="234" y="914" on="0"/>
        <pt x="144" y="1001" on="0"/>
        <pt x="93" y="1128" on="0"/>
        <pt x="93" y="1212" on="1"/>
        <pt x="93" y="1270" on="0"/>
        <pt x="144" y="1396" on="0"/>
        <pt x="238" y="1499" on="0"/>
        <pt x="371" y="1566" on="0"/>
        <pt x="454" y="1566" on="1"/>
        <pt x="533" y="1566" on="0"/>
        <pt x="660" y="1509" on="0"/>
        <pt x="771" y="1424" on="0"/>
        <pt x="875" y="1325" on="0"/>
        <pt x="988" y="1240" on="0"/>
        <pt x="1117" y="1183" on="0"/>
        <pt x="1198" y="1183" on="1"/>
        <pt x="1267" y="1183" on="0"/>
        <pt x="1362" y="1217" on="0"/>
        <pt x="1420" y="1273" on="0"/>
        <pt x="1446" y="1344" on="0"/>
        <pt x="1446" y="1381" on="1"/>
        <pt x="1446" y="1413" on="0"/>
        <pt x="1426" y="1463" on="0"/>
        <pt x="1392" y="1498" on="0"/>
        <pt x="1349" y="1517" on="0"/>
        <pt x="1325" y="1517" on="1"/>
        <pt x="1325" y="1567" on="1"/>
        <pt x="1358" y="1567" on="0"/>
        <pt x="1420" y="1542" on="0"/>
        <pt x="1468" y="1494" on="0"/>
        <pt x="1496" y="1425" on="0"/>
        <pt x="1496" y="1381" on="1"/>
        <pt x="1496" y="1335" on="0"/>
        <pt x="1465" y="1246" on="0"/>
        <pt x="1395" y="1176" on="0"/>
        <pt x="1281" y="1133" on="0"/>
        <pt x="1198" y="1133" on="1"/>
        <pt x="1138" y="1133" on="0"/>
        <pt x="1034" y="1165" on="0"/>
        <pt x="984" y="1190" on="1"/>
        <pt x="742" y="1002" on="1"/>
        <pt x="744" y="970" on="0"/>
        <pt x="769" y="906" on="0"/>
        <pt x="806" y="841" on="0"/>
        <pt x="853" y="776" on="0"/>
        <pt x="876" y="745" on="1"/>
        <pt x="909" y="701" on="0"/>
        <pt x="976" y="607" on="0"/>
        <pt x="1029" y="502" on="0"/>
        <pt x="1063" y="383" on="0"/>
        <pt x="1063" y="316" on="1"/>
        <pt x="1063" y="250" on="0"/>
        <pt x="1014" y="137" on="0"/>
        <pt x="972" y="94" on="1"/>
        <pt x="1013" y="73" on="0"/>
        <pt x="1094" y="47" on="0"/>
        <pt x="1135" y="47" on="1"/>
        <pt x="1207" y="47" on="0"/>
        <pt x="1322" y="104" on="0"/>
        <pt x="1403" y="193" on="0"/>
        <pt x="1446" y="301" on="0"/>
        <pt x="1446" y="351" on="1"/>
        <pt x="1446" y="423" on="0"/>
        <pt x="1403" y="532" on="0"/>
        <pt x="1326" y="605" on="0"/>
        <pt x="1220" y="643" on="0"/>
        <pt x="1157" y="643" on="1"/>
      </contour>
      <contour>
        <pt x="652" y="1872" on="1"/>
        <pt x="695" y="1931" on="1"/>
        <pt x="973" y="1728" on="1"/>
        <pt x="946" y="1684" on="1"/>
      </contour>
    </TTGlyph>
    <TTGlyph name="J" xMin="10" yMin="-278" xMax="1652" yMax="1567">
      <contour>
        <pt x="1237" y="801" on="1"/>
        <pt x="1269" y="832" on="0"/>
        <pt x="1307" y="916" on="0"/>
        <pt x="1307" y="965" on="1"/>
        <pt x="1307" y="1012" on="0"/>
        <pt x="1272" y="1094" on="0"/>
        <pt x="1210" y="1156" on="0"/>
        <pt x="1128" y="1191" on="0"/>
        <pt x="1081" y="1191" on="1"/>
        <pt x="1034" y="1191" on="0"/>
        <pt x="952" y="1156" on="0"/>
        <pt x="891" y="1094" on="0"/>
        <pt x="856" y="1012" on="0"/>
        <pt x="856" y="965" on="1"/>
        <pt x="856" y="878" on="0"/>
        <pt x="923" y="728" on="0"/>
        <pt x="1024" y="586" on="0"/>
        <pt x="1141" y="447" on="0"/>
        <pt x="1242" y="298" on="0"/>
        <pt x="1309" y="131" on="0"/>
        <pt x="1309" y="32" on="1"/>
        <pt x="1309" y="-29" on="0"/>
        <pt x="1264" y="-141" on="0"/>
        <pt x="1178" y="-227" on="0"/>
        <pt x="1052" y="-278" on="0"/>
        <pt x="971" y="-278" on="1"/>
        <pt x="891" y="-278" on="0"/>
        <pt x="770" y="-225" on="0"/>
        <pt x="677" y="-139" on="0"/>
        <pt x="603" y="-29" on="0"/>
        <pt x="538" y="85" on="0"/>
        <pt x="473" y="195" on="0"/>
        <pt x="397" y="281" on="0"/>
        <pt x="303" y="334" on="0"/>
        <pt x="241" y="334" on="1"/>
        <pt x="193" y="334" on="0"/>
        <pt x="125" y="306" on="0"/>
        <pt x="81" y="261" on="0"/>
        <pt x="60" y="203" on="0"/>
        <pt x="60" y="172" on="1"/>
        <pt x="60" y="116" on="0"/>
        <pt x="123" y="50" on="0"/>
        <pt x="168" y="50" on="1"/>
        <pt x="190" y="50" on="0"/>
        <pt x="230" y="67" on="0"/>
        <pt x="260" y="96" on="0"/>
        <pt x="277" y="135" on="0"/>
        <pt x="277" y="158" on="1"/>
        <pt x="327" y="158" on="1"/>
        <pt x="327" y="125" on="0"/>
        <pt x="302" y="67" on="0"/>
        <pt x="259" y="25" on="0"/>
        <pt x="201" y="0" on="0"/>
        <pt x="168" y="0" on="1"/>
        <pt x="135" y="0" on="0"/>
        <pt x="77" y="25" on="0"/>
        <pt x="35" y="70" on="0"/>
        <pt x="10" y="132" on="0"/>
        <pt x="10" y="170" on="1"/>
        <pt x="10" y="208" on="0"/>
        <pt x="36" y="284" on="0"/>
        <pt x="92" y="346" on="0"/>
        <pt x="180" y="384" on="0"/>
        <pt x="241" y="384" on="1"/>
        <pt x="312" y="384" on="0"/>
        <pt x="417" y="331" on="0"/>
        <pt x="500" y="245" on="0"/>
        <pt x="566" y="135" on="0"/>
        <pt x="630" y="21" on="0"/>
        <pt x="698" y="-89" on="0"/>
        <pt x="785" y="-175" on="0"/>
        <pt x="898" y="-228" on="0"/>
        <pt x="974" y="-228" on="1"/>
        <pt x="1041" y="-228" on="0"/>
        <pt x="1147" y="-185" on="0"/>
        <pt x="1221" y="-113" on="0"/>
        <pt x="1259" y="-19" on="0"/>
        <pt x="1259" y="32" on="1"/>
        <pt x="1259" y="126" on="0"/>
        <pt x="1192" y="286" on="0"/>
        <pt x="1091" y="433" on="0"/>
        <pt x="974" y="572" on="0"/>
        <pt x="873" y="717" on="0"/>
        <pt x="806" y="874" on="0"/>
        <pt x="806" y="965" on="1"/>
        <pt x="806" y="1019" on="0"/>
        <pt x="848" y="1115" on="0"/>
        <pt x="918" y="1189" on="0"/>
        <pt x="1012" y="1236" on="0"/>
        <pt x="1065" y="1241" on="1"/>
        <pt x="1039" y="1257" on="0"/>
        <pt x="980" y="1311" on="0"/>
        <pt x="914" y="1372" on="0"/>
        <pt x="840" y="1434" on="0"/>
        <pt x="756" y="1484" on="0"/>
        <pt x="663" y="1516" on="0"/>
        <pt x="611" y="1516" on="1"/>
        <pt x="539" y="1516" on="0"/>
        <pt x="424" y="1459" on="0"/>
        <pt x="343" y="1370" on="0"/>
        <pt x="300" y="1262" on="0"/>
        <pt x="300" y="1212" on="1"/>
        <pt x="300" y="1140" on="0"/>
        <pt x="343" y="1031" on="0"/>
        <pt x="420" y="958" on="0"/>
        <pt x="526" y="920" on="0"/>
        <pt x="589" y="920" on="1"/>
        <pt x="589" y="870" on="1"/>
        <pt x="515" y="870" on="0"/>
        <pt x="391" y="914" on="0"/>
        <pt x="301" y="1001" on="0"/>
        <pt x="250" y="1128" on="0"/>
        <pt x="250" y="1212" on="1"/>
        <pt x="250" y="1270" on="0"/>
        <pt x="301" y="1396" on="0"/>
        <pt x="395" y="1499" on="0"/>
        <pt x="528" y="1566" on="0"/>
        <pt x="611" y="1566" on="1"/>
        <pt x="690" y="1566" on="0"/>
        <pt x="817" y="1509" on="0"/>
        <pt x="929" y="1424" on="0"/>
        <pt x="1033" y="1325" on="0"/>
        <pt x="1145" y="1240" on="0"/>
        <pt x="1274" y="1183" on="0"/>
        <pt x="1354" y="1183" on="1"/>
        <pt x="1423" y="1183" on="0"/>
        <pt x="1518" y="1217" on="0"/>
        <pt x="1576" y="1273" on="0"/>
        <pt x="1602" y="1344" on="0"/>
        <pt x="1602" y="1381" on="1"/>
        <pt x="1602" y="1413" on="0"/>
        <pt x="1582" y="1463" on="0"/>
        <pt x="1548" y="1498" on="0"/>
        <pt x="1505" y="1517" on="0"/>
        <pt x="1481" y="1517" on="1"/>
        <pt x="1481" y="1567" on="1"/>
        <pt x="1514" y="1567" on="0"/>
        <pt x="1576" y="1542" on="0"/>
        <pt x="1624" y="1494" on="0"/>
        <pt x="1652" y="1425" on="0"/>
        <pt x="1652" y="1381" on="1"/>
        <pt x="1652" y="1335" on="0"/>
        <pt x="1621" y="1246" on="0"/>
        <pt x="1551" y="1176" on="0"/>
        <pt x="1437" y="1133" on="0"/>
        <pt x="1354" y="1133" on="1"/>
        <pt x="1339" y="1133" on="0"/>
        <pt x="1311" y="1135" on="0"/>
        <pt x="1297" y="1137" on="1"/>
        <pt x="1325" y="1102" on="0"/>
        <pt x="1357" y="1014" on="0"/>
        <pt x="1357" y="965" on="1"/>
        <pt x="1357" y="905" on="0"/>
        <pt x="1311" y="803" on="0"/>
        <pt x="1271" y="765" on="1"/>
      </contour>
    </TTGlyph>
    <TTGlyph name="K" xMin="20" yMin="-25" xMax="1337" yMax="1567">
      <contour>
        <pt x="320" y="388" on="1"/>
        <pt x="320" y="410" on="0"/>
        <pt x="303" y="450" on="0"/>
        <pt x="273" y="480" on="0"/>
        <pt x="233" y="497" on="0"/>
        <pt x="211" y="497" on="1"/>
        <pt x="187" y="497" on="0"/>
        <pt x="137" y="477" on="0"/>
        <pt x="96" y="437" on="0"/>
        <pt x="70" y="374" on="0"/>
        <pt x="70" y="332" on="1"/>
        <pt x="70" y="260" on="0"/>
        <pt x="124" y="153" on="0"/>
        <pt x="207" y="84" on="0"/>
        <pt x="306" y="50" on="0"/>
        <pt x="351" y="50" on="1"/>
        <pt x="424" y="50" on="0"/>
        <pt x="543" y="99" on="0"/>
        <pt x="625" y="188" on="0"/>
        <pt x="670" y="312" on="0"/>
        <pt x="670" y="387" on="1"/>
        <pt x="670" y="462" on="0"/>
        <pt x="616" y="594" on="0"/>
        <pt x="536" y="718" on="0"/>
        <pt x="442" y="841" on="0"/>
        <pt x="362" y="972" on="0"/>
        <pt x="308" y="1118" on="0"/>
        <pt x="308" y="1205" on="1"/>
        <pt x="308" y="1299" on="0"/>
        <pt x="364" y="1435" on="0"/>
        <pt x="464" y="1524" on="0"/>
        <pt x="602" y="1567" on="0"/>
        <pt x="684" y="1567" on="1"/>
        <pt x="747" y="1567" on="0"/>
        <pt x="859" y="1531" on="0"/>
        <pt x="943" y="1464" on="0"/>
        <pt x="992" y="1366" on="0"/>
        <pt x="992" y="1304" on="1"/>
        <pt x="992" y="1251" on="0"/>
        <pt x="955" y="1158" on="0"/>
        <pt x="899" y="1080" on="0"/>
        <pt x="833" y="1017" on="0"/>
        <pt x="805" y="995" on="1"/>
        <pt x="773" y="1035" on="1"/>
        <pt x="798" y="1055" on="0"/>
        <pt x="858" y="1106" on="0"/>
        <pt x="908" y="1171" on="0"/>
        <pt x="942" y="1254" on="0"/>
        <pt x="942" y="1306" on="1"/>
        <pt x="942" y="1356" on="0"/>
        <pt x="900" y="1434" on="0"/>
        <pt x="829" y="1488" on="0"/>
        <pt x="735" y="1517" on="0"/>
        <pt x="684" y="1517" on="1"/>
        <pt x="610" y="1517" on="0"/>
        <pt x="490" y="1477" on="0"/>
        <pt x="404" y="1397" on="0"/>
        <pt x="358" y="1279" on="0"/>
        <pt x="358" y="1201" on="1"/>
        <pt x="358" y="1124" on="0"/>
        <pt x="403" y="995" on="0"/>
        <pt x="472" y="880" on="0"/>
        <pt x="556" y="773" on="0"/>
        <pt x="595" y="718" on="1"/>
        <pt x="1128" y="1142" on="1"/>
        <pt x="1141" y="1153" on="0"/>
        <pt x="1171" y="1186" on="0"/>
        <pt x="1196" y="1229" on="0"/>
        <pt x="1212" y="1280" on="0"/>
        <pt x="1212" y="1310" on="1"/>
        <pt x="1212" y="1355" on="0"/>
        <pt x="1190" y="1406" on="1"/>
        <pt x="1236" y="1426" on="1"/>
        <pt x="1262" y="1367" on="0"/>
        <pt x="1262" y="1310" on="1"/>
        <pt x="1262" y="1273" on="0"/>
        <pt x="1242" y="1209" on="0"/>
        <pt x="1212" y="1156" on="0"/>
        <pt x="1175" y="1115" on="0"/>
        <pt x="1159" y="1102" on="1"/>
        <pt x="1004" y="979" on="1"/>
        <pt x="1008" y="979" on="1"/>
        <pt x="1040" y="979" on="0"/>
        <pt x="1088" y="905" on="0"/>
        <pt x="1097" y="845" on="1"/>
        <pt x="1189" y="240" on="1"/>
        <pt x="1200" y="164" on="0"/>
        <pt x="1270" y="53" on="0"/>
        <pt x="1337" y="21" on="1"/>
        <pt x="1315" y="-25" on="1"/>
        <pt x="1235" y="12" on="0"/>
        <pt x="1152" y="145" on="0"/>
        <pt x="1139" y="232" on="1"/>
        <pt x="1047" y="837" on="1"/>
        <pt x="1032" y="934" on="0"/>
        <pt x="969" y="934" on="1"/>
        <pt x="955" y="934" on="0"/>
        <pt x="939" y="925" on="0"/>
        <pt x="931" y="920" on="1"/>
        <pt x="931" y="921" on="0"/>
        <pt x="932" y="922" on="1"/>
        <pt x="624" y="677" on="1"/>
        <pt x="665" y="614" on="0"/>
        <pt x="720" y="475" on="0"/>
        <pt x="720" y="390" on="1"/>
        <pt x="720" y="302" on="0"/>
        <pt x="672" y="158" on="0"/>
        <pt x="578" y="56" on="0"/>
        <pt x="440" y="0" on="0"/>
        <pt x="350" y="0" on="1"/>
        <pt x="296" y="0" on="0"/>
        <pt x="180" y="39" on="0"/>
        <pt x="83" y="120" on="0"/>
        <pt x="20" y="246" on="0"/>
        <pt x="20" y="332" on="1"/>
        <pt x="20" y="387" on="0"/>
        <pt x="56" y="468" on="0"/>
        <pt x="111" y="521" on="0"/>
        <pt x="179" y="547" on="0"/>
        <pt x="211" y="547" on="1"/>
        <pt x="244" y="547" on="0"/>
        <pt x="302" y="522" on="0"/>
        <pt x="345" y="479" on="0"/>
        <pt x="370" y="421" on="0"/>
        <pt x="370" y="388" on="1"/>
      </contour>
    </TTGlyph>
    <TTGlyph name="L" xMin="69" yMin="-41" xMax="1472" yMax="1568">
      <contour>
        <pt x="335" y="766" on="1"/>
        <pt x="296" y="766" on="0"/>
        <pt x="227" y="737" on="0"/>
        <pt x="176" y="688" on="0"/>
        <pt x="147" y="620" on="0"/>
        <pt x="147" y="581" on="1"/>
        <pt x="147" y="542" on="0"/>
        <pt x="176" y="473" on="0"/>
        <pt x="227" y="422" on="0"/>
        <pt x="296" y="393" on="0"/>
        <pt x="335" y="393" on="1"/>
        <pt x="375" y="393" on="0"/>
        <pt x="452" y="422" on="0"/>
        <pt x="513" y="473" on="0"/>
        <pt x="550" y="542" on="0"/>
        <pt x="550" y="581" on="1"/>
        <pt x="550" y="624" on="0"/>
        <pt x="533" y="701" on="0"/>
        <pt x="505" y="771" on="0"/>
        <pt x="470" y="836" on="0"/>
        <pt x="453" y="866" on="1"/>
        <pt x="435" y="897" on="0"/>
        <pt x="397" y="972" on="0"/>
        <pt x="365" y="1056" on="0"/>
        <pt x="345" y="1150" on="0"/>
        <pt x="345" y="1200" on="1"/>
        <pt x="345" y="1279" on="0"/>
        <pt x="405" y="1414" on="0"/>
        <pt x="514" y="1512" on="0"/>
        <pt x="667" y="1568" on="0"/>
        <pt x="760" y="1568" on="1"/>
        <pt x="853" y="1568" on="0"/>
        <pt x="992" y="1506" on="0"/>
        <pt x="1085" y="1404" on="0"/>
        <pt x="1131" y="1273" on="0"/>
        <pt x="1131" y="1204" on="1"/>
        <pt x="1081" y="1204" on="1"/>
        <pt x="1081" y="1263" on="0"/>
        <pt x="1041" y="1376" on="0"/>
        <pt x="961" y="1464" on="0"/>
        <pt x="840" y="1518" on="0"/>
        <pt x="760" y="1518" on="1"/>
        <pt x="678" y="1518" on="0"/>
        <pt x="543" y="1470" on="0"/>
        <pt x="447" y="1385" on="0"/>
        <pt x="395" y="1269" on="0"/>
        <pt x="395" y="1200" on="1"/>
        <pt x="395" y="1150" on="0"/>
        <pt x="413" y="1066" on="0"/>
        <pt x="442" y="992" on="0"/>
        <pt x="478" y="925" on="0"/>
        <pt x="497" y="892" on="1"/>
        <pt x="516" y="859" on="0"/>
        <pt x="553" y="791" on="0"/>
        <pt x="582" y="717" on="0"/>
        <pt x="600" y="632" on="0"/>
        <pt x="600" y="581" on="1"/>
        <pt x="600" y="549" on="0"/>
        <pt x="580" y="490" on="0"/>
        <pt x="545" y="439" on="0"/>
        <pt x="498" y="396" on="0"/>
        <pt x="470" y="380" on="1"/>
        <pt x="513" y="369" on="0"/>
        <pt x="594" y="332" on="0"/>
        <pt x="670" y="286" on="0"/>
        <pt x="742" y="234" on="0"/>
        <pt x="776" y="208" on="1"/>
        <pt x="813" y="180" on="0"/>
        <pt x="896" y="123" on="0"/>
        <pt x="981" y="76" on="0"/>
        <pt x="1069" y="47" on="0"/>
        <pt x="1111" y="47" on="1"/>
        <pt x="1183" y="47" on="0"/>
        <pt x="1298" y="104" on="0"/>
        <pt x="1379" y="193" on="0"/>
        <pt x="1422" y="301" on="0"/>
        <pt x="1422" y="351" on="1"/>
        <pt x="1422" y="423" on="0"/>
        <pt x="1379" y="532" on="0"/>
        <pt x="1302" y="605" on="0"/>
        <pt x="1196" y="643" on="0"/>
        <pt x="1133" y="643" on="1"/>
        <pt x="1133" y="693" on="1"/>
        <pt x="1206" y="693" on="0"/>
        <pt x="1331" y="649" on="0"/>
        <pt x="1421" y="562" on="0"/>
        <pt x="1472" y="435" on="0"/>
        <pt x="1472" y="351" on="1"/>
        <pt x="1472" y="292" on="0"/>
        <pt x="1421" y="167" on="0"/>
        <pt x="1327" y="64" on="0"/>
        <pt x="1194" y="-3" on="0"/>
        <pt x="1111" y="-3" on="1"/>
        <pt x="1059" y="-3" on="0"/>
        <pt x="964" y="26" on="0"/>
        <pt x="874" y="74" on="0"/>
        <pt x="789" y="135" on="0"/>
        <pt x="746" y="168" on="1"/>
        <pt x="703" y="200" on="0"/>
        <pt x="616" y="263" on="0"/>
        <pt x="523" y="312" on="0"/>
        <pt x="422" y="343" on="0"/>
        <pt x="367" y="343" on="1"/>
        <pt x="298" y="343" on="0"/>
        <pt x="203" y="309" on="0"/>
        <pt x="145" y="253" on="0"/>
        <pt x="119" y="182" on="0"/>
        <pt x="119" y="145" on="1"/>
        <pt x="119" y="113" on="0"/>
        <pt x="139" y="63" on="0"/>
        <pt x="173" y="28" on="0"/>
        <pt x="216" y="9" on="0"/>
        <pt x="240" y="9" on="1"/>
        <pt x="240" y="-41" on="1"/>
        <pt x="207" y="-41" on="0"/>
        <pt x="145" y="-16" on="0"/>
        <pt x="97" y="32" on="0"/>
        <pt x="69" y="101" on="0"/>
        <pt x="69" y="145" on="1"/>
        <pt x="69" y="179" on="0"/>
        <pt x="86" y="246" on="0"/>
        <pt x="123" y="306" on="0"/>
        <pt x="182" y="355" on="0"/>
        <pt x="224" y="370" on="1"/>
        <pt x="167" y="400" on="0"/>
        <pt x="97" y="512" on="0"/>
        <pt x="97" y="581" on="1"/>
        <pt x="97" y="630" on="0"/>
        <pt x="134" y="716" on="0"/>
        <pt x="199" y="780" on="0"/>
        <pt x="285" y="816" on="0"/>
        <pt x="335" y="816" on="1"/>
      </contour>
    </TTGlyph>
    <TTGlyph name="M" xMin="58" yMin="-17" xMax="2239" yMax="1567">
      <contour>
        <pt x="526" y="1517" on="1"/>
        <pt x="459" y="1517" on="0"/>
        <pt x="359" y="1474" on="0"/>
        <pt x="293" y="1408" on="0"/>
        <pt x="261" y="1328" on="0"/>
        <pt x="261" y="1291" on="1"/>
        <pt x="261" y="1223" on="0"/>
        <pt x="308" y="1129" on="0"/>
        <pt x="378" y="1057" on="0"/>
        <pt x="459" y="995" on="0"/>
        <pt x="529" y="922" on="0"/>
        <pt x="576" y="827" on="0"/>
        <pt x="576" y="759" on="1"/>
        <pt x="576" y="684" on="0"/>
        <pt x="519" y="587" on="0"/>
        <pt x="435" y="532" on="0"/>
        <pt x="340" y="511" on="0"/>
        <pt x="302" y="511" on="1"/>
        <pt x="248" y="511" on="0"/>
        <pt x="159" y="546" on="0"/>
        <pt x="94" y="608" on="0"/>
        <pt x="58" y="689" on="0"/>
        <pt x="58" y="736" on="1"/>
        <pt x="58" y="782" on="0"/>
        <pt x="93" y="864" on="0"/>
        <pt x="155" y="926" on="0"/>
        <pt x="236" y="961" on="0"/>
        <pt x="283" y="961" on="1"/>
        <pt x="283" y="911" on="1"/>
        <pt x="247" y="911" on="0"/>
        <pt x="183" y="883" on="0"/>
        <pt x="136" y="836" on="0"/>
        <pt x="108" y="772" on="0"/>
        <pt x="108" y="736" on="1"/>
        <pt x="108" y="700" on="0"/>
        <pt x="136" y="636" on="0"/>
        <pt x="187" y="589" on="0"/>
        <pt x="258" y="561" on="0"/>
        <pt x="300" y="561" on="1"/>
        <pt x="332" y="561" on="0"/>
        <pt x="410" y="578" on="0"/>
        <pt x="479" y="625" on="0"/>
        <pt x="526" y="706" on="0"/>
        <pt x="526" y="769" on="1"/>
        <pt x="526" y="823" on="0"/>
        <pt x="479" y="902" on="0"/>
        <pt x="409" y="969" on="0"/>
        <pt x="328" y="1034" on="0"/>
        <pt x="258" y="1114" on="0"/>
        <pt x="211" y="1218" on="0"/>
        <pt x="211" y="1291" on="1"/>
        <pt x="211" y="1336" on="0"/>
        <pt x="250" y="1434" on="0"/>
        <pt x="328" y="1515" on="0"/>
        <pt x="446" y="1567" on="0"/>
        <pt x="526" y="1567" on="1"/>
        <pt x="580" y="1567" on="0"/>
        <pt x="685" y="1525" on="0"/>
        <pt x="780" y="1448" on="0"/>
        <pt x="860" y="1343" on="0"/>
        <pt x="890" y="1280" on="1"/>
        <pt x="930" y="1331" on="0"/>
        <pt x="1020" y="1433" on="0"/>
        <pt x="1116" y="1515" on="0"/>
        <pt x="1219" y="1567" on="0"/>
        <pt x="1273" y="1567" on="1"/>
        <pt x="1351" y="1567" on="0"/>
        <pt x="1460" y="1481" on="0"/>
        <pt x="1492" y="1384" on="1"/>
        <pt x="1526" y="1415" on="0"/>
        <pt x="1597" y="1481" on="0"/>
        <pt x="1669" y="1533" on="0"/>
        <pt x="1744" y="1567" on="0"/>
        <pt x="1784" y="1567" on="1"/>
        <pt x="1826" y="1567" on="0"/>
        <pt x="1876" y="1542" on="0"/>
        <pt x="1904" y="1499" on="0"/>
        <pt x="1916" y="1443" on="0"/>
        <pt x="1920" y="1413" on="1"/>
        <pt x="1924" y="1384" on="0"/>
        <pt x="1945" y="1304" on="0"/>
        <pt x="1989" y="1231" on="0"/>
        <pt x="2057" y="1180" on="0"/>
        <pt x="2107" y="1180" on="1"/>
        <pt x="2142" y="1209" on="0"/>
        <pt x="2189" y="1268" on="0"/>
        <pt x="2189" y="1306" on="1"/>
        <pt x="2239" y="1306" on="1"/>
        <pt x="2239" y="1267" on="0"/>
        <pt x="2209" y="1207" on="0"/>
        <pt x="2159" y="1155" on="0"/>
        <pt x="2094" y="1107" on="0"/>
        <pt x="2059" y="1081" on="1"/>
        <pt x="2011" y="1046" on="0"/>
        <pt x="1918" y="939" on="0"/>
        <pt x="1845" y="798" on="0"/>
        <pt x="1800" y="623" on="0"/>
        <pt x="1800" y="519" on="1"/>
        <pt x="1800" y="388" on="0"/>
        <pt x="1859" y="209" on="0"/>
        <pt x="1951" y="99" on="0"/>
        <pt x="2063" y="50" on="0"/>
        <pt x="2116" y="50" on="1"/>
        <pt x="2116" y="0" on="1"/>
        <pt x="2075" y="0" on="0"/>
        <pt x="1989" y="24" on="0"/>
        <pt x="1908" y="77" on="0"/>
        <pt x="1836" y="160" on="0"/>
        <pt x="1782" y="277" on="0"/>
        <pt x="1750" y="431" on="0"/>
        <pt x="1750" y="528" on="1"/>
        <pt x="1750" y="646" on="0"/>
        <pt x="1801" y="833" on="0"/>
        <pt x="1882" y="978" on="0"/>
        <pt x="1982" y="1085" on="0"/>
        <pt x="2031" y="1123" on="1"/>
        <pt x="2046" y="1134" on="1"/>
        <pt x="2000" y="1145" on="0"/>
        <pt x="1937" y="1210" on="0"/>
        <pt x="1895" y="1291" on="0"/>
        <pt x="1874" y="1375" on="0"/>
        <pt x="1870" y="1407" on="1"/>
        <pt x="1867" y="1430" on="0"/>
        <pt x="1860" y="1470" on="0"/>
        <pt x="1843" y="1500" on="0"/>
        <pt x="1811" y="1517" on="0"/>
        <pt x="1784" y="1517" on="1"/>
        <pt x="1751" y="1517" on="0"/>
        <pt x="1682" y="1483" on="0"/>
        <pt x="1613" y="1429" on="0"/>
        <pt x="1543" y="1363" on="0"/>
        <pt x="1508" y="1331" on="1"/>
        <pt x="1515" y="1298" on="0"/>
        <pt x="1526" y="1216" on="0"/>
        <pt x="1534" y="1124" on="0"/>
        <pt x="1538" y="1024" on="0"/>
        <pt x="1538" y="975" on="1"/>
        <pt x="1538" y="877" on="0"/>
        <pt x="1502" y="640" on="0"/>
        <pt x="1417" y="382" on="0"/>
        <pt x="1279" y="113" on="0"/>
        <pt x="1177" y="-17" on="1"/>
        <pt x="1135" y="0" on="1"/>
        <pt x="1132" y="31" on="0"/>
        <pt x="1116" y="87" on="0"/>
        <pt x="1087" y="130" on="0"/>
        <pt x="1041" y="156" on="0"/>
        <pt x="1007" y="156" on="1"/>
        <pt x="983" y="156" on="0"/>
        <pt x="932" y="144" on="0"/>
        <pt x="873" y="108" on="0"/>
        <pt x="805" y="44" on="0"/>
        <pt x="766" y="-8" on="1"/>
        <pt x="726" y="22" on="1"/>
        <pt x="770" y="80" on="0"/>
        <pt x="847" y="153" on="0"/>
        <pt x="916" y="192" on="0"/>
        <pt x="978" y="206" on="0"/>
        <pt x="1007" y="206" on="1"/>
        <pt x="1052" y="206" on="0"/>
        <pt x="1113" y="179" on="0"/>
        <pt x="1151" y="136" on="0"/>
        <pt x="1170" y="82" on="0"/>
        <pt x="1172" y="55" on="1"/>
        <pt x="1255" y="169" on="0"/>
        <pt x="1375" y="418" on="0"/>
        <pt x="1452" y="660" on="0"/>
        <pt x="1488" y="885" on="0"/>
        <pt x="1488" y="975" on="1"/>
        <pt x="1488" y="1117" on="0"/>
        <pt x="1462" y="1322" on="0"/>
        <pt x="1408" y="1454" on="0"/>
        <pt x="1327" y="1517" on="0"/>
        <pt x="1273" y="1517" on="1"/>
        <pt x="1224" y="1517" on="0"/>
        <pt x="1128" y="1464" on="0"/>
        <pt x="1036" y="1380" on="0"/>
        <pt x="951" y="1277" on="0"/>
        <pt x="912" y="1228" on="1"/>
        <pt x="932" y="1172" on="0"/>
        <pt x="954" y="1047" on="0"/>
        <pt x="954" y="976" on="1"/>
        <pt x="954" y="873" on="0"/>
        <pt x="915" y="658" on="0"/>
        <pt x="822" y="418" on="0"/>
        <pt x="665" y="145" on="0"/>
        <pt x="548" y="-16" on="1"/>
        <pt x="507" y="0" on="1"/>
        <pt x="503" y="32" on="0"/>
        <pt x="484" y="89" on="0"/>
        <pt x="452" y="131" on="0"/>
        <pt x="406" y="156" on="0"/>
        <pt x="374" y="156" on="1"/>
        <pt x="353" y="156" on="0"/>
        <pt x="302" y="141" on="0"/>
        <pt x="243" y="103" on="0"/>
        <pt x="174" y="36" on="0"/>
        <pt x="135" y="-16" on="1"/>
        <pt x="95" y="14" on="1"/>
        <pt x="139" y="72" on="0"/>
        <pt x="217" y="147" on="0"/>
        <pt x="287" y="190" on="0"/>
        <pt x="349" y="206" on="0"/>
        <pt x="377" y="206" on="1"/>
        <pt x="416" y="206" on="0"/>
        <pt x="476" y="184" on="0"/>
        <pt x="518" y="148" on="0"/>
        <pt x="545" y="100" on="0"/>
        <pt x="552" y="74" on="1"/>
        <pt x="654" y="215" on="0"/>
        <pt x="789" y="457" on="0"/>
        <pt x="870" y="676" on="0"/>
        <pt x="904" y="877" on="0"/>
        <pt x="904" y="976" on="1"/>
        <pt x="904" y="1096" on="0"/>
        <pt x="838" y="1295" on="0"/>
        <pt x="731" y="1438" on="0"/>
        <pt x="595" y="1517" on="0"/>
      </contour>
    </TTGlyph>
    <TTGlyph name="N" xMin="56" yMin="-23" xMax="1750" yMax="1568">
      <contour>
        <pt x="524" y="1517" on="1"/>
        <pt x="457" y="1517" on="0"/>
        <pt x="357" y="1474" on="0"/>
        <pt x="291" y="1408" on="0"/>
        <pt x="259" y="1328" on="0"/>
        <pt x="259" y="1291" on="1"/>
        <pt x="259" y="1223" on="0"/>
        <pt x="306" y="1129" on="0"/>
        <pt x="376" y="1057" on="0"/>
        <pt x="457" y="995" on="0"/>
        <pt x="527" y="922" on="0"/>
        <pt x="574" y="827" on="0"/>
        <pt x="574" y="759" on="1"/>
        <pt x="574" y="684" on="0"/>
        <pt x="517" y="587" on="0"/>
        <pt x="433" y="532" on="0"/>
        <pt x="338" y="511" on="0"/>
        <pt x="300" y="511" on="1"/>
        <pt x="246" y="511" on="0"/>
        <pt x="157" y="546" on="0"/>
        <pt x="92" y="608" on="0"/>
        <pt x="56" y="689" on="0"/>
        <pt x="56" y="736" on="1"/>
        <pt x="56" y="782" on="0"/>
        <pt x="91" y="864" on="0"/>
        <pt x="153" y="926" on="0"/>
        <pt x="234" y="961" on="0"/>
        <pt x="281" y="961" on="1"/>
        <pt x="281" y="911" on="1"/>
        <pt x="245" y="911" on="0"/>
        <pt x="181" y="883" on="0"/>
        <pt x="134" y="836" on="0"/>
        <pt x="106" y="772" on="0"/>
        <pt x="106" y="736" on="1"/>
        <pt x="106" y="700" on="0"/>
        <pt x="134" y="636" on="0"/>
        <pt x="185" y="589" on="0"/>
        <pt x="256" y="561" on="0"/>
        <pt x="298" y="561" on="1"/>
        <pt x="330" y="561" on="0"/>
        <pt x="408" y="578" on="0"/>
        <pt x="477" y="625" on="0"/>
        <pt x="524" y="706" on="0"/>
        <pt x="524" y="769" on="1"/>
        <pt x="524" y="823" on="0"/>
        <pt x="477" y="902" on="0"/>
        <pt x="407" y="969" on="0"/>
        <pt x="326" y="1034" on="0"/>
        <pt x="256" y="1114" on="0"/>
        <pt x="209" y="1218" on="0"/>
        <pt x="209" y="1291" on="1"/>
        <pt x="209" y="1336" on="0"/>
        <pt x="248" y="1434" on="0"/>
        <pt x="326" y="1515" on="0"/>
        <pt x="445" y="1567" on="0"/>
        <pt x="525" y="1567" on="1"/>
        <pt x="581" y="1567" on="0"/>
        <pt x="688" y="1524" on="0"/>
        <pt x="784" y="1446" on="0"/>
        <pt x="866" y="1335" on="0"/>
        <pt x="897" y="1267" on="1"/>
        <pt x="1267" y="454" on="1"/>
        <pt x="1261" y="517" on="0"/>
        <pt x="1261" y="590" on="1"/>
        <pt x="1261" y="693" on="0"/>
        <pt x="1296" y="872" on="0"/>
        <pt x="1363" y="1033" on="0"/>
        <pt x="1464" y="1182" on="0"/>
        <pt x="1530" y="1256" on="1"/>
        <pt x="1580" y="1312" on="0"/>
        <pt x="1646" y="1403" on="0"/>
        <pt x="1685" y="1478" on="0"/>
        <pt x="1700" y="1540" on="0"/>
        <pt x="1700" y="1568" on="1"/>
        <pt x="1750" y="1568" on="1"/>
        <pt x="1750" y="1529" on="0"/>
        <pt x="1732" y="1456" on="0"/>
        <pt x="1689" y="1376" on="0"/>
        <pt x="1619" y="1284" on="0"/>
        <pt x="1567" y="1226" on="1"/>
        <pt x="1497" y="1148" on="0"/>
        <pt x="1400" y="1006" on="0"/>
        <pt x="1339" y="856" on="0"/>
        <pt x="1311" y="690" on="0"/>
        <pt x="1311" y="588" on="1"/>
        <pt x="1311" y="432" on="0"/>
        <pt x="1370" y="224" on="0"/>
        <pt x="1462" y="101" on="0"/>
        <pt x="1574" y="50" on="0"/>
        <pt x="1627" y="50" on="1"/>
        <pt x="1627" y="0" on="1"/>
        <pt x="1586" y="0" on="0"/>
        <pt x="1499" y="24" on="0"/>
        <pt x="1416" y="79" on="0"/>
        <pt x="1344" y="170" on="0"/>
        <pt x="1317" y="238" on="1"/>
        <pt x="950" y="1037" on="1"/>
        <pt x="953" y="1007" on="0"/>
        <pt x="953" y="976" on="1"/>
        <pt x="953" y="873" on="0"/>
        <pt x="914" y="658" on="0"/>
        <pt x="821" y="418" on="0"/>
        <pt x="664" y="145" on="0"/>
        <pt x="547" y="-16" on="1"/>
        <pt x="506" y="0" on="1"/>
        <pt x="502" y="32" on="0"/>
        <pt x="483" y="89" on="0"/>
        <pt x="451" y="131" on="0"/>
        <pt x="405" y="156" on="0"/>
        <pt x="373" y="156" on="1"/>
        <pt x="352" y="156" on="0"/>
        <pt x="302" y="139" on="0"/>
        <pt x="245" y="98" on="0"/>
        <pt x="177" y="29" on="0"/>
        <pt x="138" y="-23" on="1"/>
        <pt x="98" y="7" on="1"/>
        <pt x="142" y="65" on="0"/>
        <pt x="219" y="142" on="0"/>
        <pt x="287" y="188" on="0"/>
        <pt x="348" y="206" on="0"/>
        <pt x="376" y="206" on="1"/>
        <pt x="415" y="206" on="0"/>
        <pt x="475" y="184" on="0"/>
        <pt x="517" y="148" on="0"/>
        <pt x="544" y="100" on="0"/>
        <pt x="551" y="74" on="1"/>
        <pt x="653" y="215" on="0"/>
        <pt x="788" y="457" on="0"/>
        <pt x="869" y="676" on="0"/>
        <pt x="903" y="877" on="0"/>
        <pt x="903" y="976" on="1"/>
        <pt x="903" y="1096" on="0"/>
        <pt x="837" y="1295" on="0"/>
        <pt x="729" y="1438" on="0"/>
        <pt x="593" y="1517" on="0"/>
      </contour>
    </TTGlyph>
    <TTGlyph name="Ntilde" xMin="56" yMin="-23" xMax="1750" yMax="1861">
      <contour>
        <pt x="524" y="1517" on="1"/>
        <pt x="457" y="1517" on="0"/>
        <pt x="357" y="1474" on="0"/>
        <pt x="291" y="1408" on="0"/>
        <pt x="259" y="1328" on="0"/>
        <pt x="259" y="1291" on="1"/>
        <pt x="259" y="1223" on="0"/>
        <pt x="306" y="1129" on="0"/>
        <pt x="376" y="1057" on="0"/>
        <pt x="457" y="995" on="0"/>
        <pt x="527" y="922" on="0"/>
        <pt x="574" y="827" on="0"/>
        <pt x="574" y="759" on="1"/>
        <pt x="574" y="684" on="0"/>
        <pt x="517" y="587" on="0"/>
        <pt x="433" y="532" on="0"/>
        <pt x="338" y="511" on="0"/>
        <pt x="300" y="511" on="1"/>
        <pt x="246" y="511" on="0"/>
        <pt x="157" y="546" on="0"/>
        <pt x="92" y="608" on="0"/>
        <pt x="56" y="689" on="0"/>
        <pt x="56" y="736" on="1"/>
        <pt x="56" y="782" on="0"/>
        <pt x="91" y="864" on="0"/>
        <pt x="153" y="926" on="0"/>
        <pt x="234" y="961" on="0"/>
        <pt x="281" y="961" on="1"/>
        <pt x="281" y="911" on="1"/>
        <pt x="245" y="911" on="0"/>
        <pt x="181" y="883" on="0"/>
        <pt x="134" y="836" on="0"/>
        <pt x="106" y="772" on="0"/>
        <pt x="106" y="736" on="1"/>
        <pt x="106" y="700" on="0"/>
        <pt x="134" y="636" on="0"/>
        <pt x="185" y="589" on="0"/>
        <pt x="256" y="561" on="0"/>
        <pt x="298" y="561" on="1"/>
        <pt x="330" y="561" on="0"/>
        <pt x="408" y="578" on="0"/>
        <pt x="477" y="625" on="0"/>
        <pt x="524" y="706" on="0"/>
        <pt x="524" y="769" on="1"/>
        <pt x="524" y="823" on="0"/>
        <pt x="477" y="902" on="0"/>
        <pt x="407" y="969" on="0"/>
        <pt x="326" y="1034" on="0"/>
        <pt x="256" y="1114" on="0"/>
        <pt x="209" y="1218" on="0"/>
        <pt x="209" y="1291" on="1"/>
        <pt x="209" y="1336" on="0"/>
        <pt x="248" y="1434" on="0"/>
        <pt x="326" y="1515" on="0"/>
        <pt x="445" y="1567" on="0"/>
        <pt x="525" y="1567" on="1"/>
        <pt x="581" y="1567" on="0"/>
        <pt x="688" y="1524" on="0"/>
        <pt x="784" y="1446" on="0"/>
        <pt x="866" y="1335" on="0"/>
        <pt x="897" y="1267" on="1"/>
        <pt x="1267" y="454" on="1"/>
        <pt x="1261" y="517" on="0"/>
        <pt x="1261" y="590" on="1"/>
        <pt x="1261" y="693" on="0"/>
        <pt x="1296" y="872" on="0"/>
        <pt x="1363" y="1033" on="0"/>
        <pt x="1464" y="1182" on="0"/>
        <pt x="1530" y="1256" on="1"/>
        <pt x="1580" y="1312" on="0"/>
        <pt x="1646" y="1403" on="0"/>
        <pt x="1685" y="1478" on="0"/>
        <pt x="1700" y="1540" on="0"/>
        <pt x="1700" y="1568" on="1"/>
        <pt x="1750" y="1568" on="1"/>
        <pt x="1750" y="1529" on="0"/>
        <pt x="1732" y="1456" on="0"/>
        <pt x="1689" y="1376" on="0"/>
        <pt x="1619" y="1284" on="0"/>
        <pt x="1567" y="1226" on="1"/>
        <pt x="1497" y="1148" on="0"/>
        <pt x="1400" y="1006" on="0"/>
        <pt x="1339" y="856" on="0"/>
        <pt x="1311" y="690" on="0"/>
        <pt x="1311" y="588" on="1"/>
        <pt x="1311" y="432" on="0"/>
        <pt x="1370" y="224" on="0"/>
        <pt x="1462" y="101" on="0"/>
        <pt x="1574" y="50" on="0"/>
        <pt x="1627" y="50" on="1"/>
        <pt x="1627" y="0" on="1"/>
        <pt x="1586" y="0" on="0"/>
        <pt x="1499" y="24" on="0"/>
        <pt x="1416" y="79" on="0"/>
        <pt x="1344" y="170" on="0"/>
        <pt x="1317" y="238" on="1"/>
        <pt x="950" y="1037" on="1"/>
        <pt x="953" y="1007" on="0"/>
        <pt x="953" y="976" on="1"/>
        <pt x="953" y="873" on="0"/>
        <pt x="914" y="658" on="0"/>
        <pt x="821" y="418" on="0"/>
        <pt x="664" y="145" on="0"/>
        <pt x="547" y="-16" on="1"/>
        <pt x="506" y="0" on="1"/>
        <pt x="502" y="32" on="0"/>
        <pt x="483" y="89" on="0"/>
        <pt x="451" y="131" on="0"/>
        <pt x="405" y="156" on="0"/>
        <pt x="373" y="156" on="1"/>
        <pt x="352" y="156" on="0"/>
        <pt x="302" y="139" on="0"/>
        <pt x="245" y="98" on="0"/>
        <pt x="177" y="29" on="0"/>
        <pt x="138" y="-23" on="1"/>
        <pt x="98" y="7" on="1"/>
        <pt x="142" y="65" on="0"/>
        <pt x="219" y="142" on="0"/>
        <pt x="287" y="188" on="0"/>
        <pt x="348" y="206" on="0"/>
        <pt x="376" y="206" on="1"/>
        <pt x="415" y="206" on="0"/>
        <pt x="475" y="184" on="0"/>
        <pt x="517" y="148" on="0"/>
        <pt x="544" y="100" on="0"/>
        <pt x="551" y="74" on="1"/>
        <pt x="653" y="215" on="0"/>
        <pt x="788" y="457" on="0"/>
        <pt x="869" y="676" on="0"/>
        <pt x="903" y="877" on="0"/>
        <pt x="903" y="976" on="1"/>
        <pt x="903" y="1096" on="0"/>
        <pt x="837" y="1295" on="0"/>
        <pt x="729" y="1438" on="0"/>
        <pt x="593" y="1517" on="0"/>
      </contour>
      <contour>
        <pt x="1610" y="1833" on="1"/>
        <pt x="1593" y="1801" on="0"/>
        <pt x="1544" y="1742" on="0"/>
        <pt x="1487" y="1696" on="0"/>
        <pt x="1427" y="1668" on="0"/>
        <pt x="1399" y="1668" on="1"/>
        <pt x="1346" y="1668" on="0"/>
        <pt x="1263" y="1719" on="0"/>
        <pt x="1226" y="1749" on="1"/>
        <pt x="1197" y="1773" on="0"/>
        <pt x="1139" y="1811" on="0"/>
        <pt x="1106" y="1811" on="1"/>
        <pt x="1054" y="1811" on="0"/>
        <pt x="960" y="1737" on="0"/>
        <pt x="930" y="1680" on="1"/>
        <pt x="886" y="1704" on="1"/>
        <pt x="904" y="1738" on="0"/>
        <pt x="952" y="1796" on="0"/>
        <pt x="1009" y="1838" on="0"/>
        <pt x="1073" y="1861" on="0"/>
        <pt x="1106" y="1861" on="1"/>
        <pt x="1150" y="1861" on="0"/>
        <pt x="1223" y="1815" on="0"/>
        <pt x="1258" y="1787" on="1"/>
        <pt x="1290" y="1761" on="0"/>
        <pt x="1359" y="1718" on="0"/>
        <pt x="1399" y="1718" on="1"/>
        <pt x="1420" y="1718" on="0"/>
        <pt x="1467" y="1742" on="0"/>
        <pt x="1512" y="1781" on="0"/>
        <pt x="1552" y="1831" on="0"/>
        <pt x="1566" y="1857" on="1"/>
      </contour>
    </TTGlyph>
    <TTGlyph name="O" xMin="28" yMin="0" xMax="1579" yMax="1568">
      <contour>
        <pt x="142" y="440" on="1"/>
        <pt x="188" y="353" on="0"/>
        <pt x="324" y="209" on="0"/>
        <pt x="492" y="107" on="0"/>
        <pt x="686" y="50" on="0"/>
        <pt x="792" y="50" on="1"/>
        <pt x="894" y="50" on="0"/>
        <pt x="1082" y="103" on="0"/>
        <pt x="1246" y="198" on="0"/>
        <pt x="1380" y="333" on="0"/>
        <pt x="1476" y="496" on="0"/>
        <pt x="1529" y="684" on="0"/>
        <pt x="1529" y="786" on="1"/>
        <pt x="1529" y="888" on="0"/>
        <pt x="1476" y="1075" on="0"/>
        <pt x="1379" y="1238" on="0"/>
        <pt x="1244" y="1371" on="0"/>
        <pt x="1080" y="1466" on="0"/>
        <pt x="891" y="1518" on="0"/>
        <pt x="789" y="1518" on="1"/>
        <pt x="668" y="1518" on="0"/>
        <pt x="474" y="1483" on="0"/>
        <pt x="338" y="1408" on="0"/>
        <pt x="265" y="1290" on="0"/>
        <pt x="265" y="1208" on="1"/>
        <pt x="265" y="1149" on="0"/>
        <pt x="294" y="1067" on="0"/>
        <pt x="337" y="1000" on="0"/>
        <pt x="387" y="940" on="0"/>
        <pt x="430" y="868" on="0"/>
        <pt x="459" y="773" on="0"/>
        <pt x="459" y="706" on="1"/>
        <pt x="459" y="661" on="0"/>
        <pt x="425" y="583" on="0"/>
        <pt x="366" y="525" on="0"/>
        <pt x="288" y="491" on="0"/>
        <pt x="243" y="491" on="1"/>
        <pt x="198" y="491" on="0"/>
        <pt x="120" y="525" on="0"/>
        <pt x="62" y="583" on="0"/>
        <pt x="28" y="661" on="0"/>
        <pt x="28" y="706" on="1"/>
        <pt x="78" y="706" on="1"/>
        <pt x="78" y="672" on="0"/>
        <pt x="104" y="612" on="0"/>
        <pt x="149" y="567" on="0"/>
        <pt x="209" y="541" on="0"/>
        <pt x="243" y="541" on="1"/>
        <pt x="277" y="541" on="0"/>
        <pt x="338" y="567" on="0"/>
        <pt x="383" y="612" on="0"/>
        <pt x="409" y="672" on="0"/>
        <pt x="409" y="706" on="1"/>
        <pt x="409" y="767" on="0"/>
        <pt x="380" y="855" on="0"/>
        <pt x="337" y="925" on="0"/>
        <pt x="287" y="987" on="0"/>
        <pt x="244" y="1057" on="0"/>
        <pt x="215" y="1145" on="0"/>
        <pt x="215" y="1206" on="1"/>
        <pt x="215" y="1302" on="0"/>
        <pt x="295" y="1439" on="0"/>
        <pt x="445" y="1527" on="0"/>
        <pt x="657" y="1568" on="0"/>
        <pt x="789" y="1568" on="1"/>
        <pt x="898" y="1568" on="0"/>
        <pt x="1099" y="1513" on="0"/>
        <pt x="1275" y="1411" on="0"/>
        <pt x="1419" y="1269" on="0"/>
        <pt x="1522" y="1095" on="0"/>
        <pt x="1579" y="895" on="0"/>
        <pt x="1579" y="786" on="1"/>
        <pt x="1579" y="677" on="0"/>
        <pt x="1523" y="476" on="0"/>
        <pt x="1420" y="302" on="0"/>
        <pt x="1277" y="158" on="0"/>
        <pt x="1102" y="56" on="0"/>
        <pt x="901" y="0" on="0"/>
        <pt x="792" y="0" on="1"/>
        <pt x="679" y="0" on="0"/>
        <pt x="471" y="60" on="0"/>
        <pt x="292" y="170" on="0"/>
        <pt x="147" y="323" on="0"/>
        <pt x="98" y="416" on="1"/>
      </contour>
    </TTGlyph>
</ttFont>
